<?xml version="1.0" encoding="UTF-8" standalone="no"?>
<!-- Created with Inkscape (http://www.inkscape.org/) -->

<svg
   xmlns:ns0="http://www.iki.fi/pav/software/textext/"
   xmlns:dc="http://purl.org/dc/elements/1.1/"
   xmlns:cc="http://creativecommons.org/ns#"
   xmlns:rdf="http://www.w3.org/1999/02/22-rdf-syntax-ns#"
   xmlns:svg="http://www.w3.org/2000/svg"
   xmlns="http://www.w3.org/2000/svg"
   xmlns:sodipodi="http://sodipodi.sourceforge.net/DTD/sodipodi-0.dtd"
   xmlns:inkscape="http://www.inkscape.org/namespaces/inkscape"
   width="68.141159mm"
   height="39.777462mm"
   viewBox="0 0 241.44505 140.94376"
   id="svg6447"
   version="1.1"
   inkscape:version="0.91 r13725"
   sodipodi:docname="Decision_Bound.svg">
  <sodipodi:namedview
     id="base"
     pagecolor="#ffffff"
     bordercolor="#666666"
     borderopacity="1.0"
     inkscape:pageopacity="0.0"
     inkscape:pageshadow="2"
     inkscape:zoom="1.4"
     inkscape:cx="74.777366"
     inkscape:cy="179.63334"
     inkscape:document-units="px"
     inkscape:current-layer="layer1"
     showgrid="false"
     inkscape:window-width="835"
     inkscape:window-height="722"
     inkscape:window-x="80"
     inkscape:window-y="21"
     inkscape:window-maximized="0"
     fit-margin-top="0"
     fit-margin-left="0"
     fit-margin-right="0"
     fit-margin-bottom="0" />
  <defs
     id="defs6449" />
  <metadata
     id="metadata6452">
    <rdf:RDF>
      <cc:Work
         rdf:about="">
        <dc:format>image/svg+xml</dc:format>
        <dc:type
           rdf:resource="http://purl.org/dc/dcmitype/StillImage" />
        <dc:title></dc:title>
      </cc:Work>
    </rdf:RDF>
  </metadata>
  <g
     transform="translate(-144.43322,-196.763)"
     id="layer1"
     inkscape:groupmode="layer"
     inkscape:label="Layer 1">
    <g
       id="g8599">
      <g
         id="g7322">
        <path
           inkscape:connector-curvature="0"
           id="path7082"
           d="m 161.62441,196.763 0,126.26907 224.25386,0"
           style="fill:none;fill-rule:evenodd;stroke:#000000;stroke-width:1px;stroke-linecap:butt;stroke-linejoin:miter;stroke-opacity:1" />
        <g
           transform="matrix(0.66533116,0,0,0.66533116,147.39137,109.33111)"
           id="g7088">
          <path
             style="fill:none;fill-rule:evenodd;stroke:#ff0000;stroke-width:3;stroke-linecap:butt;stroke-linejoin:miter;stroke-miterlimit:4;stroke-dasharray:none;stroke-opacity:1"
             d="m 54.548237,233.12849 c -5.192154,4.3268 -1.19627,0.4626 -5.555839,6.56599 -0.764284,1.07 -1.692721,2.01276 -2.525381,3.03046 -0.682644,0.83434 -1.310422,1.71409 -2.020305,2.52538 -4.684167,5.35333 0.334088,-1.00621 -2.020305,2.52538 -0.624124,0.93619 -0.505076,0.0463 -0.505076,1.01015"
             id="path7084"
             inkscape:connector-curvature="0" />
          <path
             style="fill:none;fill-rule:evenodd;stroke:#ff0000;stroke-width:3;stroke-linecap:butt;stroke-linejoin:miter;stroke-miterlimit:4;stroke-dasharray:none;stroke-opacity:1"
             d="m 36.870568,232.11834 c 2.653734,2.06727 5.341365,4.10387 8.08122,6.06091 0.493958,0.35283 1.048899,0.62155 1.515229,1.01016 0.54873,0.45727 0.966499,1.05795 1.515229,1.51522 0.932661,0.77722 2.020305,1.34687 3.030458,2.02031 1.62688,1.08459 2.1915,1.68642 3.535533,3.03046 0.168359,0.16836 0.292118,0.39859 0.505077,0.50507 0.673435,0.33672 0.505076,-0.50507 0.505076,0.50508"
             id="path7086"
             inkscape:connector-curvature="0" />
        </g>
        <g
           id="g7092"
           transform="matrix(0.66533116,0,0,0.66533116,153.45229,93.673746)">
          <path
             inkscape:connector-curvature="0"
             id="path7094"
             d="m 54.548237,233.12849 c -5.192154,4.3268 -1.19627,0.4626 -5.555839,6.56599 -0.764284,1.07 -1.692721,2.01276 -2.525381,3.03046 -0.682644,0.83434 -1.310422,1.71409 -2.020305,2.52538 -4.684167,5.35333 0.334088,-1.00621 -2.020305,2.52538 -0.624124,0.93619 -0.505076,0.0463 -0.505076,1.01015"
             style="fill:none;fill-rule:evenodd;stroke:#ff0000;stroke-width:3;stroke-linecap:butt;stroke-linejoin:miter;stroke-miterlimit:4;stroke-dasharray:none;stroke-opacity:1" />
          <path
             inkscape:connector-curvature="0"
             id="path7096"
             d="m 36.870568,232.11834 c 2.653734,2.06727 5.341365,4.10387 8.08122,6.06091 0.493958,0.35283 1.048899,0.62155 1.515229,1.01016 0.54873,0.45727 0.966499,1.05795 1.515229,1.51522 0.932661,0.77722 2.020305,1.34687 3.030458,2.02031 1.62688,1.08459 2.1915,1.68642 3.535533,3.03046 0.168359,0.16836 0.292118,0.39859 0.505077,0.50507 0.673435,0.33672 0.505076,-0.50507 0.505076,0.50508"
             style="fill:none;fill-rule:evenodd;stroke:#ff0000;stroke-width:3;stroke-linecap:butt;stroke-linejoin:miter;stroke-miterlimit:4;stroke-dasharray:none;stroke-opacity:1" />
        </g>
        <g
           transform="matrix(0.66533116,0,0,0.66533116,168.60458,108.82603)"
           id="g7098">
          <path
             style="fill:none;fill-rule:evenodd;stroke:#ff0000;stroke-width:3;stroke-linecap:butt;stroke-linejoin:miter;stroke-miterlimit:4;stroke-dasharray:none;stroke-opacity:1"
             d="m 54.548237,233.12849 c -5.192154,4.3268 -1.19627,0.4626 -5.555839,6.56599 -0.764284,1.07 -1.692721,2.01276 -2.525381,3.03046 -0.682644,0.83434 -1.310422,1.71409 -2.020305,2.52538 -4.684167,5.35333 0.334088,-1.00621 -2.020305,2.52538 -0.624124,0.93619 -0.505076,0.0463 -0.505076,1.01015"
             id="path7100"
             inkscape:connector-curvature="0" />
          <path
             style="fill:none;fill-rule:evenodd;stroke:#ff0000;stroke-width:3;stroke-linecap:butt;stroke-linejoin:miter;stroke-miterlimit:4;stroke-dasharray:none;stroke-opacity:1"
             d="m 36.870568,232.11834 c 2.653734,2.06727 5.341365,4.10387 8.08122,6.06091 0.493958,0.35283 1.048899,0.62155 1.515229,1.01016 0.54873,0.45727 0.966499,1.05795 1.515229,1.51522 0.932661,0.77722 2.020305,1.34687 3.030458,2.02031 1.62688,1.08459 2.1915,1.68642 3.535533,3.03046 0.168359,0.16836 0.292118,0.39859 0.505077,0.50507 0.673435,0.33672 0.505076,-0.50507 0.505076,0.50508"
             id="path7102"
             inkscape:connector-curvature="0" />
        </g>
        <g
           id="g7104"
           transform="matrix(0.66533116,0,0,0.66533116,162.54366,133.57477)">
          <path
             inkscape:connector-curvature="0"
             id="path7106"
             d="m 54.548237,233.12849 c -5.192154,4.3268 -1.19627,0.4626 -5.555839,6.56599 -0.764284,1.07 -1.692721,2.01276 -2.525381,3.03046 -0.682644,0.83434 -1.310422,1.71409 -2.020305,2.52538 -4.684167,5.35333 0.334088,-1.00621 -2.020305,2.52538 -0.624124,0.93619 -0.505076,0.0463 -0.505076,1.01015"
             style="fill:none;fill-rule:evenodd;stroke:#ff0000;stroke-width:3;stroke-linecap:butt;stroke-linejoin:miter;stroke-miterlimit:4;stroke-dasharray:none;stroke-opacity:1" />
          <path
             inkscape:connector-curvature="0"
             id="path7108"
             d="m 36.870568,232.11834 c 2.653734,2.06727 5.341365,4.10387 8.08122,6.06091 0.493958,0.35283 1.048899,0.62155 1.515229,1.01016 0.54873,0.45727 0.966499,1.05795 1.515229,1.51522 0.932661,0.77722 2.020305,1.34687 3.030458,2.02031 1.62688,1.08459 2.1915,1.68642 3.535533,3.03046 0.168359,0.16836 0.292118,0.39859 0.505077,0.50507 0.673435,0.33672 0.505076,-0.50507 0.505076,0.50508"
             style="fill:none;fill-rule:evenodd;stroke:#ff0000;stroke-width:3;stroke-linecap:butt;stroke-linejoin:miter;stroke-miterlimit:4;stroke-dasharray:none;stroke-opacity:1" />
        </g>
        <g
           transform="matrix(0.66533116,0,0,0.66533116,151.43198,140.14076)"
           id="g7110">
          <path
             style="fill:none;fill-rule:evenodd;stroke:#ff0000;stroke-width:3;stroke-linecap:butt;stroke-linejoin:miter;stroke-miterlimit:4;stroke-dasharray:none;stroke-opacity:1"
             d="m 54.548237,233.12849 c -5.192154,4.3268 -1.19627,0.4626 -5.555839,6.56599 -0.764284,1.07 -1.692721,2.01276 -2.525381,3.03046 -0.682644,0.83434 -1.310422,1.71409 -2.020305,2.52538 -4.684167,5.35333 0.334088,-1.00621 -2.020305,2.52538 -0.624124,0.93619 -0.505076,0.0463 -0.505076,1.01015"
             id="path7112"
             inkscape:connector-curvature="0" />
          <path
             style="fill:none;fill-rule:evenodd;stroke:#ff0000;stroke-width:3;stroke-linecap:butt;stroke-linejoin:miter;stroke-miterlimit:4;stroke-dasharray:none;stroke-opacity:1"
             d="m 36.870568,232.11834 c 2.653734,2.06727 5.341365,4.10387 8.08122,6.06091 0.493958,0.35283 1.048899,0.62155 1.515229,1.01016 0.54873,0.45727 0.966499,1.05795 1.515229,1.51522 0.932661,0.77722 2.020305,1.34687 3.030458,2.02031 1.62688,1.08459 2.1915,1.68642 3.535533,3.03046 0.168359,0.16836 0.292118,0.39859 0.505077,0.50507 0.673435,0.33672 0.505076,-0.50507 0.505076,0.50508"
             id="path7114"
             inkscape:connector-curvature="0" />
        </g>
        <g
           id="g7116"
           transform="matrix(0.66533116,0,0,0.66533116,168.60457,150.74736)">
          <path
             inkscape:connector-curvature="0"
             id="path7118"
             d="m 54.548237,233.12849 c -5.192154,4.3268 -1.19627,0.4626 -5.555839,6.56599 -0.764284,1.07 -1.692721,2.01276 -2.525381,3.03046 -0.682644,0.83434 -1.310422,1.71409 -2.020305,2.52538 -4.684167,5.35333 0.334088,-1.00621 -2.020305,2.52538 -0.624124,0.93619 -0.505076,0.0463 -0.505076,1.01015"
             style="fill:none;fill-rule:evenodd;stroke:#ff0000;stroke-width:3;stroke-linecap:butt;stroke-linejoin:miter;stroke-miterlimit:4;stroke-dasharray:none;stroke-opacity:1" />
          <path
             inkscape:connector-curvature="0"
             id="path7120"
             d="m 36.870568,232.11834 c 2.653734,2.06727 5.341365,4.10387 8.08122,6.06091 0.493958,0.35283 1.048899,0.62155 1.515229,1.01016 0.54873,0.45727 0.966499,1.05795 1.515229,1.51522 0.932661,0.77722 2.020305,1.34687 3.030458,2.02031 1.62688,1.08459 2.1915,1.68642 3.535533,3.03046 0.168359,0.16836 0.292118,0.39859 0.505077,0.50507 0.673435,0.33672 0.505076,-0.50507 0.505076,0.50508"
             style="fill:none;fill-rule:evenodd;stroke:#ff0000;stroke-width:3;stroke-linecap:butt;stroke-linejoin:miter;stroke-miterlimit:4;stroke-dasharray:none;stroke-opacity:1" />
        </g>
        <path
           inkscape:connector-curvature="0"
           id="path7128"
           d="m 206.15276,215.75978 c -0.40456,0.20227 -0.86048,0.32428 -1.21367,0.60683 -0.1766,0.14128 -0.17797,0.41867 -0.30342,0.60684 -0.0793,0.11901 -0.23945,0.17549 -0.30342,0.30342 -0.14303,0.28606 -0.18464,0.6133 -0.30342,0.91025 -0.084,0.20998 -0.24857,0.38744 -0.30341,0.60684 -0.0491,0.19624 0.0491,0.4106 0,0.60683 -0.0548,0.2194 -0.24857,0.38744 -0.30342,0.60684 -0.0736,0.29436 0,0.60684 0,0.91025 0,0.60684 0,1.21368 0,1.82051 0,0.0991 -0.0652,1.45192 0,1.51709 0.14303,0.14304 0.41494,-0.064 0.60683,0 0.2469,0.0823 0.55447,0.69052 1.21368,0.91026 0.12315,0.041 0.79602,0.0571 0.91025,0 0.25587,-0.12794 0.32931,-0.53746 0.60684,-0.60684 0.29436,-0.0736 0.65779,0.1683 0.91025,0 0.1683,-0.1122 -0.0905,-0.42591 0,-0.60683 0.0452,-0.0905 0.21296,0.0452 0.30342,0 0.25586,-0.12794 0.35097,-0.47891 0.60684,-0.60684 0.0905,-0.0452 0.2319,0.0715 0.30341,0 0.0715,-0.0715 -0.0715,-0.2319 0,-0.30342 0.0715,-0.0715 0.21296,0.0452 0.30342,0 0.67087,-0.33544 0.0942,-0.18831 0.30342,-0.60683 0.064,-0.12794 0.23945,-0.17549 0.30341,-0.30342 0.0129,-0.0259 0.0129,-1.18781 0,-1.21368 -0.064,-0.12793 -0.23944,-0.17548 -0.30341,-0.30341 -0.0452,-0.0905 0.0452,-0.21296 0,-0.30342 -0.064,-0.12794 -0.23945,-0.17549 -0.30342,-0.30342 -0.0452,-0.0905 0.0452,-0.21296 0,-0.30342 -0.064,-0.12793 -0.23945,-0.17548 -0.30342,-0.30342 -0.0452,-0.0905 0.032,-0.20746 0,-0.30341 -0.0715,-0.21455 -0.2319,-0.39229 -0.30341,-0.60684 -0.032,-0.096 0.0715,-0.2319 0,-0.30342 -0.0715,-0.0715 -0.23191,0.0715 -0.30343,0 -0.0715,-0.0715 0.0452,-0.21295 0,-0.30342 -0.064,-0.12793 -0.23945,-0.17548 -0.30341,-0.30342 -0.0452,-0.0905 0.0452,-0.21295 0,-0.30341 -0.064,-0.12793 -0.23945,-0.17549 -0.30342,-0.30342 -0.0452,-0.0905 0.0715,-0.2319 0,-0.30342 -0.0715,-0.0715 -0.21669,0.052 -0.30342,0 -0.43363,-0.26017 -0.80911,-0.60684 -1.21367,-0.91025 z"
           style="fill:none;fill-rule:evenodd;stroke:#0000ff;stroke-width:1.80221128;stroke-linecap:butt;stroke-linejoin:miter;stroke-miterlimit:4;stroke-dasharray:none;stroke-opacity:1" />
        <path
           style="fill:none;fill-rule:evenodd;stroke:#0000ff;stroke-width:1.80221128;stroke-linecap:butt;stroke-linejoin:miter;stroke-miterlimit:4;stroke-dasharray:none;stroke-opacity:1"
           d="m 219.28474,237.47806 c -0.40456,0.20227 -0.86048,0.32428 -1.21367,0.60683 -0.1766,0.14128 -0.17797,0.41867 -0.30342,0.60684 -0.0793,0.11901 -0.23945,0.17549 -0.30342,0.30342 -0.14303,0.28606 -0.18464,0.6133 -0.30342,0.91025 -0.084,0.20998 -0.24857,0.38744 -0.30341,0.60684 -0.0491,0.19624 0.0491,0.4106 0,0.60683 -0.0548,0.2194 -0.24857,0.38744 -0.30342,0.60684 -0.0736,0.29436 0,0.60684 0,0.91025 0,0.60684 0,1.21368 0,1.82051 0,0.0991 -0.0652,1.45192 0,1.51709 0.14303,0.14304 0.41494,-0.064 0.60683,0 0.2469,0.0823 0.55447,0.69052 1.21368,0.91026 0.12315,0.041 0.79602,0.0571 0.91025,0 0.25587,-0.12794 0.32931,-0.53746 0.60684,-0.60684 0.29436,-0.0736 0.65779,0.1683 0.91025,0 0.1683,-0.1122 -0.0905,-0.42591 0,-0.60683 0.0452,-0.0905 0.21296,0.0452 0.30342,0 0.25586,-0.12794 0.35097,-0.47891 0.60684,-0.60684 0.0905,-0.0452 0.2319,0.0715 0.30341,0 0.0715,-0.0715 -0.0715,-0.2319 0,-0.30342 0.0715,-0.0715 0.21296,0.0452 0.30342,0 0.67087,-0.33544 0.0942,-0.18831 0.30342,-0.60683 0.064,-0.12794 0.23945,-0.17549 0.30341,-0.30342 0.0129,-0.0259 0.0129,-1.18781 0,-1.21368 -0.064,-0.12793 -0.23944,-0.17548 -0.30341,-0.30341 -0.0452,-0.0905 0.0452,-0.21296 0,-0.30342 -0.064,-0.12794 -0.23945,-0.17549 -0.30342,-0.30342 -0.0452,-0.0905 0.0452,-0.21296 0,-0.30342 -0.064,-0.12793 -0.23945,-0.17548 -0.30342,-0.30342 -0.0452,-0.0905 0.032,-0.20746 0,-0.30341 -0.0715,-0.21455 -0.2319,-0.39229 -0.30341,-0.60684 -0.032,-0.096 0.0715,-0.2319 0,-0.30342 -0.0715,-0.0715 -0.23191,0.0715 -0.30343,0 -0.0715,-0.0715 0.0452,-0.21295 0,-0.30342 -0.064,-0.12793 -0.23945,-0.17548 -0.30341,-0.30342 -0.0452,-0.0905 0.0452,-0.21295 0,-0.30341 -0.064,-0.12793 -0.23945,-0.17549 -0.30342,-0.30342 -0.0452,-0.0905 0.0715,-0.2319 0,-0.30342 -0.0715,-0.0715 -0.21669,0.052 -0.30342,0 -0.43363,-0.26017 -0.80911,-0.60684 -1.21367,-0.91025 z"
           id="path7130"
           inkscape:connector-curvature="0" />
        <path
           inkscape:connector-curvature="0"
           id="path7132"
           d="m 224.3355,225.35623 c -0.40456,0.20227 -0.86048,0.32428 -1.21367,0.60683 -0.1766,0.14128 -0.17797,0.41867 -0.30342,0.60684 -0.0793,0.11901 -0.23945,0.17549 -0.30342,0.30342 -0.14303,0.28606 -0.18464,0.6133 -0.30342,0.91025 -0.084,0.20998 -0.24857,0.38744 -0.30341,0.60684 -0.0491,0.19624 0.0491,0.4106 0,0.60683 -0.0548,0.2194 -0.24857,0.38744 -0.30342,0.60684 -0.0736,0.29436 0,0.60684 0,0.91025 0,0.60684 0,1.21368 0,1.82051 0,0.0991 -0.0652,1.45192 0,1.51709 0.14303,0.14304 0.41494,-0.064 0.60683,0 0.2469,0.0823 0.55447,0.69052 1.21368,0.91026 0.12315,0.041 0.79602,0.0571 0.91025,0 0.25587,-0.12794 0.32931,-0.53746 0.60684,-0.60684 0.29436,-0.0736 0.65779,0.1683 0.91025,0 0.1683,-0.1122 -0.0905,-0.42591 0,-0.60683 0.0452,-0.0905 0.21296,0.0452 0.30342,0 0.25586,-0.12794 0.35097,-0.47891 0.60684,-0.60684 0.0905,-0.0452 0.2319,0.0715 0.30341,0 0.0715,-0.0715 -0.0715,-0.2319 0,-0.30342 0.0715,-0.0715 0.21296,0.0452 0.30342,0 0.67087,-0.33544 0.0942,-0.18831 0.30342,-0.60683 0.064,-0.12794 0.23945,-0.17549 0.30341,-0.30342 0.0129,-0.0259 0.0129,-1.18781 0,-1.21368 -0.064,-0.12793 -0.23944,-0.17548 -0.30341,-0.30341 -0.0452,-0.0905 0.0452,-0.21296 0,-0.30342 -0.064,-0.12794 -0.23945,-0.17549 -0.30342,-0.30342 -0.0452,-0.0905 0.0452,-0.21296 0,-0.30342 -0.064,-0.12793 -0.23945,-0.17548 -0.30342,-0.30342 -0.0452,-0.0905 0.032,-0.20746 0,-0.30341 -0.0715,-0.21455 -0.2319,-0.39229 -0.30341,-0.60684 -0.032,-0.096 0.0715,-0.2319 0,-0.30342 -0.0715,-0.0715 -0.23191,0.0715 -0.30343,0 -0.0715,-0.0715 0.0452,-0.21295 0,-0.30342 -0.064,-0.12793 -0.23945,-0.17548 -0.30341,-0.30342 -0.0452,-0.0905 0.0452,-0.21295 0,-0.30341 -0.064,-0.12793 -0.23945,-0.17549 -0.30342,-0.30342 -0.0452,-0.0905 0.0715,-0.2319 0,-0.30342 -0.0715,-0.0715 -0.21669,0.052 -0.30342,0 -0.43363,-0.26017 -0.80911,-0.60684 -1.21367,-0.91025 z"
           style="fill:none;fill-rule:evenodd;stroke:#0000ff;stroke-width:1.80221128;stroke-linecap:butt;stroke-linejoin:miter;stroke-miterlimit:4;stroke-dasharray:none;stroke-opacity:1" />
        <path
           style="fill:none;fill-rule:evenodd;stroke:#0000ff;stroke-width:1.80221128;stroke-linecap:butt;stroke-linejoin:miter;stroke-miterlimit:4;stroke-dasharray:none;stroke-opacity:1"
           d="m 243.02332,215.75978 c -0.40456,0.20227 -0.86048,0.32428 -1.21367,0.60683 -0.1766,0.14128 -0.17797,0.41867 -0.30342,0.60684 -0.0793,0.11901 -0.23945,0.17549 -0.30342,0.30342 -0.14303,0.28606 -0.18464,0.6133 -0.30342,0.91025 -0.084,0.20998 -0.24857,0.38744 -0.30341,0.60684 -0.0491,0.19624 0.0491,0.4106 0,0.60683 -0.0548,0.2194 -0.24857,0.38744 -0.30342,0.60684 -0.0736,0.29436 0,0.60684 0,0.91025 0,0.60684 0,1.21368 0,1.82051 0,0.0991 -0.0652,1.45192 0,1.51709 0.14303,0.14304 0.41494,-0.064 0.60683,0 0.2469,0.0823 0.55447,0.69052 1.21368,0.91026 0.12315,0.041 0.79602,0.0571 0.91025,0 0.25587,-0.12794 0.32931,-0.53746 0.60684,-0.60684 0.29436,-0.0736 0.65779,0.1683 0.91025,0 0.1683,-0.1122 -0.0905,-0.42591 0,-0.60683 0.0452,-0.0905 0.21296,0.0452 0.30342,0 0.25586,-0.12794 0.35097,-0.47891 0.60684,-0.60684 0.0905,-0.0452 0.2319,0.0715 0.30341,0 0.0715,-0.0715 -0.0715,-0.2319 0,-0.30342 0.0715,-0.0715 0.21296,0.0452 0.30342,0 0.67087,-0.33544 0.0942,-0.18831 0.30342,-0.60683 0.064,-0.12794 0.23945,-0.17549 0.30341,-0.30342 0.0129,-0.0259 0.0129,-1.18781 0,-1.21368 -0.064,-0.12793 -0.23944,-0.17548 -0.30341,-0.30341 -0.0452,-0.0905 0.0452,-0.21296 0,-0.30342 -0.064,-0.12794 -0.23945,-0.17549 -0.30342,-0.30342 -0.0452,-0.0905 0.0452,-0.21296 0,-0.30342 -0.064,-0.12793 -0.23945,-0.17548 -0.30342,-0.30342 -0.0452,-0.0905 0.032,-0.20746 0,-0.30341 -0.0715,-0.21455 -0.2319,-0.39229 -0.30341,-0.60684 -0.032,-0.096 0.0715,-0.2319 0,-0.30342 -0.0715,-0.0715 -0.23191,0.0715 -0.30343,0 -0.0715,-0.0715 0.0452,-0.21295 0,-0.30342 -0.064,-0.12793 -0.23945,-0.17548 -0.30341,-0.30342 -0.0452,-0.0905 0.0452,-0.21295 0,-0.30341 -0.064,-0.12793 -0.23945,-0.17549 -0.30342,-0.30342 -0.0452,-0.0905 0.0715,-0.2319 0,-0.30342 -0.0715,-0.0715 -0.21669,0.052 -0.30342,0 -0.43363,-0.26017 -0.80911,-0.60684 -1.21367,-0.91025 z"
           id="path7134"
           inkscape:connector-curvature="0" />
        <path
           inkscape:connector-curvature="0"
           id="path7140"
           d="m 242.01317,243.0339 c -0.40456,0.20227 -0.86048,0.32428 -1.21367,0.60683 -0.1766,0.14128 -0.17797,0.41867 -0.30342,0.60684 -0.0793,0.11901 -0.23945,0.17549 -0.30342,0.30342 -0.14303,0.28606 -0.18464,0.6133 -0.30342,0.91025 -0.084,0.20998 -0.24857,0.38744 -0.30341,0.60684 -0.0491,0.19624 0.0491,0.4106 0,0.60683 -0.0548,0.2194 -0.24857,0.38744 -0.30342,0.60684 -0.0736,0.29436 0,0.60684 0,0.91025 0,0.60684 0,1.21368 0,1.82051 0,0.0991 -0.0652,1.45192 0,1.51709 0.14303,0.14304 0.41494,-0.064 0.60683,0 0.2469,0.0823 0.55447,0.69052 1.21368,0.91026 0.12315,0.041 0.79602,0.0571 0.91025,0 0.25587,-0.12794 0.32931,-0.53746 0.60684,-0.60684 0.29436,-0.0736 0.65779,0.1683 0.91025,0 0.1683,-0.1122 -0.0905,-0.42591 0,-0.60683 0.0452,-0.0905 0.21296,0.0452 0.30342,0 0.25586,-0.12794 0.35097,-0.47891 0.60684,-0.60684 0.0905,-0.0452 0.2319,0.0715 0.30341,0 0.0715,-0.0715 -0.0715,-0.2319 0,-0.30342 0.0715,-0.0715 0.21296,0.0452 0.30342,0 0.67087,-0.33544 0.0942,-0.18831 0.30342,-0.60683 0.064,-0.12794 0.23945,-0.17549 0.30341,-0.30342 0.0129,-0.0259 0.0129,-1.18781 0,-1.21368 -0.064,-0.12793 -0.23944,-0.17548 -0.30341,-0.30341 -0.0452,-0.0905 0.0452,-0.21296 0,-0.30342 -0.064,-0.12794 -0.23945,-0.17549 -0.30342,-0.30342 -0.0452,-0.0905 0.0452,-0.21296 0,-0.30342 -0.064,-0.12793 -0.23945,-0.17548 -0.30342,-0.30342 -0.0452,-0.0905 0.032,-0.20746 0,-0.30341 -0.0715,-0.21455 -0.2319,-0.39229 -0.30341,-0.60684 -0.032,-0.096 0.0715,-0.2319 0,-0.30342 -0.0715,-0.0715 -0.23191,0.0715 -0.30343,0 -0.0715,-0.0715 0.0452,-0.21295 0,-0.30342 -0.064,-0.12793 -0.23945,-0.17548 -0.30341,-0.30342 -0.0452,-0.0905 0.0452,-0.21295 0,-0.30341 -0.064,-0.12793 -0.23945,-0.17549 -0.30342,-0.30342 -0.0452,-0.0905 0.0715,-0.2319 0,-0.30342 -0.0715,-0.0715 -0.21669,0.052 -0.30342,0 -0.43363,-0.26017 -0.80911,-0.60684 -1.21367,-0.91025 z"
           style="fill:none;fill-rule:evenodd;stroke:#0000ff;stroke-width:1.80221128;stroke-linecap:butt;stroke-linejoin:miter;stroke-miterlimit:4;stroke-dasharray:none;stroke-opacity:1" />
        <path
           style="fill:none;fill-rule:evenodd;stroke:#0000ff;stroke-width:1.80221128;stroke-linecap:butt;stroke-linejoin:miter;stroke-miterlimit:4;stroke-dasharray:none;stroke-opacity:1"
           d="m 252.61977,261.72172 c -0.40456,0.20227 -0.86048,0.32428 -1.21367,0.60683 -0.1766,0.14128 -0.17797,0.41867 -0.30342,0.60684 -0.0793,0.11901 -0.23945,0.17549 -0.30342,0.30342 -0.14303,0.28606 -0.18464,0.6133 -0.30342,0.91025 -0.084,0.20998 -0.24857,0.38744 -0.30341,0.60684 -0.0491,0.19624 0.0491,0.4106 0,0.60683 -0.0548,0.2194 -0.24857,0.38744 -0.30342,0.60684 -0.0736,0.29436 0,0.60684 0,0.91025 0,0.60684 0,1.21368 0,1.82051 0,0.0991 -0.0652,1.45192 0,1.51709 0.14303,0.14304 0.41494,-0.064 0.60683,0 0.2469,0.0823 0.55447,0.69052 1.21368,0.91026 0.12315,0.041 0.79602,0.0571 0.91025,0 0.25587,-0.12794 0.32931,-0.53746 0.60684,-0.60684 0.29436,-0.0736 0.65779,0.1683 0.91025,0 0.1683,-0.1122 -0.0905,-0.42591 0,-0.60683 0.0452,-0.0905 0.21296,0.0452 0.30342,0 0.25586,-0.12794 0.35097,-0.47891 0.60684,-0.60684 0.0905,-0.0452 0.2319,0.0715 0.30341,0 0.0715,-0.0715 -0.0715,-0.2319 0,-0.30342 0.0715,-0.0715 0.21296,0.0452 0.30342,0 0.67087,-0.33544 0.0942,-0.18831 0.30342,-0.60683 0.064,-0.12794 0.23945,-0.17549 0.30341,-0.30342 0.0129,-0.0259 0.0129,-1.18781 0,-1.21368 -0.064,-0.12793 -0.23944,-0.17548 -0.30341,-0.30341 -0.0452,-0.0905 0.0452,-0.21296 0,-0.30342 -0.064,-0.12794 -0.23945,-0.17549 -0.30342,-0.30342 -0.0452,-0.0905 0.0452,-0.21296 0,-0.30342 -0.064,-0.12793 -0.23945,-0.17548 -0.30342,-0.30342 -0.0452,-0.0905 0.032,-0.20746 0,-0.30341 -0.0715,-0.21455 -0.2319,-0.39229 -0.30341,-0.60684 -0.032,-0.096 0.0715,-0.2319 0,-0.30342 -0.0715,-0.0715 -0.23191,0.0715 -0.30343,0 -0.0715,-0.0715 0.0452,-0.21295 0,-0.30342 -0.064,-0.12793 -0.23945,-0.17548 -0.30341,-0.30342 -0.0452,-0.0905 0.0452,-0.21295 0,-0.30341 -0.064,-0.12793 -0.23945,-0.17549 -0.30342,-0.30342 -0.0452,-0.0905 0.0715,-0.2319 0,-0.30342 -0.0715,-0.0715 -0.21669,0.052 -0.30342,0 -0.43363,-0.26017 -0.80911,-0.60684 -1.21367,-0.91025 z"
           id="path7142"
           inkscape:connector-curvature="0" />
        <path
           inkscape:connector-curvature="0"
           id="path7144"
           d="m 254.135,248.08466 c -0.40456,0.20227 -0.86048,0.32428 -1.21367,0.60683 -0.1766,0.14128 -0.17797,0.41867 -0.30342,0.60684 -0.0793,0.11901 -0.23945,0.17549 -0.30342,0.30342 -0.14303,0.28606 -0.18464,0.6133 -0.30342,0.91025 -0.084,0.20998 -0.24857,0.38744 -0.30341,0.60684 -0.0491,0.19624 0.0491,0.4106 0,0.60683 -0.0548,0.2194 -0.24857,0.38744 -0.30342,0.60684 -0.0736,0.29436 0,0.60684 0,0.91025 0,0.60684 0,1.21368 0,1.82051 0,0.0991 -0.0652,1.45192 0,1.51709 0.14303,0.14304 0.41494,-0.064 0.60683,0 0.2469,0.0823 0.55447,0.69052 1.21368,0.91026 0.12315,0.041 0.79602,0.0571 0.91025,0 0.25587,-0.12794 0.32931,-0.53746 0.60684,-0.60684 0.29436,-0.0736 0.65779,0.1683 0.91025,0 0.1683,-0.1122 -0.0905,-0.42591 0,-0.60683 0.0452,-0.0905 0.21296,0.0452 0.30342,0 0.25586,-0.12794 0.35097,-0.47891 0.60684,-0.60684 0.0905,-0.0452 0.2319,0.0715 0.30341,0 0.0715,-0.0715 -0.0715,-0.2319 0,-0.30342 0.0715,-0.0715 0.21296,0.0452 0.30342,0 0.67087,-0.33544 0.0942,-0.18831 0.30342,-0.60683 0.064,-0.12794 0.23945,-0.17549 0.30341,-0.30342 0.0129,-0.0259 0.0129,-1.18781 0,-1.21368 -0.064,-0.12793 -0.23944,-0.17548 -0.30341,-0.30341 -0.0452,-0.0905 0.0452,-0.21296 0,-0.30342 -0.064,-0.12794 -0.23945,-0.17549 -0.30342,-0.30342 -0.0452,-0.0905 0.0452,-0.21296 0,-0.30342 -0.064,-0.12793 -0.23945,-0.17548 -0.30342,-0.30342 -0.0452,-0.0905 0.032,-0.20746 0,-0.30341 -0.0715,-0.21455 -0.2319,-0.39229 -0.30341,-0.60684 -0.032,-0.096 0.0715,-0.2319 0,-0.30342 -0.0715,-0.0715 -0.23191,0.0715 -0.30343,0 -0.0715,-0.0715 0.0452,-0.21295 0,-0.30342 -0.064,-0.12793 -0.23945,-0.17548 -0.30341,-0.30342 -0.0452,-0.0905 0.0452,-0.21295 0,-0.30341 -0.064,-0.12793 -0.23945,-0.17549 -0.30342,-0.30342 -0.0452,-0.0905 0.0715,-0.2319 0,-0.30342 -0.0715,-0.0715 -0.21669,0.052 -0.30342,0 -0.43363,-0.26017 -0.80911,-0.60684 -1.21367,-0.91025 z"
           style="fill:none;fill-rule:evenodd;stroke:#0000ff;stroke-width:1.80221128;stroke-linecap:butt;stroke-linejoin:miter;stroke-miterlimit:4;stroke-dasharray:none;stroke-opacity:1" />
        <g
           style="font-style:normal;font-variant:normal;font-weight:normal;font-stretch:normal;letter-spacing:normal;word-spacing:normal;text-anchor:start;fill:none;fill-opacity:1;fill-rule:evenodd;stroke:#000000;stroke-linecap:butt;stroke-linejoin:miter;stroke-miterlimit:10.43299961;stroke-dasharray:none;stroke-dashoffset:0;stroke-opacity:1"
           ns0:preamble=""
           ns0:text="$x_1$\n"
           word-spacing="normal"
           letter-spacing="normal"
           font-size-adjust="none"
           font-stretch="normal"
           font-weight="normal"
           font-variant="normal"
           font-style="normal"
           stroke-miterlimit="10.433"
           xml:space="preserve"
           transform="matrix(1,0,0,-1,30.819857,993.44676)"
           id="content"><path
             style="fill:#000000;stroke-width:0"
             inkscape:connector-curvature="0"
             id="path7197"
             d="m 226.76,660.24 0.01,0.03 0,0.03 0.01,0.03 0.01,0.04 0.01,0.03 0.01,0.05 0.02,0.04 0.01,0.04 0.02,0.05 0.01,0.05 0.02,0.05 0.02,0.05 0.03,0.05 0.02,0.05 0.03,0.05 0.02,0.05 0.03,0.04 0.03,0.05 0.04,0.05 0.03,0.04 0.04,0.05 0.04,0.04 0.04,0.03 0.05,0.04 0.04,0.03 0.05,0.03 0.03,0.01 0.02,0.02 0.03,0.01 0.03,0.01 0.02,0.01 0.03,0 0.03,0.01 0.03,0.01 0.03,0 0.03,0 0.03,0.01 0.04,0 c 0.05,0 0.29,0 0.49,-0.13 -0.28,-0.05 -0.47,-0.3 -0.47,-0.54 0,-0.16 0.11,-0.35 0.38,-0.35 0.21,0 0.53,0.18 0.53,0.58 0,0.52 -0.58,0.66 -0.92,0.66 -0.58,0 -0.93,-0.53 -1.05,-0.76 -0.25,0.66 -0.79,0.76 -1.08,0.76 -1.03,0 -1.6,-1.29 -1.6,-1.54 0,-0.1 0.1,-0.1 0.12,-0.1 0.08,0 0.11,0.02 0.13,0.11 0.34,1.06 1,1.31 1.33,1.31 0.19,0 0.54,-0.09 0.54,-0.67 0,-0.31 -0.17,-0.98 -0.54,-2.37 -0.15,-0.62 -0.5,-1.04 -0.94,-1.04 -0.06,0 -0.29,0 -0.5,0.13 0.25,0.05 0.47,0.26 0.47,0.54 0,0.27 -0.22,0.35 -0.37,0.35 -0.3,0 -0.55,-0.26 -0.55,-0.58 0,-0.46 0.5,-0.66 0.94,-0.66 0.66,0 1.01,0.7 1.04,0.76 0.12,-0.37 0.48,-0.76 1.08,-0.76 1.03,0 1.59,1.29 1.59,1.54 0,0.1 -0.09,0.1 -0.12,0.1 -0.09,0 -0.1,-0.04 -0.13,-0.11 -0.32,-1.07 -1,-1.31 -1.32,-1.31 -0.39,0 -0.55,0.32 -0.55,0.66 0,0.22 0.06,0.44 0.17,0.88 z" /><path
             style="fill:#000000;stroke-width:0"
             inkscape:connector-curvature="0"
             id="path7199"
             d="m 231.46,660.17 0,0.01 0,0.01 0,0.01 0,0.01 0,0.01 0,0 0,0.01 0,0.01 0,0 0,0.01 0,0.01 0,0 0,0.01 0,0 0,0.01 0,0.01 -0.01,0 0,0.01 0,0 0,0.01 0,0.01 -0.01,0.01 0,0 -0.01,0.01 0,0 -0.01,0.01 0,0 -0.01,0.01 -0.01,0 0,0 -0.01,0 -0.01,0.01 -0.01,0 0,0 -0.01,0 0,0 -0.01,0 -0.01,0 0,0 -0.01,0 -0.01,0 0,0 -0.01,0 -0.01,0 -0.01,0 0,0 -0.01,0 -0.01,0 -0.01,0 -0.01,0 c -0.44,-0.44 -1.08,-0.45 -1.37,-0.45 l 0,-0.25 c 0.17,0 0.63,0 1.02,0.2 l 0,-3.56 c 0,-0.23 0,-0.32 -0.7,-0.32 l -0.27,0 0,-0.25 c 0.13,0.01 0.99,0.03 1.25,0.03 0.21,0 1.09,-0.02 1.24,-0.03 l 0,0.25 -0.26,0 c -0.7,0 -0.7,0.09 -0.7,0.32 z" /></g>        <g
           id="g7273"
           transform="matrix(1,0,0,-1,-79.286773,923.74624)"
           xml:space="preserve"
           stroke-miterlimit="10.433"
           font-style="normal"
           font-variant="normal"
           font-weight="normal"
           font-stretch="normal"
           font-size-adjust="none"
           letter-spacing="normal"
           word-spacing="normal"
           ns0:text="$x_2$\n"
           ns0:preamble=""
           style="font-style:normal;font-variant:normal;font-weight:normal;font-stretch:normal;letter-spacing:normal;word-spacing:normal;text-anchor:start;fill:none;fill-opacity:1;fill-rule:evenodd;stroke:#000000;stroke-linecap:butt;stroke-linejoin:miter;stroke-miterlimit:10.43299961;stroke-dasharray:none;stroke-dashoffset:0;stroke-opacity:1"><path
             style="fill:#000000;stroke-width:0"
             inkscape:connector-curvature="0"
             d="m 226.76,660.24 0.01,0.03 0,0.03 0.01,0.03 0.01,0.04 0.01,0.03 0.01,0.05 0.02,0.04 0.01,0.04 0.02,0.05 0.01,0.05 0.02,0.05 0.02,0.05 0.03,0.05 0.02,0.05 0.03,0.05 0.02,0.05 0.03,0.04 0.03,0.05 0.04,0.05 0.03,0.04 0.04,0.05 0.04,0.04 0.04,0.03 0.05,0.04 0.04,0.03 0.05,0.03 0.03,0.01 0.02,0.02 0.03,0.01 0.03,0.01 0.02,0.01 0.03,0 0.03,0.01 0.03,0.01 0.03,0 0.03,0 0.03,0.01 0.04,0 c 0.05,0 0.29,0 0.49,-0.13 -0.28,-0.05 -0.47,-0.3 -0.47,-0.54 0,-0.16 0.11,-0.35 0.38,-0.35 0.21,0 0.53,0.18 0.53,0.58 0,0.52 -0.58,0.66 -0.92,0.66 -0.58,0 -0.93,-0.53 -1.05,-0.76 -0.25,0.66 -0.79,0.76 -1.08,0.76 -1.03,0 -1.6,-1.29 -1.6,-1.54 0,-0.1 0.1,-0.1 0.12,-0.1 0.08,0 0.11,0.02 0.13,0.11 0.34,1.06 1,1.31 1.33,1.31 0.19,0 0.54,-0.09 0.54,-0.67 0,-0.31 -0.17,-0.98 -0.54,-2.37 -0.15,-0.62 -0.5,-1.04 -0.94,-1.04 -0.06,0 -0.29,0 -0.5,0.13 0.25,0.05 0.47,0.26 0.47,0.54 0,0.27 -0.22,0.35 -0.37,0.35 -0.3,0 -0.55,-0.26 -0.55,-0.58 0,-0.46 0.5,-0.66 0.94,-0.66 0.66,0 1.01,0.7 1.04,0.76 0.12,-0.37 0.48,-0.76 1.08,-0.76 1.03,0 1.59,1.29 1.59,1.54 0,0.1 -0.09,0.1 -0.12,0.1 -0.09,0 -0.1,-0.04 -0.13,-0.11 -0.32,-1.07 -1,-1.31 -1.32,-1.31 -0.39,0 -0.55,0.32 -0.55,0.66 0,0.22 0.06,0.44 0.17,0.88 z"
             id="path7275" /><path
             style="fill:#000000;stroke-width:0"
             inkscape:connector-curvature="0"
             d="m 232.65,657.01 -0.24,0 c -0.02,-0.15 -0.09,-0.57 -0.18,-0.63 -0.06,-0.05 -0.59,-0.05 -0.69,-0.05 l -1.28,0 c 0.73,0.65 0.97,0.85 1.39,1.17 0.52,0.42 1,0.85 1,1.51 0,0.84 -0.74,1.36 -1.64,1.36 -0.86,0 -1.45,-0.61 -1.45,-1.25 0,-0.35 0.3,-0.39 0.37,-0.39 0.17,0 0.37,0.12 0.37,0.37 0,0.13 -0.04,0.37 -0.41,0.37 0.22,0.5 0.69,0.65 1.02,0.65 0.7,0 1.06,-0.54 1.06,-1.11 0,-0.61 -0.43,-1.09 -0.65,-1.34 l -1.69,-1.66 c -0.07,-0.06 -0.07,-0.08 -0.07,-0.27 l 2.88,0 z"
             id="path7277" /></g>        <path
           inkscape:connector-curvature="0"
           id="path7314"
           d="m 290.50049,206.16333 c -0.40456,0.20227 -0.86048,0.32428 -1.21367,0.60683 -0.1766,0.14128 -0.17797,0.41867 -0.30342,0.60684 -0.0793,0.11901 -0.23945,0.17549 -0.30342,0.30342 -0.14303,0.28606 -0.18464,0.6133 -0.30342,0.91025 -0.084,0.20998 -0.24857,0.38744 -0.30341,0.60684 -0.0491,0.19624 0.0491,0.4106 0,0.60683 -0.0548,0.2194 -0.24857,0.38744 -0.30342,0.60684 -0.0736,0.29436 0,0.60684 0,0.91025 0,0.60684 0,1.21368 0,1.82051 0,0.0991 -0.0652,1.45192 0,1.51709 0.14303,0.14304 0.41494,-0.064 0.60683,0 0.2469,0.0823 0.55447,0.69052 1.21368,0.91026 0.12315,0.041 0.79602,0.0571 0.91025,0 0.25587,-0.12794 0.32931,-0.53746 0.60684,-0.60684 0.29436,-0.0736 0.65779,0.1683 0.91025,0 0.1683,-0.1122 -0.0905,-0.42591 0,-0.60683 0.0452,-0.0905 0.21296,0.0452 0.30342,0 0.25586,-0.12794 0.35097,-0.47891 0.60684,-0.60684 0.0905,-0.0452 0.2319,0.0715 0.30341,0 0.0715,-0.0715 -0.0715,-0.2319 0,-0.30342 0.0715,-0.0715 0.21296,0.0452 0.30342,0 0.67087,-0.33544 0.0942,-0.18831 0.30342,-0.60683 0.064,-0.12794 0.23945,-0.17549 0.30341,-0.30342 0.0129,-0.0259 0.0129,-1.18781 0,-1.21368 -0.064,-0.12793 -0.23944,-0.17548 -0.30341,-0.30341 -0.0452,-0.0905 0.0452,-0.21296 0,-0.30342 -0.064,-0.12794 -0.23945,-0.17549 -0.30342,-0.30342 -0.0452,-0.0905 0.0452,-0.21296 0,-0.30342 -0.064,-0.12793 -0.23945,-0.17548 -0.30342,-0.30342 -0.0452,-0.0905 0.032,-0.20746 0,-0.30341 -0.0715,-0.21455 -0.2319,-0.39229 -0.30341,-0.60684 -0.032,-0.096 0.0715,-0.2319 0,-0.30342 -0.0715,-0.0715 -0.23191,0.0715 -0.30343,0 -0.0715,-0.0715 0.0452,-0.21295 0,-0.30342 -0.064,-0.12793 -0.23945,-0.17548 -0.30341,-0.30342 -0.0452,-0.0905 0.0452,-0.21295 0,-0.30341 -0.064,-0.12793 -0.23945,-0.17549 -0.30342,-0.30342 -0.0452,-0.0905 0.0715,-0.2319 0,-0.30342 -0.0715,-0.0715 -0.21669,0.052 -0.30342,0 -0.43363,-0.26017 -0.80911,-0.60684 -1.21367,-0.91025 z"
           style="fill:none;fill-rule:evenodd;stroke:#0000ff;stroke-width:1.80221128;stroke-linecap:butt;stroke-linejoin:miter;stroke-miterlimit:4;stroke-dasharray:none;stroke-opacity:1" />
      </g>
      <path
         style="fill:none;fill-rule:evenodd;stroke:#000000;stroke-width:1px;stroke-linecap:butt;stroke-linejoin:miter;stroke-opacity:1"
         d="M 161.21893,205.56391 271.93322,322.70676"
         id="path8047"
         inkscape:connector-curvature="0" />
      <text
         xml:space="preserve"
         style="font-style:normal;font-weight:normal;font-size:8.09475422px;line-height:125%;font-family:Sans;text-align:start;letter-spacing:0px;word-spacing:0px;text-anchor:start;fill:#000000;fill-opacity:1;stroke:none;stroke-width:1px;stroke-linecap:butt;stroke-linejoin:miter;stroke-opacity:1"
         x="273.91147"
         y="331.08963"
         id="text8049"
         sodipodi:linespacing="125%"><tspan
           sodipodi:role="line"
           id="tspan8051"
           x="273.91147"
           y="331.08963">3</tspan></text>
      <text
         sodipodi:linespacing="125%"
         id="text8057"
         y="206.44678"
         x="153.19719"
         style="font-style:normal;font-weight:normal;font-size:8.09475422px;line-height:125%;font-family:Sans;text-align:start;letter-spacing:0px;word-spacing:0px;text-anchor:start;fill:#000000;fill-opacity:1;stroke:none;stroke-width:1px;stroke-linecap:butt;stroke-linejoin:miter;stroke-opacity:1"
         xml:space="preserve"><tspan
           y="206.44678"
           x="153.19719"
           id="tspan8059"
           sodipodi:role="line">3</tspan></text>
      <text
         xml:space="preserve"
         style="font-style:normal;font-weight:normal;font-size:9.06365299px;line-height:125%;font-family:Sans;text-align:start;letter-spacing:0px;word-spacing:0px;text-anchor:start;fill:#000000;fill-opacity:1;stroke:none;stroke-width:1px;stroke-linecap:butt;stroke-linejoin:miter;stroke-opacity:1"
         x="268.89041"
         y="237.1076"
         id="text8061"
         sodipodi:linespacing="125%"><tspan
           sodipodi:role="line"
           id="tspan8063"
           x="268.89041"
           y="237.1076">if </tspan></text>
      <g
         style="font-style:normal;font-variant:normal;font-weight:normal;font-stretch:normal;letter-spacing:normal;word-spacing:normal;text-anchor:start;fill:none;fill-opacity:1;fill-rule:evenodd;stroke:#000000;stroke-linecap:butt;stroke-linejoin:miter;stroke-miterlimit:10.43299961;stroke-dasharray:none;stroke-dashoffset:0;stroke-opacity:1"
         id="g8111"
         transform="matrix(1,0,0,-1,55.266128,893.70141)"
         xml:space="preserve"
         stroke-miterlimit="10.433"
         font-style="normal"
         font-variant="normal"
         font-weight="normal"
         font-stretch="normal"
         font-size-adjust="none"
         letter-spacing="normal"
         word-spacing="normal"
         ns0:text="$(\\theta_1, \\theta_2, \\theta_3) = (-3, 1, 1)$"
         ns0:preamble=""><path
           style="fill:#000000;stroke-width:0"
           inkscape:connector-curvature="0"
           d="m 226.73,654.84 0,0.01 0,0 0,0 0,0.01 0,0 0,0 0,0.01 -0.01,0 0,0 0,0.01 0,0 0,0.01 -0.01,0 0,0.01 -0.01,0 0,0.01 -0.01,0.01 0,0 0,0.01 -0.01,0 0,0.01 0,0 -0.01,0.01 0,0 -0.01,0 0,0.01 -0.01,0 0,0.01 -0.01,0 0,0.01 -0.01,0.01 0,0 -0.01,0.01 0,0 -0.01,0.01 -0.01,0.01 0,0 -0.01,0.01 -0.01,0.01 0,0.01 -0.01,0 -0.01,0.01 c -1.24,1.26 -1.56,3.14 -1.56,4.66 0,1.74 0.38,3.47 1.6,4.71 0.13,0.12 0.13,0.15 0.13,0.17 0,0.07 -0.04,0.1 -0.1,0.1 -0.1,0 -1,-0.67 -1.58,-1.94 -0.51,-1.09 -0.63,-2.2 -0.63,-3.04 0,-0.77 0.11,-1.98 0.66,-3.11 0.59,-1.22 1.45,-1.87 1.55,-1.87 0.06,0 0.1,0.03 0.1,0.1 z"
           id="path8113" /><path
           style="fill:#000000;stroke-width:0"
           inkscape:connector-curvature="0"
           d="m 231.84,662.21 -0.01,0.07 0,0.07 0,0.07 0,0.07 -0.01,0.08 -0.01,0.08 -0.01,0.08 -0.01,0.08 -0.01,0.08 -0.02,0.09 -0.02,0.08 -0.02,0.09 -0.02,0.08 -0.02,0.09 -0.03,0.08 -0.03,0.08 -0.04,0.08 -0.03,0.08 -0.04,0.07 -0.05,0.07 -0.04,0.07 -0.05,0.06 -0.06,0.06 -0.05,0.06 -0.07,0.05 -0.03,0.02 -0.03,0.02 -0.04,0.02 -0.03,0.02 -0.04,0.02 -0.04,0.02 -0.04,0.01 -0.04,0.01 -0.04,0.01 -0.04,0.01 -0.04,0.01 -0.05,0 -0.04,0 -0.05,0.01 -0.01,-0.22 c 0.49,0 0.55,-0.64 0.55,-1.21 0,-0.49 -0.08,-0.99 -0.32,-1.98 l -2.08,0 c 0.17,0.64 0.37,1.43 0.76,2.14 0.27,0.49 0.64,1.05 1.09,1.05 l 0.01,0.22 c -1.38,0 -2.92,-2.81 -2.92,-5.1 0,-0.93 0.29,-2.04 1.2,-2.04 l 0,0.22 c -0.33,0 -0.54,0.29 -0.54,1.22 0,0.42 0.06,0.99 0.32,1.97 l 2.07,0 c -0.11,-0.46 -0.32,-1.31 -0.7,-2.02 -0.35,-0.68 -0.72,-1.17 -1.15,-1.17 l 0,-0.22 c 1.4,0 2.92,2.86 2.92,5.09 z"
           id="path8115" /><path
           style="fill:#000000;stroke-width:0"
           inkscape:connector-curvature="0"
           d="m 234.32,660.17 0,0.01 0,0.01 0,0.01 0,0.01 0,0.01 0,0 0,0.01 0,0.01 0,0 0,0.01 0,0.01 0,0 0,0.01 0,0 -0.01,0.01 0,0.01 0,0 0,0.01 0,0 0,0.01 -0.01,0.01 0,0.01 0,0 -0.01,0.01 0,0 -0.01,0.01 0,0 -0.01,0.01 -0.01,0 -0.01,0 -0.01,0 0,0.01 -0.01,0 -0.01,0 0,0 -0.01,0 0,0 -0.01,0 0,0 -0.01,0 -0.01,0 -0.01,0 0,0 -0.01,0 -0.01,0 -0.01,0 0,0 -0.01,0 -0.01,0 -0.01,0 c -0.45,-0.44 -1.08,-0.45 -1.37,-0.45 l 0,-0.25 c 0.17,0 0.63,0 1.01,0.2 l 0,-3.56 c 0,-0.23 0,-0.32 -0.69,-0.32 l -0.27,0 0,-0.25 c 0.13,0.01 0.98,0.03 1.24,0.03 0.22,0 1.1,-0.02 1.25,-0.03 l 0,0.25 -0.26,0 c -0.7,0 -0.7,0.09 -0.7,0.32 z"
           id="path8117" /><path
           style="fill:#000000;stroke-width:0"
           inkscape:connector-curvature="0"
           d="m 238.48,657.24 -0.01,0.06 0,0.06 0,0.06 -0.01,0.06 0,0.05 -0.01,0.05 -0.01,0.05 -0.01,0.05 -0.01,0.05 -0.01,0.05 -0.02,0.04 -0.01,0.04 -0.02,0.04 -0.02,0.04 -0.02,0.04 -0.02,0.03 -0.02,0.03 -0.02,0.04 -0.03,0.02 -0.02,0.03 -0.03,0.03 -0.02,0.02 -0.03,0.02 -0.03,0.02 -0.03,0.01 -0.03,0.02 -0.03,0.01 -0.03,0.01 -0.04,0.01 -0.03,0 -0.04,0.01 -0.03,0 c -0.33,0 -0.53,-0.25 -0.53,-0.53 0,-0.27 0.2,-0.53 0.53,-0.53 0.12,0 0.25,0.04 0.35,0.13 0.03,0.02 0.04,0.03 0.05,0.03 0.01,0 0.02,-0.01 0.02,-0.15 0,-0.73 -0.35,-1.33 -0.68,-1.66 -0.11,-0.11 -0.11,-0.13 -0.11,-0.16 0,-0.07 0.05,-0.11 0.1,-0.11 0.11,0 0.91,0.77 0.91,1.93 z"
           id="path8119" /><path
           style="fill:#000000;stroke-width:0"
           inkscape:connector-curvature="0"
           d="m 245.42,662.21 0,0.07 0,0.07 -0.01,0.07 0,0.07 -0.01,0.08 -0.01,0.08 0,0.08 -0.02,0.08 -0.01,0.08 -0.01,0.09 -0.02,0.08 -0.02,0.09 -0.02,0.08 -0.03,0.09 -0.03,0.08 -0.03,0.08 -0.03,0.08 -0.04,0.08 -0.04,0.07 -0.04,0.07 -0.05,0.07 -0.05,0.06 -0.05,0.06 -0.06,0.06 -0.06,0.05 -0.04,0.02 -0.03,0.02 -0.03,0.02 -0.04,0.02 -0.04,0.02 -0.03,0.02 -0.04,0.01 -0.04,0.01 -0.04,0.01 -0.05,0.01 -0.04,0.01 -0.05,0 -0.04,0 -0.05,0.01 -0.01,-0.22 c 0.49,0 0.55,-0.64 0.55,-1.21 0,-0.49 -0.08,-0.99 -0.32,-1.98 l -2.08,0 c 0.17,0.64 0.37,1.43 0.77,2.14 0.27,0.49 0.63,1.05 1.08,1.05 l 0.01,0.22 c -1.38,0 -2.92,-2.81 -2.92,-5.1 0,-0.93 0.29,-2.04 1.2,-2.04 l 0,0.22 c -0.33,0 -0.54,0.29 -0.54,1.22 0,0.42 0.06,0.99 0.32,1.97 l 2.07,0 c -0.11,-0.46 -0.32,-1.31 -0.7,-2.02 -0.34,-0.68 -0.72,-1.17 -1.15,-1.17 l 0,-0.22 c 1.4,0 2.92,2.86 2.92,5.09 z"
           id="path8121" /><path
           style="fill:#000000;stroke-width:0"
           inkscape:connector-curvature="0"
           d="m 249.08,657.01 -0.24,0 c -0.02,-0.15 -0.09,-0.57 -0.18,-0.63 -0.06,-0.05 -0.59,-0.05 -0.69,-0.05 l -1.28,0 c 0.73,0.65 0.97,0.85 1.39,1.17 0.52,0.42 1,0.85 1,1.51 0,0.84 -0.74,1.36 -1.63,1.36 -0.87,0 -1.45,-0.61 -1.45,-1.25 0,-0.35 0.3,-0.39 0.37,-0.39 0.16,0 0.37,0.12 0.37,0.37 0,0.13 -0.05,0.37 -0.42,0.37 0.22,0.5 0.69,0.65 1.02,0.65 0.7,0 1.06,-0.54 1.06,-1.11 0,-0.61 -0.43,-1.09 -0.65,-1.34 l -1.68,-1.66 C 246,655.95 246,655.93 246,655.74 l 2.87,0 z"
           id="path8123" /><path
           style="fill:#000000;stroke-width:0"
           inkscape:connector-curvature="0"
           d="m 252.05,657.24 0,0.06 0,0.06 -0.01,0.06 0,0.06 -0.01,0.05 -0.01,0.05 0,0.05 -0.01,0.05 -0.02,0.05 -0.01,0.05 -0.01,0.04 -0.02,0.04 -0.02,0.04 -0.01,0.04 -0.02,0.04 -0.02,0.03 -0.02,0.03 -0.03,0.04 -0.02,0.02 -0.03,0.03 -0.02,0.03 -0.03,0.02 -0.03,0.02 -0.02,0.02 -0.03,0.01 -0.03,0.02 -0.04,0.01 -0.03,0.01 -0.03,0.01 -0.04,0 -0.03,0.01 -0.04,0 c -0.33,0 -0.53,-0.25 -0.53,-0.53 0,-0.27 0.2,-0.53 0.53,-0.53 0.12,0 0.25,0.04 0.35,0.13 0.03,0.02 0.04,0.03 0.05,0.03 0.01,0 0.02,-0.01 0.02,-0.15 0,-0.73 -0.35,-1.33 -0.68,-1.66 -0.11,-0.11 -0.11,-0.13 -0.11,-0.16 0,-0.07 0.05,-0.11 0.1,-0.11 0.11,0 0.91,0.77 0.91,1.93 z"
           id="path8125" /><path
           style="fill:#000000;stroke-width:0"
           inkscape:connector-curvature="0"
           d="m 258.99,662.21 0,0.07 0,0.07 0,0.07 -0.01,0.07 0,0.08 -0.01,0.08 -0.01,0.08 -0.01,0.08 -0.01,0.08 -0.02,0.09 -0.02,0.08 -0.02,0.09 -0.02,0.08 -0.02,0.09 -0.03,0.08 -0.03,0.08 -0.04,0.08 -0.03,0.08 -0.04,0.07 -0.05,0.07 -0.04,0.07 -0.05,0.06 -0.06,0.06 -0.06,0.06 -0.06,0.05 -0.03,0.02 -0.03,0.02 -0.04,0.02 -0.04,0.02 -0.03,0.02 -0.04,0.02 -0.04,0.01 -0.04,0.01 -0.04,0.01 -0.04,0.01 -0.05,0.01 -0.04,0 -0.05,0 -0.04,0.01 -0.01,-0.22 c 0.49,0 0.54,-0.64 0.54,-1.21 0,-0.49 -0.07,-0.99 -0.31,-1.98 l -2.09,0 c 0.17,0.64 0.37,1.43 0.77,2.14 0.27,0.49 0.64,1.05 1.09,1.05 l 0.01,0.22 c -1.39,0 -2.92,-2.81 -2.92,-5.1 0,-0.93 0.29,-2.04 1.19,-2.04 l 0,0.22 c -0.33,0 -0.53,0.29 -0.53,1.22 0,0.42 0.06,0.99 0.31,1.97 l 2.08,0 c -0.11,-0.46 -0.32,-1.31 -0.7,-2.02 -0.35,-0.68 -0.73,-1.17 -1.16,-1.17 l 0,-0.22 c 1.41,0 2.92,2.86 2.92,5.09 z"
           id="path8127" /><path
           style="fill:#000000;stroke-width:0"
           inkscape:connector-curvature="0"
           d="m 261.04,658.07 0.05,0 0.05,-0.01 0.04,0 0.05,-0.01 0.05,-0.01 0.04,-0.01 0.05,-0.01 0.04,-0.02 0.04,-0.02 0.04,-0.02 0.04,-0.02 0.04,-0.03 0.04,-0.03 0.03,-0.03 0.04,-0.03 0.03,-0.03 0.03,-0.04 0.03,-0.04 0.02,-0.04 0.03,-0.04 0.02,-0.05 0.02,-0.04 0.02,-0.05 0.02,-0.05 0.02,-0.06 0.01,-0.05 0.01,-0.06 0.01,-0.06 0.01,-0.06 0.01,-0.07 0,-0.07 0,-0.06 c 0,-0.87 -0.5,-1.13 -0.91,-1.13 -0.27,0 -0.89,0.08 -1.18,0.49 0.33,0.02 0.4,0.25 0.4,0.39 0,0.23 -0.16,0.39 -0.38,0.39 -0.2,0 -0.39,-0.12 -0.39,-0.41 0,-0.65 0.72,-1.08 1.57,-1.08 0.97,0 1.64,0.65 1.64,1.35 0,0.54 -0.45,1.08 -1.22,1.25 0.74,0.26 1,0.78 1,1.21 0,0.55 -0.63,0.96 -1.41,0.96 -0.77,0 -1.36,-0.38 -1.36,-0.93 0,-0.24 0.15,-0.37 0.36,-0.37 0.21,0 0.35,0.16 0.35,0.35 0,0.2 -0.14,0.35 -0.35,0.36 0.24,0.31 0.72,0.39 0.98,0.39 0.32,0 0.75,-0.15 0.75,-0.76 0,-0.3 -0.09,-0.62 -0.27,-0.83 -0.23,-0.27 -0.43,-0.28 -0.78,-0.3 -0.17,-0.01 -0.19,-0.01 -0.22,-0.02 -0.02,0 -0.07,-0.02 -0.07,-0.09 0,-0.1 0.06,-0.1 0.18,-0.1 z"
           id="path8129" /><path
           style="fill:#000000;stroke-width:0"
           inkscape:connector-curvature="0"
           d="m 266.48,659.72 0,0.08 0,0.07 0,0.08 0,0.08 -0.01,0.17 -0.01,0.18 -0.02,0.18 -0.02,0.19 -0.03,0.2 -0.03,0.2 -0.04,0.2 -0.05,0.21 -0.05,0.21 -0.06,0.21 -0.07,0.21 -0.08,0.22 -0.04,0.1 -0.05,0.11 -0.05,0.11 -0.05,0.1 c -0.59,1.23 -1.45,1.87 -1.55,1.87 -0.06,0 -0.1,-0.04 -0.1,-0.1 0,-0.02 0,-0.05 0.19,-0.22 0.98,-0.99 1.54,-2.58 1.54,-4.66 0,-1.7 -0.36,-3.45 -1.6,-4.71 -0.13,-0.12 -0.13,-0.14 -0.13,-0.17 0,-0.06 0.04,-0.1 0.1,-0.1 0.1,0 1,0.68 1.58,1.94 0.51,1.1 0.63,2.21 0.63,3.04 z"
           id="path8131" /><path
           style="fill:#000000;stroke-width:0"
           inkscape:connector-curvature="0"
           d="m 277.09,660.49 0.03,0 0.03,0 0.03,0 0.01,0 0.02,0 0.01,0 0.02,0.01 0.01,0 0.01,0 0.02,0 0.01,0.01 0.01,0 0.02,0 0.01,0.01 0.01,0.01 0.01,0 0.01,0.01 0.01,0.01 0.01,0 0.01,0.01 0.01,0.01 0,0.01 0.01,0.01 0,0 0,0.01 0.01,0 0,0.01 0,0.01 0,0 0,0.01 0.01,0.01 0,0.01 0,0 0,0.01 0,0.01 0,0.01 0,0.01 c 0,0.2 -0.19,0.2 -0.33,0.2 l -5.97,0 c -0.14,0 -0.33,0 -0.33,-0.2 0,-0.2 0.19,-0.2 0.34,-0.2 z"
           id="path8133" /><path
           style="fill:#000000;stroke-width:0"
           inkscape:connector-curvature="0"
           d="m 277.1,658.56 0.02,0 0.01,0 0.03,0 0.02,0 0.02,0 0.01,0 0.02,0 0.01,0 0.01,0.01 0.02,0 0.01,0 0.01,0 0.02,0.01 0.01,0 0.01,0.01 0.01,0 0.01,0.01 0.01,0.01 0.01,0 0.01,0.01 0.01,0.01 0.01,0.01 0,0 0,0.01 0.01,0 0,0.01 0,0 0.01,0.01 0,0.01 0,0 0,0.01 0,0.01 0.01,0.01 0,0 0,0.01 0,0.01 0,0.01 0,0.01 0,0.01 c 0,0.2 -0.19,0.2 -0.34,0.2 l -5.95,0 c -0.15,0 -0.34,0 -0.34,-0.2 0,-0.2 0.19,-0.2 0.33,-0.2 z"
           id="path8135" /><path
           style="fill:#000000;stroke-width:0"
           inkscape:connector-curvature="0"
           d="m 284.06,654.84 0,0.01 0,0 0,0 0,0.01 0,0 0,0 0,0.01 -0.01,0 0,0 0,0.01 0,0 0,0.01 -0.01,0 0,0.01 -0.01,0 0,0.01 -0.01,0.01 0,0 0,0.01 -0.01,0 0,0.01 0,0 -0.01,0.01 0,0 -0.01,0 0,0.01 -0.01,0 0,0.01 -0.01,0 0,0.01 -0.01,0.01 0,0 -0.01,0.01 0,0 -0.01,0.01 -0.01,0.01 0,0 -0.01,0.01 -0.01,0.01 0,0.01 -0.01,0 -0.01,0.01 c -1.25,1.26 -1.56,3.14 -1.56,4.66 0,1.74 0.37,3.47 1.6,4.71 0.13,0.12 0.13,0.15 0.13,0.17 0,0.07 -0.04,0.1 -0.1,0.1 -0.1,0 -1,-0.67 -1.58,-1.94 -0.51,-1.09 -0.63,-2.2 -0.63,-3.04 0,-0.77 0.11,-1.98 0.66,-3.11 0.59,-1.22 1.45,-1.87 1.55,-1.87 0.06,0 0.1,0.03 0.1,0.1 z"
           id="path8137" /><path
           style="fill:#000000;stroke-width:0"
           inkscape:connector-curvature="0"
           d="m 291.2,659.52 0.03,0 0.03,0 0.03,0.01 0.02,0 0.01,0 0.02,0 0.01,0 0.02,0 0.01,0 0.02,0.01 0.01,0 0.01,0 0.02,0.01 0.01,0 0.01,0.01 0.01,0.01 0.01,0 0.01,0.01 0.01,0.01 0.01,0.01 0.01,0.01 0,0 0,0.01 0.01,0 0,0.01 0,0.01 0,0 0.01,0.01 0,0.01 0,0 0,0.01 0,0.01 0,0.01 0.01,0.01 0,0 0,0.01 0,0.01 c 0,0.2 -0.18,0.2 -0.35,0.2 l -5.39,0 c -0.17,0 -0.35,0 -0.35,-0.2 0,-0.2 0.18,-0.2 0.35,-0.2 z"
           id="path8139" /><path
           style="fill:#000000;stroke-width:0"
           inkscape:connector-curvature="0"
           d="m 295.27,660.74 0.07,0.03 0.08,0.02 0.07,0.04 0.07,0.03 0.07,0.04 0.07,0.03 0.07,0.04 0.06,0.05 0.06,0.04 0.06,0.05 0.06,0.04 0.06,0.05 0.05,0.06 0.06,0.05 0.05,0.06 0.04,0.05 0.05,0.06 0.04,0.06 0.04,0.06 0.04,0.06 0.03,0.07 0.04,0.06 0.02,0.07 0.03,0.06 0.02,0.07 0.03,0.07 0.01,0.07 0.02,0.07 0.01,0.07 0.01,0.08 0,0.07 0,0.07 c 0,0.82 -0.87,1.38 -1.83,1.38 -1,0 -1.76,-0.6 -1.76,-1.36 0,-0.33 0.22,-0.52 0.51,-0.52 0.3,0 0.5,0.22 0.5,0.51 0,0.5 -0.47,0.5 -0.61,0.5 0.3,0.49 0.96,0.62 1.32,0.62 0.41,0 0.96,-0.22 0.96,-1.12 0,-0.12 -0.02,-0.7 -0.28,-1.13 -0.3,-0.48 -0.64,-0.51 -0.89,-0.52 -0.08,-0.01 -0.32,-0.03 -0.39,-0.03 -0.08,-0.01 -0.15,-0.02 -0.15,-0.12 0,-0.11 0.07,-0.11 0.24,-0.11 l 0.44,0 c 0.82,0 1.19,-0.68 1.19,-1.65 0,-1.36 -0.69,-1.65 -1.13,-1.65 -0.43,0 -1.17,0.17 -1.52,0.76 0.35,-0.05 0.65,0.17 0.65,0.55 0,0.36 -0.27,0.56 -0.55,0.56 -0.24,0 -0.56,-0.14 -0.56,-0.58 0,-0.91 0.93,-1.57 2.01,-1.57 1.22,0 2.12,0.91 2.12,1.93 0,0.81 -0.63,1.59 -1.66,1.8 z"
           id="path8141" /><path
           style="fill:#000000;stroke-width:0"
           inkscape:connector-curvature="0"
           d="m 299.38,657.24 0,0.06 0,0.06 0,0.06 -0.01,0.06 -0.01,0.05 0,0.05 -0.01,0.05 -0.01,0.05 -0.01,0.05 -0.02,0.05 -0.01,0.04 -0.02,0.04 -0.01,0.04 -0.02,0.04 -0.02,0.04 -0.02,0.03 -0.02,0.03 -0.02,0.04 -0.03,0.02 -0.02,0.03 -0.03,0.03 -0.03,0.02 -0.02,0.02 -0.03,0.02 -0.03,0.01 -0.03,0.02 -0.03,0.01 -0.04,0.01 -0.03,0.01 -0.03,0 -0.04,0.01 -0.04,0 c -0.32,0 -0.52,-0.25 -0.52,-0.53 0,-0.27 0.2,-0.53 0.52,-0.53 0.12,0 0.25,0.04 0.35,0.13 0.03,0.02 0.04,0.03 0.05,0.03 0.01,0 0.02,-0.01 0.02,-0.15 0,-0.73 -0.34,-1.33 -0.67,-1.66 -0.11,-0.11 -0.11,-0.13 -0.11,-0.16 0,-0.07 0.05,-0.11 0.1,-0.11 0.1,0 0.9,0.77 0.9,1.93 z"
           id="path8143" /><path
           style="fill:#000000;stroke-width:0"
           inkscape:connector-curvature="0"
           d="m 304.72,663.61 0,0.01 0,0.01 0,0.01 0,0.01 0,0.01 0,0.01 0,0.01 0,0.01 0,0.01 0,0.01 0,0 0,0.01 0,0.01 0,0.01 0,0 0,0.01 0,0.01 0,0 -0.01,0.01 0,0.02 0,0.01 0,0.01 -0.01,0 0,0.01 -0.01,0.01 0,0 -0.01,0.01 -0.01,0 0,0.01 -0.01,0 -0.01,0 0,0.01 -0.01,0 0,0 -0.01,0 -0.01,0 0,0 -0.01,0 0,0 -0.01,0 -0.01,0.01 -0.01,0 0,0 -0.01,0 -0.01,0 -0.01,0 -0.01,0 -0.01,0 -0.01,0 -0.01,0 -0.01,0 -0.01,0 c -0.61,-0.64 -1.49,-0.64 -1.81,-0.64 l 0,-0.31 c 0.2,0 0.79,0 1.3,0.26 l 0,-5.16 c 0,-0.36 -0.03,-0.48 -0.92,-0.48 l -0.32,0 0,-0.31 c 0.35,0.03 1.21,0.03 1.61,0.03 0.4,0 1.27,0 1.62,-0.03 l 0,0.31 -0.32,0 c -0.9,0 -0.93,0.11 -0.93,0.48 z"
           id="path8145" /><path
           style="fill:#000000;stroke-width:0"
           inkscape:connector-curvature="0"
           d="m 308.8,657.24 -0.01,0.06 0,0.06 0,0.06 -0.01,0.06 0,0.05 -0.01,0.05 -0.01,0.05 -0.01,0.05 -0.01,0.05 -0.01,0.05 -0.02,0.04 -0.01,0.04 -0.02,0.04 -0.02,0.04 -0.02,0.04 -0.02,0.03 -0.02,0.03 -0.02,0.04 -0.03,0.02 -0.02,0.03 -0.03,0.03 -0.02,0.02 -0.03,0.02 -0.03,0.02 -0.03,0.01 -0.03,0.02 -0.03,0.01 -0.03,0.01 -0.04,0.01 -0.03,0 -0.04,0.01 -0.03,0 c -0.33,0 -0.53,-0.25 -0.53,-0.53 0,-0.27 0.2,-0.53 0.53,-0.53 0.12,0 0.25,0.04 0.35,0.13 0.03,0.02 0.04,0.03 0.05,0.03 0.01,0 0.02,-0.01 0.02,-0.15 0,-0.73 -0.35,-1.33 -0.68,-1.66 -0.11,-0.11 -0.11,-0.13 -0.11,-0.16 0,-0.07 0.05,-0.11 0.1,-0.11 0.11,0 0.91,0.77 0.91,1.93 z"
           id="path8147" /><path
           style="fill:#000000;stroke-width:0"
           inkscape:connector-curvature="0"
           d="m 314.13,663.61 0,0.01 0,0.01 0,0.01 0,0.01 0,0.01 0,0.01 0,0.01 0,0.01 0,0.01 0,0.01 0,0 0,0.01 0,0.01 -0.01,0.01 0,0 0,0.01 0,0.01 0,0 0,0.01 0,0.02 -0.01,0.01 0,0.01 0,0 -0.01,0.01 0,0.01 -0.01,0 0,0.01 -0.01,0 -0.01,0.01 -0.01,0 0,0 -0.01,0.01 0,0 -0.01,0 0,0 -0.01,0 -0.01,0 0,0 -0.01,0 -0.01,0 0,0.01 -0.01,0 -0.01,0 -0.01,0 -0.01,0 0,0 -0.01,0 -0.01,0 -0.01,0 -0.01,0 -0.01,0 -0.01,0 c -0.62,-0.64 -1.5,-0.64 -1.82,-0.64 l 0,-0.31 c 0.2,0 0.79,0 1.31,0.26 l 0,-5.16 c 0,-0.36 -0.03,-0.48 -0.93,-0.48 l -0.32,0 0,-0.31 c 0.35,0.03 1.22,0.03 1.62,0.03 0.4,0 1.26,0 1.61,-0.03 l 0,0.31 -0.32,0 c -0.89,0 -0.92,0.11 -0.92,0.48 z"
           id="path8149" /><path
           style="fill:#000000;stroke-width:0"
           inkscape:connector-curvature="0"
           d="m 319.06,659.72 0,0.08 0,0.07 0,0.08 0,0.08 -0.01,0.17 -0.01,0.18 -0.02,0.18 -0.02,0.19 -0.03,0.2 -0.03,0.2 -0.04,0.2 -0.04,0.21 -0.06,0.21 -0.06,0.21 -0.07,0.21 -0.08,0.22 -0.04,0.1 -0.05,0.11 -0.04,0.11 -0.05,0.1 c -0.6,1.23 -1.46,1.87 -1.56,1.87 -0.06,0 -0.1,-0.04 -0.1,-0.1 0,-0.02 0,-0.05 0.19,-0.22 0.98,-0.99 1.55,-2.58 1.55,-4.66 0,-1.7 -0.37,-3.45 -1.61,-4.71 -0.13,-0.12 -0.13,-0.14 -0.13,-0.17 0,-0.06 0.04,-0.1 0.1,-0.1 0.1,0 1,0.68 1.59,1.94 0.51,1.1 0.62,2.21 0.62,3.04 z"
           id="path8151" /></g>      <text
         xml:space="preserve"
         style="font-style:normal;font-weight:normal;font-size:9.06365299px;line-height:125%;font-family:Sans;text-align:start;letter-spacing:0px;word-spacing:0px;text-anchor:start;fill:#000000;fill-opacity:1;stroke:none;stroke-width:1px;stroke-linecap:butt;stroke-linejoin:miter;stroke-opacity:1"
         x="268.89041"
         y="251.75482"
         id="text8222"
         sodipodi:linespacing="125%"><tspan
           sodipodi:role="line"
           id="tspan8224"
           x="268.89041"
           y="251.75482">then we predict y = 1</tspan><tspan
           id="tspan8226"
           sodipodi:role="line"
           x="268.89041"
           y="263.08438">if   </tspan></text>
      <g
         ns0:preamble=""
         ns0:text="$-3 + x_1 + x_2 \\geq 0$"
         word-spacing="normal"
         letter-spacing="normal"
         font-size-adjust="none"
         font-stretch="normal"
         font-weight="normal"
         font-variant="normal"
         font-style="normal"
         stroke-miterlimit="10.433"
         xml:space="preserve"
         transform="matrix(0.91378468,0,0,-0.91378468,74.903233,862.6657)"
         id="g8298"
         style="font-style:normal;font-variant:normal;font-weight:normal;font-stretch:normal;letter-spacing:normal;word-spacing:normal;text-anchor:start;fill:none;fill-opacity:1;fill-rule:evenodd;stroke:#000000;stroke-linecap:butt;stroke-linejoin:miter;stroke-miterlimit:10.43299961;stroke-dasharray:none;stroke-dashoffset:0;stroke-opacity:1"><path
           id="path8300"
           d="m 230,659.52 0.03,0 0.03,0 0.03,0.01 0.02,0 0.01,0 0.02,0 0.01,0 0.02,0 0.01,0 0.02,0.01 0.01,0 0.01,0 0.02,0.01 0.01,0 0.01,0.01 0.01,0.01 0.01,0 0.01,0.01 0.01,0.01 0.01,0.01 0.01,0.01 0,0 0,0.01 0.01,0 0,0.01 0,0.01 0,0 0.01,0.01 0,0.01 0,0 0,0.01 0,0.01 0,0.01 0.01,0.01 0,0 0,0.01 0,0.01 c 0,0.2 -0.18,0.2 -0.35,0.2 l -5.39,0 c -0.17,0 -0.35,0 -0.35,-0.2 0,-0.2 0.18,-0.2 0.35,-0.2 z"
           inkscape:connector-curvature="0"
           style="fill:#000000;stroke-width:0" /><path
           id="path8302"
           d="m 234.07,660.74 0.07,0.03 0.08,0.02 0.07,0.04 0.07,0.03 0.07,0.04 0.07,0.03 0.07,0.04 0.06,0.05 0.06,0.04 0.06,0.05 0.06,0.04 0.06,0.05 0.05,0.06 0.06,0.05 0.05,0.06 0.04,0.05 0.05,0.06 0.04,0.06 0.04,0.06 0.04,0.06 0.03,0.07 0.04,0.06 0.02,0.07 0.03,0.06 0.02,0.07 0.03,0.07 0.01,0.07 0.02,0.07 0.01,0.07 0.01,0.08 0,0.07 0,0.07 c 0,0.82 -0.87,1.38 -1.83,1.38 -1.01,0 -1.76,-0.6 -1.76,-1.36 0,-0.33 0.22,-0.52 0.51,-0.52 0.3,0 0.5,0.22 0.5,0.51 0,0.5 -0.47,0.5 -0.61,0.5 0.3,0.49 0.96,0.62 1.32,0.62 0.41,0 0.96,-0.22 0.96,-1.12 0,-0.12 -0.02,-0.7 -0.28,-1.13 -0.3,-0.48 -0.64,-0.51 -0.89,-0.52 -0.08,-0.01 -0.32,-0.03 -0.39,-0.03 -0.08,-0.01 -0.15,-0.02 -0.15,-0.12 0,-0.11 0.07,-0.11 0.24,-0.11 l 0.44,0 c 0.82,0 1.19,-0.68 1.19,-1.65 0,-1.36 -0.69,-1.65 -1.13,-1.65 -0.43,0 -1.18,0.17 -1.52,0.76 0.34,-0.05 0.65,0.17 0.65,0.55 0,0.36 -0.26,0.56 -0.55,0.56 -0.24,0 -0.56,-0.14 -0.56,-0.58 0,-0.91 0.92,-1.57 2.01,-1.57 1.22,0 2.12,0.91 2.12,1.93 0,0.81 -0.63,1.59 -1.66,1.8 z"
           inkscape:connector-curvature="0"
           style="fill:#000000;stroke-width:0" /><path
           id="path8304"
           d="m 242.45,659.52 2.78,0 c 0.14,0 0.33,0 0.33,0.2 0,0.2 -0.19,0.2 -0.33,0.2 l -2.78,0 0,2.79 c 0,0.14 0,0.33 -0.2,0.33 -0.2,0 -0.2,-0.19 -0.2,-0.33 l 0,-2.79 -2.79,0 c -0.14,0 -0.33,0 -0.33,-0.2 0,-0.2 0.19,-0.2 0.33,-0.2 l 2.79,0 0,-2.79 c 0,-0.14 0,-0.32 0.2,-0.32 0.2,0 0.2,0.18 0.2,0.32 z"
           inkscape:connector-curvature="0"
           style="fill:#000000;stroke-width:0" /><path
           id="path8306"
           d="m 251.67,660.24 0,0.03 0.01,0.03 0.01,0.03 0.01,0.04 0.01,0.03 0.01,0.05 0.01,0.04 0.02,0.04 0.01,0.05 0.02,0.05 0.02,0.05 0.02,0.05 0.02,0.05 0.03,0.05 0.02,0.05 0.03,0.05 0.03,0.04 0.03,0.05 0.04,0.05 0.03,0.04 0.04,0.05 0.04,0.04 0.04,0.03 0.04,0.04 0.05,0.03 0.05,0.03 0.02,0.01 0.03,0.02 0.03,0.01 0.02,0.01 0.03,0.01 0.03,0 0.03,0.01 0.03,0.01 0.03,0 0.03,0 0.03,0.01 0.03,0 c 0.05,0 0.29,0 0.5,-0.13 -0.28,-0.05 -0.48,-0.3 -0.48,-0.54 0,-0.16 0.11,-0.35 0.38,-0.35 0.22,0 0.54,0.18 0.54,0.58 0,0.52 -0.59,0.66 -0.93,0.66 -0.57,0 -0.92,-0.53 -1.04,-0.76 -0.25,0.66 -0.79,0.76 -1.08,0.76 -1.03,0 -1.6,-1.29 -1.6,-1.54 0,-0.1 0.1,-0.1 0.12,-0.1 0.08,0 0.11,0.02 0.13,0.11 0.34,1.06 0.99,1.31 1.33,1.31 0.19,0 0.54,-0.09 0.54,-0.67 0,-0.31 -0.17,-0.98 -0.54,-2.37 -0.16,-0.62 -0.51,-1.04 -0.95,-1.04 -0.05,0 -0.28,0 -0.49,0.13 0.25,0.05 0.46,0.26 0.46,0.54 0,0.27 -0.21,0.35 -0.36,0.35 -0.3,0 -0.55,-0.26 -0.55,-0.58 0,-0.46 0.5,-0.66 0.94,-0.66 0.65,0 1.01,0.7 1.04,0.76 0.12,-0.37 0.48,-0.76 1.08,-0.76 1.02,0 1.59,1.29 1.59,1.54 0,0.1 -0.09,0.1 -0.12,0.1 -0.09,0 -0.11,-0.04 -0.13,-0.11 -0.33,-1.07 -1,-1.31 -1.32,-1.31 -0.39,0 -0.55,0.32 -0.55,0.66 0,0.22 0.06,0.44 0.17,0.88 z"
           inkscape:connector-curvature="0"
           style="fill:#000000;stroke-width:0" /><path
           id="path8308"
           d="m 256.37,660.17 0,0.01 0,0.01 0,0.01 0,0.01 0,0.01 0,0 0,0.01 0,0.01 0,0 0,0.01 0,0.01 0,0 0,0.01 0,0 -0.01,0.01 0,0.01 0,0 0,0.01 0,0 0,0.01 -0.01,0.01 0,0.01 0,0 -0.01,0.01 0,0 -0.01,0.01 0,0 -0.01,0.01 -0.01,0 -0.01,0 -0.01,0 0,0.01 -0.01,0 -0.01,0 0,0 -0.01,0 0,0 -0.01,0 0,0 -0.01,0 -0.01,0 -0.01,0 0,0 -0.01,0 -0.01,0 -0.01,0 0,0 -0.01,0 -0.01,0 -0.01,0 c -0.45,-0.44 -1.08,-0.45 -1.37,-0.45 l 0,-0.25 c 0.17,0 0.63,0 1.01,0.2 l 0,-3.56 c 0,-0.23 0,-0.32 -0.69,-0.32 l -0.27,0 0,-0.25 c 0.13,0.01 0.98,0.03 1.24,0.03 0.22,0 1.1,-0.02 1.25,-0.03 l 0,0.25 -0.26,0 c -0.7,0 -0.7,0.09 -0.7,0.32 z"
           inkscape:connector-curvature="0"
           style="fill:#000000;stroke-width:0" /><path
           id="path8310"
           d="m 264.79,659.52 2.78,0 c 0.14,0 0.33,0 0.33,0.2 0,0.2 -0.19,0.2 -0.33,0.2 l -2.78,0 0,2.79 c 0,0.14 0,0.33 -0.2,0.33 -0.2,0 -0.2,-0.19 -0.2,-0.33 l 0,-2.79 -2.79,0 c -0.14,0 -0.33,0 -0.33,-0.2 0,-0.2 0.19,-0.2 0.33,-0.2 l 2.79,0 0,-2.79 c 0,-0.14 0,-0.32 0.2,-0.32 0.2,0 0.2,0.18 0.2,0.32 z"
           inkscape:connector-curvature="0"
           style="fill:#000000;stroke-width:0" /><path
           id="path8312"
           d="m 274,660.24 0.01,0.03 0.01,0.03 0,0.03 0.01,0.04 0.01,0.03 0.02,0.05 0.01,0.04 0.01,0.04 0.02,0.05 0.02,0.05 0.02,0.05 0.02,0.05 0.02,0.05 0.02,0.05 0.03,0.05 0.03,0.05 0.03,0.04 0.03,0.05 0.03,0.05 0.04,0.04 0.03,0.05 0.04,0.04 0.04,0.03 0.05,0.04 0.05,0.03 0.04,0.03 0.03,0.01 0.03,0.02 0.02,0.01 0.03,0.01 0.03,0.01 0.02,0 0.03,0.01 0.03,0.01 0.03,0 0.03,0 0.04,0.01 0.03,0 c 0.05,0 0.29,0 0.5,-0.13 -0.28,-0.05 -0.48,-0.3 -0.48,-0.54 0,-0.16 0.11,-0.35 0.38,-0.35 0.22,0 0.53,0.18 0.53,0.58 0,0.52 -0.58,0.66 -0.92,0.66 -0.58,0 -0.93,-0.53 -1.05,-0.76 -0.25,0.66 -0.78,0.76 -1.07,0.76 -1.04,0 -1.61,-1.29 -1.61,-1.54 0,-0.1 0.1,-0.1 0.12,-0.1 0.08,0 0.11,0.02 0.13,0.11 0.34,1.06 1,1.31 1.34,1.31 0.19,0 0.53,-0.09 0.53,-0.67 0,-0.31 -0.16,-0.98 -0.53,-2.37 -0.16,-0.62 -0.51,-1.04 -0.95,-1.04 -0.06,0 -0.29,0 -0.5,0.13 0.25,0.05 0.47,0.26 0.47,0.54 0,0.27 -0.22,0.35 -0.37,0.35 -0.3,0 -0.55,-0.26 -0.55,-0.58 0,-0.46 0.5,-0.66 0.94,-0.66 0.66,0 1.02,0.7 1.05,0.76 0.12,-0.37 0.47,-0.76 1.07,-0.76 1.03,0 1.6,1.29 1.6,1.54 0,0.1 -0.09,0.1 -0.12,0.1 -0.09,0 -0.11,-0.04 -0.13,-0.11 -0.33,-1.07 -1.01,-1.31 -1.33,-1.31 -0.39,0 -0.55,0.32 -0.55,0.66 0,0.22 0.06,0.44 0.17,0.88 z"
           inkscape:connector-curvature="0"
           style="fill:#000000;stroke-width:0" /><path
           id="path8314"
           d="m 279.9,657.01 -0.24,0 c -0.02,-0.15 -0.09,-0.57 -0.18,-0.63 -0.06,-0.05 -0.59,-0.05 -0.69,-0.05 l -1.28,0 c 0.73,0.65 0.97,0.85 1.39,1.17 0.52,0.42 1,0.85 1,1.51 0,0.84 -0.74,1.36 -1.63,1.36 -0.87,0 -1.46,-0.61 -1.46,-1.25 0,-0.35 0.3,-0.39 0.37,-0.39 0.17,0 0.37,0.12 0.37,0.37 0,0.13 -0.04,0.37 -0.41,0.37 0.22,0.5 0.69,0.65 1.02,0.65 0.7,0 1.06,-0.54 1.06,-1.11 0,-0.61 -0.43,-1.09 -0.65,-1.34 l -1.69,-1.66 c -0.07,-0.06 -0.07,-0.08 -0.07,-0.27 l 2.88,0 z"
           inkscape:connector-curvature="0"
           style="fill:#000000;stroke-width:0" /><path
           id="path8316"
           d="m 290.33,660.46 0.01,0.01 0.01,0 0.01,0.01 0.02,0 0.01,0.01 0.01,0 0.01,0.01 0.01,0.01 0.01,0 0.01,0.01 0,0.01 0.01,0 0.01,0.01 0.01,0.01 0,0 0.01,0.01 0.01,0.01 0,0 0.01,0.01 0,0.01 0,0 0.01,0.01 0,0.01 0.01,0.01 0,0 0,0.01 0,0.01 0,0.01 0.01,0.01 0,0 0,0.01 0,0.01 c 0,0.1 -0.04,0.16 -0.2,0.23 l -5.49,2.59 c -0.14,0.07 -0.18,0.07 -0.2,0.07 -0.12,0 -0.2,-0.09 -0.2,-0.2 0,-0.12 0.08,-0.17 0.19,-0.22 l 5.23,-2.46 -5.21,-2.46 c -0.2,-0.09 -0.21,-0.17 -0.21,-0.23 0,-0.11 0.09,-0.2 0.2,-0.2 0.03,0 0.05,0 0.18,0.07 z"
           inkscape:connector-curvature="0"
           style="fill:#000000;stroke-width:0" /><path
           id="path8318"
           d="m 290.18,655.87 0.03,0 0.03,0 0.03,0 0.02,0 0.01,0 0.02,0 0.01,0 0.02,0.01 0.01,0 0.02,0 0.01,0 0.01,0.01 0.02,0 0.01,0.01 0.01,0 0.01,0.01 0.01,0.01 0.01,0 0.01,0.01 0.01,0.01 0.01,0.01 0,0.01 0,0 0.01,0.01 0,0 0,0.01 0,0.01 0.01,0 0,0.01 0,0.01 0,0.01 0,0 0,0.01 0.01,0.01 0,0.01 0,0.01 0,0.01 c 0,0.2 -0.21,0.2 -0.36,0.2 l -5.37,0 c -0.15,0 -0.36,0 -0.36,-0.2 0,-0.2 0.18,-0.2 0.35,-0.2 z"
           inkscape:connector-curvature="0"
           style="fill:#000000;stroke-width:0" /><path
           id="path8320"
           d="m 298.71,660.42 0,0.15 0,0.15 -0.01,0.15 0,0.15 -0.01,0.15 -0.01,0.14 -0.02,0.15 -0.02,0.15 -0.02,0.15 -0.03,0.14 -0.03,0.15 -0.04,0.14 -0.04,0.14 -0.05,0.14 -0.06,0.14 -0.03,0.07 -0.03,0.07 c -0.46,0.96 -1.27,1.12 -1.69,1.12 -0.6,0 -1.33,-0.26 -1.73,-1.19 -0.32,-0.69 -0.37,-1.46 -0.37,-2.26 0,-0.75 0.04,-1.64 0.44,-2.4 0.43,-0.81 1.16,-1.01 1.65,-1.01 l 0,0.22 c -0.39,0 -0.98,0.25 -1.16,1.21 -0.11,0.6 -0.11,1.51 -0.11,2.1 0,0.64 0,1.3 0.08,1.83 0.19,1.19 0.94,1.28 1.19,1.28 0.33,0 0.99,-0.18 1.17,-1.17 0.1,-0.56 0.1,-1.31 0.1,-1.94 0,-0.75 0,-1.43 -0.11,-2.06 -0.15,-0.95 -0.71,-1.25 -1.16,-1.25 l 0,0 0,-0.22 c 0.54,0 1.29,0.21 1.73,1.16 0.32,0.69 0.37,1.46 0.37,2.25 z"
           inkscape:connector-curvature="0"
           style="fill:#000000;stroke-width:0" /></g>      <text
         sodipodi:linespacing="125%"
         id="text8402"
         y="278.01877"
         x="268.89041"
         style="font-style:normal;font-weight:normal;font-size:9.06365299px;line-height:125%;font-family:Sans;text-align:start;letter-spacing:0px;word-spacing:0px;text-anchor:start;fill:#000000;fill-opacity:1;stroke:none;stroke-width:1px;stroke-linecap:butt;stroke-linejoin:miter;stroke-opacity:1"
         xml:space="preserve"><tspan
           y="278.01877"
           x="268.89041"
           id="tspan8404"
           sodipodi:role="line">i.e. if  </tspan></text>
      <g
         style="font-style:normal;font-variant:normal;font-weight:normal;font-stretch:normal;letter-spacing:normal;word-spacing:normal;text-anchor:start;fill:none;fill-opacity:1;fill-rule:evenodd;stroke:#000000;stroke-linecap:butt;stroke-linejoin:miter;stroke-miterlimit:10.43299961;stroke-dasharray:none;stroke-dashoffset:0;stroke-opacity:1"
         id="g8490"
         transform="matrix(1,0,0,-1,76.52926,934.60538)"
         xml:space="preserve"
         stroke-miterlimit="10.433"
         font-style="normal"
         font-variant="normal"
         font-weight="normal"
         font-stretch="normal"
         font-size-adjust="none"
         letter-spacing="normal"
         word-spacing="normal"
         ns0:text="$x_1 + x_2 \\geq 3$"
         ns0:preamble=""><path
           style="fill:#000000;stroke-width:0"
           inkscape:connector-curvature="0"
           d="m 226.76,660.24 0.01,0.03 0,0.03 0.01,0.03 0.01,0.04 0.01,0.03 0.01,0.05 0.02,0.04 0.01,0.04 0.02,0.05 0.01,0.05 0.02,0.05 0.02,0.05 0.03,0.05 0.02,0.05 0.03,0.05 0.02,0.05 0.03,0.04 0.03,0.05 0.04,0.05 0.03,0.04 0.04,0.05 0.04,0.04 0.04,0.03 0.05,0.04 0.04,0.03 0.05,0.03 0.03,0.01 0.02,0.02 0.03,0.01 0.03,0.01 0.02,0.01 0.03,0 0.03,0.01 0.03,0.01 0.03,0 0.03,0 0.03,0.01 0.04,0 c 0.05,0 0.29,0 0.49,-0.13 -0.28,-0.05 -0.47,-0.3 -0.47,-0.54 0,-0.16 0.11,-0.35 0.38,-0.35 0.21,0 0.53,0.18 0.53,0.58 0,0.52 -0.58,0.66 -0.92,0.66 -0.58,0 -0.93,-0.53 -1.05,-0.76 -0.25,0.66 -0.79,0.76 -1.08,0.76 -1.03,0 -1.6,-1.29 -1.6,-1.54 0,-0.1 0.1,-0.1 0.12,-0.1 0.08,0 0.11,0.02 0.13,0.11 0.34,1.06 1,1.31 1.33,1.31 0.19,0 0.54,-0.09 0.54,-0.67 0,-0.31 -0.17,-0.98 -0.54,-2.37 -0.15,-0.62 -0.5,-1.04 -0.94,-1.04 -0.06,0 -0.29,0 -0.5,0.13 0.25,0.05 0.47,0.26 0.47,0.54 0,0.27 -0.22,0.35 -0.37,0.35 -0.3,0 -0.55,-0.26 -0.55,-0.58 0,-0.46 0.5,-0.66 0.94,-0.66 0.66,0 1.01,0.7 1.04,0.76 0.12,-0.37 0.48,-0.76 1.08,-0.76 1.03,0 1.59,1.29 1.59,1.54 0,0.1 -0.09,0.1 -0.12,0.1 -0.09,0 -0.1,-0.04 -0.13,-0.11 -0.32,-1.07 -1,-1.31 -1.32,-1.31 -0.39,0 -0.55,0.32 -0.55,0.66 0,0.22 0.06,0.44 0.17,0.88 z"
           id="path8492" /><path
           style="fill:#000000;stroke-width:0"
           inkscape:connector-curvature="0"
           d="m 231.46,660.17 0,0.01 0,0.01 0,0.01 0,0.01 0,0.01 0,0 0,0.01 0,0.01 0,0 0,0.01 0,0.01 0,0 0,0.01 0,0 0,0.01 0,0.01 -0.01,0 0,0.01 0,0 0,0.01 0,0.01 -0.01,0.01 0,0 -0.01,0.01 0,0 -0.01,0.01 0,0 -0.01,0.01 -0.01,0 0,0 -0.01,0 -0.01,0.01 -0.01,0 0,0 -0.01,0 0,0 -0.01,0 -0.01,0 0,0 -0.01,0 -0.01,0 0,0 -0.01,0 -0.01,0 -0.01,0 0,0 -0.01,0 -0.01,0 -0.01,0 -0.01,0 c -0.44,-0.44 -1.08,-0.45 -1.37,-0.45 l 0,-0.25 c 0.17,0 0.63,0 1.02,0.2 l 0,-3.56 c 0,-0.23 0,-0.32 -0.7,-0.32 l -0.27,0 0,-0.25 c 0.13,0.01 0.99,0.03 1.25,0.03 0.21,0 1.09,-0.02 1.24,-0.03 l 0,0.25 -0.26,0 c -0.7,0 -0.7,0.09 -0.7,0.32 z"
           id="path8494" /><path
           style="fill:#000000;stroke-width:0"
           inkscape:connector-curvature="0"
           d="m 239.88,659.52 2.78,0 c 0.14,0 0.33,0 0.33,0.2 0,0.2 -0.19,0.2 -0.33,0.2 l -2.78,0 0,2.79 c 0,0.14 0,0.33 -0.2,0.33 -0.2,0 -0.2,-0.19 -0.2,-0.33 l 0,-2.79 -2.79,0 c -0.14,0 -0.32,0 -0.32,-0.2 0,-0.2 0.18,-0.2 0.32,-0.2 l 2.79,0 0,-2.79 c 0,-0.14 0,-0.32 0.2,-0.32 0.2,0 0.2,0.18 0.2,0.32 z"
           id="path8496" /><path
           style="fill:#000000;stroke-width:0"
           inkscape:connector-curvature="0"
           d="m 249.1,660.24 0.01,0.03 0.01,0.03 0,0.03 0.01,0.04 0.01,0.03 0.02,0.05 0.01,0.04 0.01,0.04 0.02,0.05 0.02,0.05 0.02,0.05 0.02,0.05 0.02,0.05 0.02,0.05 0.03,0.05 0.03,0.05 0.03,0.04 0.03,0.05 0.03,0.05 0.04,0.04 0.03,0.05 0.04,0.04 0.04,0.03 0.05,0.04 0.05,0.03 0.04,0.03 0.03,0.01 0.03,0.02 0.02,0.01 0.03,0.01 0.03,0.01 0.02,0 0.03,0.01 0.03,0.01 0.03,0 0.03,0 0.04,0.01 0.03,0 c 0.05,0 0.29,0 0.5,-0.13 -0.28,-0.05 -0.48,-0.3 -0.48,-0.54 0,-0.16 0.11,-0.35 0.38,-0.35 0.22,0 0.53,0.18 0.53,0.58 0,0.52 -0.58,0.66 -0.92,0.66 -0.58,0 -0.93,-0.53 -1.05,-0.76 -0.25,0.66 -0.78,0.76 -1.07,0.76 -1.04,0 -1.61,-1.29 -1.61,-1.54 0,-0.1 0.1,-0.1 0.12,-0.1 0.08,0 0.11,0.02 0.13,0.11 0.34,1.06 1,1.31 1.34,1.31 0.19,0 0.53,-0.09 0.53,-0.67 0,-0.31 -0.17,-0.98 -0.53,-2.37 -0.16,-0.62 -0.51,-1.04 -0.95,-1.04 -0.06,0 -0.29,0 -0.5,0.13 0.25,0.05 0.47,0.26 0.47,0.54 0,0.27 -0.22,0.35 -0.37,0.35 -0.3,0 -0.55,-0.26 -0.55,-0.58 0,-0.46 0.5,-0.66 0.94,-0.66 0.66,0 1.02,0.7 1.05,0.76 0.12,-0.37 0.47,-0.76 1.07,-0.76 1.03,0 1.6,1.29 1.6,1.54 0,0.1 -0.09,0.1 -0.12,0.1 -0.09,0 -0.11,-0.04 -0.13,-0.11 -0.33,-1.07 -1.01,-1.31 -1.33,-1.31 -0.39,0 -0.55,0.32 -0.55,0.66 0,0.22 0.06,0.44 0.17,0.88 z"
           id="path8498" /><path
           style="fill:#000000;stroke-width:0"
           inkscape:connector-curvature="0"
           d="m 254.99,657.01 -0.24,0 c -0.02,-0.15 -0.09,-0.57 -0.18,-0.63 -0.06,-0.05 -0.59,-0.05 -0.69,-0.05 l -1.28,0 c 0.73,0.65 0.97,0.85 1.39,1.17 0.52,0.42 1,0.85 1,1.51 0,0.84 -0.74,1.36 -1.63,1.36 -0.87,0 -1.45,-0.61 -1.45,-1.25 0,-0.35 0.3,-0.39 0.37,-0.39 0.16,0 0.37,0.12 0.37,0.37 0,0.13 -0.05,0.37 -0.41,0.37 0.21,0.5 0.69,0.65 1.01,0.65 0.7,0 1.06,-0.54 1.06,-1.11 0,-0.61 -0.43,-1.09 -0.65,-1.34 l -1.68,-1.66 c -0.07,-0.06 -0.07,-0.08 -0.07,-0.27 l 2.87,0 z"
           id="path8500" /><path
           style="fill:#000000;stroke-width:0"
           inkscape:connector-curvature="0"
           d="m 265.42,660.46 0.01,0.01 0.02,0 0.01,0.01 0.01,0 0.01,0.01 0.01,0 0.01,0.01 0.01,0.01 0.01,0 0.01,0.01 0.01,0.01 0,0 0.01,0.01 0.01,0.01 0.01,0 0,0.01 0.01,0.01 0,0 0.01,0.01 0,0.01 0.01,0 0,0.01 0,0.01 0.01,0.01 0,0 0,0.01 0,0.01 0.01,0.01 0,0.01 0,0 0,0.01 0,0.01 c 0,0.1 -0.04,0.16 -0.2,0.23 l -5.49,2.59 c -0.14,0.07 -0.18,0.07 -0.2,0.07 -0.12,0 -0.2,-0.09 -0.2,-0.2 0,-0.12 0.08,-0.17 0.19,-0.22 l 5.23,-2.46 -5.21,-2.46 c -0.2,-0.09 -0.21,-0.17 -0.21,-0.23 0,-0.11 0.09,-0.2 0.2,-0.2 0.03,0 0.05,0 0.18,0.07 z"
           id="path8502" /><path
           style="fill:#000000;stroke-width:0"
           inkscape:connector-curvature="0"
           d="m 265.27,655.87 0.03,0 0.03,0 0.04,0 0.01,0 0.02,0 0.01,0 0.02,0 0.01,0.01 0.02,0 0.01,0 0.01,0 0.02,0.01 0.01,0 0.01,0.01 0.01,0 0.01,0.01 0.01,0.01 0.01,0 0.01,0.01 0.01,0.01 0.01,0.01 0,0.01 0.01,0 0,0.01 0,0 0,0.01 0.01,0.01 0,0 0,0.01 0,0.01 0,0.01 0.01,0 0,0.01 0,0.01 0,0.01 0,0.01 0,0.01 c 0,0.2 -0.21,0.2 -0.36,0.2 l -5.37,0 c -0.15,0 -0.36,0 -0.36,-0.2 0,-0.2 0.18,-0.2 0.35,-0.2 z"
           id="path8504" /><path
           style="fill:#000000;stroke-width:0"
           inkscape:connector-curvature="0"
           d="m 272.11,660.74 0.07,0.03 0.08,0.02 0.07,0.04 0.07,0.03 0.07,0.04 0.07,0.03 0.07,0.04 0.06,0.05 0.06,0.04 0.06,0.05 0.06,0.04 0.06,0.05 0.05,0.06 0.06,0.05 0.05,0.06 0.04,0.05 0.05,0.06 0.04,0.06 0.04,0.06 0.04,0.06 0.03,0.07 0.04,0.06 0.02,0.07 0.03,0.06 0.02,0.07 0.03,0.07 0.01,0.07 0.02,0.07 0.01,0.07 0.01,0.08 0,0.07 0,0.07 c 0,0.82 -0.87,1.38 -1.83,1.38 -1,0 -1.76,-0.6 -1.76,-1.36 0,-0.33 0.22,-0.52 0.51,-0.52 0.3,0 0.5,0.22 0.5,0.51 0,0.5 -0.47,0.5 -0.61,0.5 0.3,0.49 0.96,0.62 1.32,0.62 0.41,0 0.96,-0.22 0.96,-1.12 0,-0.12 -0.02,-0.7 -0.28,-1.13 -0.3,-0.48 -0.64,-0.51 -0.89,-0.52 -0.08,-0.01 -0.32,-0.03 -0.39,-0.03 -0.08,-0.01 -0.15,-0.02 -0.15,-0.12 0,-0.11 0.07,-0.11 0.24,-0.11 l 0.44,0 c 0.82,0 1.19,-0.68 1.19,-1.65 0,-1.36 -0.69,-1.65 -1.13,-1.65 -0.43,0 -1.17,0.17 -1.52,0.76 0.35,-0.05 0.65,0.17 0.65,0.55 0,0.36 -0.27,0.56 -0.55,0.56 -0.24,0 -0.56,-0.14 -0.56,-0.58 0,-0.91 0.93,-1.57 2.01,-1.57 1.22,0 2.12,0.91 2.12,1.93 0,0.81 -0.63,1.59 -1.66,1.8 z"
           id="path8506" /></g>    </g>
  </g>
</svg>
