<?xml version="1.0" encoding="UTF-8" standalone="no"?>
<!-- Created with Inkscape (http://www.inkscape.org/) -->

<svg
   xmlns:ns0="http://www.iki.fi/pav/software/textext/"
   xmlns:dc="http://purl.org/dc/elements/1.1/"
   xmlns:cc="http://creativecommons.org/ns#"
   xmlns:rdf="http://www.w3.org/1999/02/22-rdf-syntax-ns#"
   xmlns:svg="http://www.w3.org/2000/svg"
   xmlns="http://www.w3.org/2000/svg"
   xmlns:sodipodi="http://sodipodi.sourceforge.net/DTD/sodipodi-0.dtd"
   xmlns:inkscape="http://www.inkscape.org/namespaces/inkscape"
   width="196.2395mm"
   height="44.838341mm"
   viewBox="0 0 695.33682 158.87601"
   id="svg9912"
   version="1.1"
   inkscape:version="0.91 r13725"
   sodipodi:docname="UnderOver.svg">
  <sodipodi:namedview
     id="base"
     pagecolor="#ffffff"
     bordercolor="#666666"
     borderopacity="1.0"
     inkscape:pageopacity="0.0"
     inkscape:pageshadow="2"
     inkscape:zoom="0.7"
     inkscape:cx="325.92933"
     inkscape:cy="31.073105"
     inkscape:document-units="px"
     inkscape:current-layer="layer1"
     showgrid="false"
     inkscape:window-width="655"
     inkscape:window-height="722"
     inkscape:window-x="57"
     inkscape:window-y="21"
     inkscape:window-maximized="0"
     fit-margin-top="0"
     fit-margin-left="0"
     fit-margin-right="0"
     fit-margin-bottom="0" />
  <defs
     id="defs9914">
    <marker
       inkscape:stockid="Arrow2Lend"
       orient="auto"
       refY="0"
       refX="0"
       id="marker8795"
       style="overflow:visible"
       inkscape:isstock="true">
      <path
         id="path8797"
         style="fill:#000000;fill-opacity:1;fill-rule:evenodd;stroke:#000000;stroke-width:0.625;stroke-linejoin:round;stroke-opacity:1"
         d="M 8.7185878,4.0337352 -2.2072895,0.01601326 8.7185884,-4.0017078 c -1.7454984,2.3720609 -1.7354408,5.6174519 -6e-7,8.035443 z"
         transform="matrix(-1.1,0,0,-1.1,-1.1,0)"
         inkscape:connector-curvature="0" />
    </marker>
  </defs>
  <metadata
     id="metadata9917">
    <rdf:RDF>
      <cc:Work
         rdf:about="">
        <dc:format>image/svg+xml</dc:format>
        <dc:type
           rdf:resource="http://purl.org/dc/dcmitype/StillImage" />
        <dc:title></dc:title>
      </cc:Work>
    </rdf:RDF>
  </metadata>
  <g
     id="layer1"
     inkscape:groupmode="layer"
     inkscape:label="Layer 1"
     transform="translate(-19.305791,-62.250175)">
    <g
       id="g12343">
      <g
         style="font-style:normal;font-variant:normal;font-weight:normal;font-stretch:normal;letter-spacing:normal;word-spacing:normal;text-anchor:start;fill:none;fill-opacity:1;fill-rule:evenodd;stroke:#000000;stroke-linecap:butt;stroke-linejoin:miter;stroke-miterlimit:10.43299961;stroke-dasharray:none;stroke-dashoffset:0;stroke-opacity:1"
         ns0:preamble=""
         ns0:text="$\\theta_0 + \\theta_1 x + \\theta_2 x^2 $"
         word-spacing="normal"
         letter-spacing="normal"
         font-size-adjust="none"
         font-stretch="normal"
         font-weight="normal"
         font-variant="normal"
         font-style="normal"
         stroke-miterlimit="10.433"
         xml:space="preserve"
         transform="matrix(1,0,0,-1,128.89492,727.76518)"
         id="g11194"><path
           style="fill:#000000;stroke-width:0"
           inkscape:connector-curvature="0"
           id="path11196"
           d="m 227.96,662.21 0,0.07 0,0.07 0,0.07 0,0.07 -0.01,0.08 -0.01,0.08 -0.01,0.08 -0.01,0.08 -0.01,0.08 -0.02,0.09 -0.02,0.08 -0.02,0.09 -0.02,0.08 -0.02,0.09 -0.03,0.08 -0.03,0.08 -0.04,0.08 -0.03,0.08 -0.04,0.07 -0.05,0.07 -0.04,0.07 -0.05,0.06 -0.06,0.06 -0.05,0.06 -0.07,0.05 -0.03,0.02 -0.03,0.02 -0.04,0.02 -0.03,0.02 -0.04,0.02 -0.04,0.02 -0.04,0.01 -0.04,0.01 -0.04,0.01 -0.04,0.01 -0.04,0.01 -0.05,0 -0.04,0 -0.05,0.01 -0.01,-0.22 c 0.49,0 0.55,-0.64 0.55,-1.21 0,-0.49 -0.08,-0.99 -0.32,-1.98 l -2.08,0 c 0.17,0.64 0.37,1.43 0.76,2.14 0.27,0.49 0.64,1.05 1.09,1.05 l 0.01,0.22 c -1.39,0 -2.92,-2.81 -2.92,-5.1 0,-0.93 0.29,-2.04 1.2,-2.04 l 0,0.22 c -0.33,0 -0.54,0.29 -0.54,1.22 0,0.42 0.06,0.99 0.32,1.97 l 2.07,0 c -0.11,-0.46 -0.32,-1.31 -0.7,-2.02 -0.35,-0.68 -0.72,-1.17 -1.15,-1.17 l 0,-0.22 c 1.4,0 2.91,2.86 2.91,5.09 z" /><path
           style="fill:#000000;stroke-width:0"
           inkscape:connector-curvature="0"
           id="path11198"
           d="m 231.71,657.97 0,0.14 0,0.13 -0.01,0.13 -0.01,0.13 -0.01,0.13 -0.01,0.11 -0.02,0.12 -0.02,0.11 -0.03,0.11 -0.03,0.11 -0.03,0.1 -0.04,0.1 -0.04,0.1 -0.05,0.09 -0.05,0.1 -0.03,0.05 -0.03,0.04 c -0.22,0.32 -0.65,0.6 -1.21,0.6 -1.61,0 -1.61,-1.9 -1.61,-2.4 0,-0.51 0,-2.37 1.61,-2.37 l 0,0.2 c -0.32,0 -0.74,0.18 -0.88,0.76 -0.1,0.41 -0.1,0.98 -0.1,1.49 0,0.51 0,1.04 0.1,1.43 0.15,0.55 0.6,0.69 0.88,0.69 0.38,0 0.74,-0.22 0.87,-0.63 0.11,-0.38 0.12,-0.88 0.12,-1.49 0,-0.51 0,-1.03 -0.09,-1.47 -0.14,-0.63 -0.62,-0.78 -0.9,-0.78 l 0,0 0,-0.2 c 1.62,0 1.62,1.86 1.62,2.37 z" /><path
           style="fill:#000000;stroke-width:0"
           inkscape:connector-curvature="0"
           id="path11200"
           d="m 238.87,659.52 2.78,0 c 0.14,0 0.33,0 0.33,0.2 0,0.2 -0.19,0.2 -0.33,0.2 l -2.78,0 0,2.79 c 0,0.14 0,0.33 -0.2,0.33 -0.2,0 -0.2,-0.19 -0.2,-0.33 l 0,-2.79 -2.79,0 c -0.14,0 -0.33,0 -0.33,-0.2 0,-0.2 0.19,-0.2 0.33,-0.2 l 2.79,0 0,-2.79 c 0,-0.14 0,-0.32 0.2,-0.32 0.2,0 0.2,0.18 0.2,0.32 z" /><path
           style="fill:#000000;stroke-width:0"
           inkscape:connector-curvature="0"
           id="path11202"
           d="m 249.29,662.21 0,0.07 0,0.07 -0.01,0.07 0,0.07 -0.01,0.08 -0.01,0.08 0,0.08 -0.02,0.08 -0.01,0.08 -0.01,0.09 -0.02,0.08 -0.02,0.09 -0.02,0.08 -0.03,0.09 -0.03,0.08 -0.03,0.08 -0.03,0.08 -0.04,0.08 -0.04,0.07 -0.04,0.07 -0.05,0.07 -0.05,0.06 -0.05,0.06 -0.06,0.06 -0.06,0.05 -0.04,0.02 -0.03,0.02 -0.03,0.02 -0.04,0.02 -0.04,0.02 -0.03,0.02 -0.04,0.01 -0.04,0.01 -0.04,0.01 -0.05,0.01 -0.04,0.01 -0.05,0 -0.04,0 -0.05,0.01 -0.01,-0.22 c 0.49,0 0.55,-0.64 0.55,-1.21 0,-0.49 -0.08,-0.99 -0.32,-1.98 l -2.08,0 c 0.17,0.64 0.37,1.43 0.77,2.14 0.27,0.49 0.63,1.05 1.08,1.05 l 0.01,0.22 c -1.38,0 -2.92,-2.81 -2.92,-5.1 0,-0.93 0.29,-2.04 1.2,-2.04 l 0,0.22 c -0.33,0 -0.54,0.29 -0.54,1.22 0,0.42 0.06,0.99 0.32,1.97 l 2.07,0 c -0.11,-0.46 -0.32,-1.31 -0.7,-2.02 -0.34,-0.68 -0.72,-1.17 -1.15,-1.17 l 0,-0.22 c 1.4,0 2.92,2.86 2.92,5.09 z" /><path
           style="fill:#000000;stroke-width:0"
           inkscape:connector-curvature="0"
           id="path11204"
           d="m 251.77,660.17 0,0.01 0,0.01 0,0.01 0,0.01 0,0.01 0,0 0,0.01 0,0.01 0,0 0,0.01 0,0.01 0,0 0,0.01 0,0 0,0.01 0,0.01 -0.01,0 0,0.01 0,0 0,0.01 0,0.01 -0.01,0.01 0,0 -0.01,0.01 0,0 -0.01,0.01 0,0 -0.01,0.01 -0.01,0 0,0 -0.01,0 -0.01,0.01 -0.01,0 0,0 -0.01,0 0,0 -0.01,0 -0.01,0 0,0 -0.01,0 -0.01,0 0,0 -0.01,0 -0.01,0 -0.01,0 0,0 -0.01,0 -0.01,0 -0.01,0 -0.01,0 c -0.44,-0.44 -1.08,-0.45 -1.36,-0.45 l 0,-0.25 c 0.16,0 0.62,0 1.01,0.2 l 0,-3.56 c 0,-0.23 0,-0.32 -0.7,-0.32 l -0.27,0 0,-0.25 c 0.13,0.01 0.99,0.03 1.25,0.03 0.21,0 1.09,-0.02 1.24,-0.03 l 0,0.25 -0.26,0 c -0.7,0 -0.7,0.09 -0.7,0.32 z" /><path
           style="fill:#000000;stroke-width:0"
           inkscape:connector-curvature="0"
           id="path11206"
           d="m 257.23,660.24 0,0.03 0.01,0.03 0.01,0.03 0.01,0.04 0.01,0.03 0.01,0.05 0.01,0.04 0.02,0.04 0.01,0.05 0.02,0.05 0.02,0.05 0.02,0.05 0.02,0.05 0.03,0.05 0.02,0.05 0.03,0.05 0.03,0.04 0.03,0.05 0.03,0.05 0.04,0.04 0.04,0.05 0.04,0.04 0.04,0.03 0.04,0.04 0.05,0.03 0.05,0.03 0.02,0.01 0.03,0.02 0.02,0.01 0.03,0.01 0.03,0.01 0.03,0 0.03,0.01 0.03,0.01 0.03,0 0.03,0 0.03,0.01 0.03,0 c 0.05,0 0.29,0 0.5,-0.13 -0.28,-0.05 -0.48,-0.3 -0.48,-0.54 0,-0.16 0.11,-0.35 0.38,-0.35 0.22,0 0.54,0.18 0.54,0.58 0,0.52 -0.59,0.66 -0.93,0.66 -0.58,0 -0.92,-0.53 -1.05,-0.76 -0.24,0.66 -0.78,0.76 -1.07,0.76 -1.04,0 -1.61,-1.29 -1.61,-1.54 0,-0.1 0.11,-0.1 0.13,-0.1 0.08,0 0.1,0.02 0.12,0.11 0.34,1.06 1,1.31 1.34,1.31 0.19,0 0.54,-0.09 0.54,-0.67 0,-0.31 -0.17,-0.98 -0.54,-2.37 -0.16,-0.62 -0.51,-1.04 -0.95,-1.04 -0.06,0 -0.29,0 -0.5,0.13 0.25,0.05 0.47,0.26 0.47,0.54 0,0.27 -0.22,0.35 -0.37,0.35 -0.3,0 -0.54,-0.26 -0.54,-0.58 0,-0.46 0.49,-0.66 0.93,-0.66 0.66,0 1.02,0.7 1.05,0.76 0.12,-0.37 0.48,-0.76 1.07,-0.76 1.03,0 1.6,1.29 1.6,1.54 0,0.1 -0.09,0.1 -0.12,0.1 -0.09,0 -0.11,-0.04 -0.13,-0.11 -0.33,-1.07 -1.01,-1.31 -1.32,-1.31 -0.39,0 -0.55,0.32 -0.55,0.66 0,0.22 0.06,0.44 0.17,0.88 z" /><path
           style="fill:#000000;stroke-width:0"
           inkscape:connector-curvature="0"
           id="path11208"
           d="m 265.89,659.52 2.77,0 c 0.14,0 0.33,0 0.33,0.2 0,0.2 -0.19,0.2 -0.33,0.2 l -2.77,0 0,2.79 c 0,0.14 0,0.33 -0.21,0.33 -0.19,0 -0.19,-0.19 -0.19,-0.33 l 0,-2.79 -2.79,0 c -0.14,0 -0.33,0 -0.33,-0.2 0,-0.2 0.19,-0.2 0.33,-0.2 l 2.79,0 0,-2.79 c 0,-0.14 0,-0.32 0.19,-0.32 0.21,0 0.21,0.18 0.21,0.32 z" /><path
           style="fill:#000000;stroke-width:0"
           inkscape:connector-curvature="0"
           id="path11210"
           d="m 276.3,662.21 0,0.07 0,0.07 0,0.07 -0.01,0.07 0,0.08 -0.01,0.08 -0.01,0.08 -0.01,0.08 -0.01,0.08 -0.02,0.09 -0.02,0.08 -0.02,0.09 -0.02,0.08 -0.02,0.09 -0.03,0.08 -0.03,0.08 -0.04,0.08 -0.03,0.08 -0.04,0.07 -0.05,0.07 -0.04,0.07 -0.05,0.06 -0.06,0.06 -0.06,0.06 -0.06,0.05 -0.03,0.02 -0.03,0.02 -0.04,0.02 -0.04,0.02 -0.03,0.02 -0.04,0.02 -0.04,0.01 -0.04,0.01 -0.04,0.01 -0.04,0.01 -0.05,0.01 -0.04,0 -0.05,0 -0.04,0.01 -0.01,-0.22 c 0.49,0 0.54,-0.64 0.54,-1.21 0,-0.49 -0.07,-0.99 -0.31,-1.98 l -2.09,0 c 0.17,0.64 0.37,1.43 0.77,2.14 0.27,0.49 0.64,1.05 1.09,1.05 l 0.01,0.22 c -1.39,0 -2.92,-2.81 -2.92,-5.1 0,-0.93 0.29,-2.04 1.19,-2.04 l 0,0.22 c -0.33,0 -0.53,0.29 -0.53,1.22 0,0.42 0.06,0.99 0.32,1.97 l 2.07,0 c -0.11,-0.46 -0.32,-1.31 -0.7,-2.02 -0.35,-0.68 -0.73,-1.17 -1.16,-1.17 l 0,-0.22 c 1.41,0 2.92,2.86 2.92,5.09 z" /><path
           style="fill:#000000;stroke-width:0"
           inkscape:connector-curvature="0"
           id="path11212"
           d="m 279.97,657.01 -0.24,0 c -0.02,-0.15 -0.09,-0.57 -0.18,-0.63 -0.05,-0.05 -0.59,-0.05 -0.69,-0.05 l -1.28,0 c 0.73,0.65 0.98,0.85 1.4,1.17 0.51,0.42 0.99,0.85 0.99,1.51 0,0.84 -0.74,1.36 -1.63,1.36 -0.86,0 -1.45,-0.61 -1.45,-1.25 0,-0.35 0.3,-0.39 0.37,-0.39 0.17,0 0.37,0.12 0.37,0.37 0,0.13 -0.05,0.37 -0.41,0.37 0.21,0.5 0.69,0.65 1.01,0.65 0.7,0 1.07,-0.54 1.07,-1.11 0,-0.61 -0.44,-1.09 -0.66,-1.34 l -1.68,-1.66 c -0.07,-0.06 -0.07,-0.08 -0.07,-0.27 l 2.87,0 z" /><path
           style="fill:#000000;stroke-width:0"
           inkscape:connector-curvature="0"
           id="path11214"
           d="m 284.25,660.24 0,0.03 0.01,0.03 0.01,0.03 0.01,0.04 0.01,0.03 0.01,0.05 0.01,0.04 0.02,0.04 0.01,0.05 0.02,0.05 0.02,0.05 0.02,0.05 0.02,0.05 0.03,0.05 0.02,0.05 0.03,0.05 0.03,0.04 0.03,0.05 0.04,0.05 0.03,0.04 0.04,0.05 0.04,0.04 0.04,0.03 0.04,0.04 0.05,0.03 0.05,0.03 0.02,0.01 0.03,0.02 0.03,0.01 0.02,0.01 0.03,0.01 0.03,0 0.03,0.01 0.03,0.01 0.03,0 0.03,0 0.03,0.01 0.03,0 c 0.05,0 0.29,0 0.5,-0.13 -0.28,-0.05 -0.48,-0.3 -0.48,-0.54 0,-0.16 0.11,-0.35 0.38,-0.35 0.22,0 0.54,0.18 0.54,0.58 0,0.52 -0.59,0.66 -0.93,0.66 -0.57,0 -0.92,-0.53 -1.04,-0.76 -0.25,0.66 -0.79,0.76 -1.08,0.76 -1.03,0 -1.6,-1.29 -1.6,-1.54 0,-0.1 0.1,-0.1 0.12,-0.1 0.08,0 0.11,0.02 0.13,0.11 0.34,1.06 0.99,1.31 1.33,1.31 0.19,0 0.54,-0.09 0.54,-0.67 0,-0.31 -0.17,-0.98 -0.54,-2.37 -0.16,-0.62 -0.51,-1.04 -0.95,-1.04 -0.05,0 -0.28,0 -0.49,0.13 0.25,0.05 0.46,0.26 0.46,0.54 0,0.27 -0.21,0.35 -0.36,0.35 -0.3,0 -0.55,-0.26 -0.55,-0.58 0,-0.46 0.5,-0.66 0.93,-0.66 0.66,0 1.02,0.7 1.05,0.76 0.12,-0.37 0.48,-0.76 1.08,-0.76 1.02,0 1.59,1.29 1.59,1.54 0,0.1 -0.09,0.1 -0.12,0.1 -0.09,0 -0.11,-0.04 -0.13,-0.11 -0.33,-1.07 -1,-1.31 -1.32,-1.31 -0.39,0 -0.55,0.32 -0.55,0.66 0,0.22 0.06,0.44 0.17,0.88 z" /><path
           style="fill:#000000;stroke-width:0"
           inkscape:connector-curvature="0"
           id="path11216"
           d="m 290.13,662.12 -0.23,0 c -0.02,-0.16 -0.09,-0.57 -0.18,-0.64 -0.06,-0.04 -0.6,-0.04 -0.7,-0.04 l -1.28,0 c 0.74,0.65 0.98,0.84 1.4,1.17 0.51,0.41 0.99,0.85 0.99,1.51 0,0.84 -0.74,1.36 -1.63,1.36 -0.86,0 -1.45,-0.61 -1.45,-1.25 0,-0.36 0.3,-0.39 0.37,-0.39 0.17,0 0.37,0.12 0.37,0.37 0,0.12 -0.05,0.37 -0.41,0.37 0.22,0.49 0.69,0.65 1.02,0.65 0.7,0 1.06,-0.55 1.06,-1.11 0,-0.61 -0.44,-1.09 -0.66,-1.34 l -1.68,-1.66 c -0.07,-0.06 -0.07,-0.08 -0.07,-0.27 l 2.87,0 z" /></g>      <g
         id="g11342"
         transform="matrix(1,0,0,-1,343.34375,727.80018)"
         xml:space="preserve"
         stroke-miterlimit="10.433"
         font-style="normal"
         font-variant="normal"
         font-weight="normal"
         font-stretch="normal"
         font-size-adjust="none"
         letter-spacing="normal"
         word-spacing="normal"
         ns0:text="$\\theta_0 + \\theta_1 x + \\theta_2 x^2 + \\theta_3 x^3 + \\theta_4 x^4$"
         ns0:preamble=""
         style="font-style:normal;font-variant:normal;font-weight:normal;font-stretch:normal;letter-spacing:normal;word-spacing:normal;text-anchor:start;fill:none;fill-opacity:1;fill-rule:evenodd;stroke:#000000;stroke-linecap:butt;stroke-linejoin:miter;stroke-miterlimit:10.43299961;stroke-dasharray:none;stroke-dashoffset:0;stroke-opacity:1"><path
           style="fill:#000000;stroke-width:0"
           inkscape:connector-curvature="0"
           d="m 227.96,662.21 0,0.07 0,0.07 0,0.07 0,0.07 -0.01,0.08 -0.01,0.08 -0.01,0.08 -0.01,0.08 -0.01,0.08 -0.02,0.09 -0.02,0.08 -0.02,0.09 -0.02,0.08 -0.02,0.09 -0.03,0.08 -0.03,0.08 -0.04,0.08 -0.03,0.08 -0.04,0.07 -0.05,0.07 -0.04,0.07 -0.05,0.06 -0.06,0.06 -0.05,0.06 -0.07,0.05 -0.03,0.02 -0.03,0.02 -0.04,0.02 -0.03,0.02 -0.04,0.02 -0.04,0.02 -0.04,0.01 -0.04,0.01 -0.04,0.01 -0.04,0.01 -0.04,0.01 -0.05,0 -0.04,0 -0.05,0.01 -0.01,-0.22 c 0.49,0 0.55,-0.64 0.55,-1.21 0,-0.49 -0.08,-0.99 -0.32,-1.98 l -2.08,0 c 0.17,0.64 0.37,1.43 0.76,2.14 0.27,0.49 0.64,1.05 1.09,1.05 l 0.01,0.22 c -1.39,0 -2.92,-2.81 -2.92,-5.1 0,-0.93 0.29,-2.04 1.2,-2.04 l 0,0.22 c -0.33,0 -0.54,0.29 -0.54,1.22 0,0.42 0.06,0.99 0.32,1.97 l 2.07,0 c -0.11,-0.46 -0.32,-1.31 -0.7,-2.02 -0.35,-0.68 -0.72,-1.17 -1.15,-1.17 l 0,-0.22 c 1.4,0 2.91,2.86 2.91,5.09 z"
           id="path11344" /><path
           style="fill:#000000;stroke-width:0"
           inkscape:connector-curvature="0"
           d="m 231.71,657.97 0,0.14 0,0.13 -0.01,0.13 -0.01,0.13 -0.01,0.13 -0.01,0.11 -0.02,0.12 -0.02,0.11 -0.03,0.11 -0.03,0.11 -0.03,0.1 -0.04,0.1 -0.04,0.1 -0.05,0.09 -0.05,0.1 -0.03,0.05 -0.03,0.04 c -0.22,0.32 -0.65,0.6 -1.21,0.6 -1.61,0 -1.61,-1.9 -1.61,-2.4 0,-0.51 0,-2.37 1.61,-2.37 l 0,0.2 c -0.32,0 -0.74,0.18 -0.88,0.76 -0.1,0.41 -0.1,0.98 -0.1,1.49 0,0.51 0,1.04 0.1,1.43 0.15,0.55 0.6,0.69 0.88,0.69 0.38,0 0.74,-0.22 0.87,-0.63 0.11,-0.38 0.12,-0.88 0.12,-1.49 0,-0.51 0,-1.03 -0.09,-1.47 -0.14,-0.63 -0.62,-0.78 -0.9,-0.78 l 0,0 0,-0.2 c 1.62,0 1.62,1.86 1.62,2.37 z"
           id="path11346" /><path
           style="fill:#000000;stroke-width:0"
           inkscape:connector-curvature="0"
           d="m 238.87,659.52 2.78,0 c 0.14,0 0.33,0 0.33,0.2 0,0.2 -0.19,0.2 -0.33,0.2 l -2.78,0 0,2.79 c 0,0.14 0,0.33 -0.2,0.33 -0.2,0 -0.2,-0.19 -0.2,-0.33 l 0,-2.79 -2.79,0 c -0.14,0 -0.33,0 -0.33,-0.2 0,-0.2 0.19,-0.2 0.33,-0.2 l 2.79,0 0,-2.79 c 0,-0.14 0,-0.32 0.2,-0.32 0.2,0 0.2,0.18 0.2,0.32 z"
           id="path11348" /><path
           style="fill:#000000;stroke-width:0"
           inkscape:connector-curvature="0"
           d="m 249.29,662.21 0,0.07 0,0.07 -0.01,0.07 0,0.07 -0.01,0.08 -0.01,0.08 0,0.08 -0.02,0.08 -0.01,0.08 -0.01,0.09 -0.02,0.08 -0.02,0.09 -0.02,0.08 -0.03,0.09 -0.03,0.08 -0.03,0.08 -0.03,0.08 -0.04,0.08 -0.04,0.07 -0.04,0.07 -0.05,0.07 -0.05,0.06 -0.05,0.06 -0.06,0.06 -0.06,0.05 -0.04,0.02 -0.03,0.02 -0.03,0.02 -0.04,0.02 -0.04,0.02 -0.03,0.02 -0.04,0.01 -0.04,0.01 -0.04,0.01 -0.05,0.01 -0.04,0.01 -0.05,0 -0.04,0 -0.05,0.01 -0.01,-0.22 c 0.49,0 0.55,-0.64 0.55,-1.21 0,-0.49 -0.08,-0.99 -0.32,-1.98 l -2.08,0 c 0.17,0.64 0.37,1.43 0.77,2.14 0.27,0.49 0.63,1.05 1.08,1.05 l 0.01,0.22 c -1.38,0 -2.92,-2.81 -2.92,-5.1 0,-0.93 0.29,-2.04 1.2,-2.04 l 0,0.22 c -0.33,0 -0.54,0.29 -0.54,1.22 0,0.42 0.06,0.99 0.32,1.97 l 2.07,0 c -0.11,-0.46 -0.32,-1.31 -0.7,-2.02 -0.34,-0.68 -0.72,-1.17 -1.15,-1.17 l 0,-0.22 c 1.4,0 2.92,2.86 2.92,5.09 z"
           id="path11350" /><path
           style="fill:#000000;stroke-width:0"
           inkscape:connector-curvature="0"
           d="m 251.77,660.17 0,0.01 0,0.01 0,0.01 0,0.01 0,0.01 0,0 0,0.01 0,0.01 0,0 0,0.01 0,0.01 0,0 0,0.01 0,0 0,0.01 0,0.01 -0.01,0 0,0.01 0,0 0,0.01 0,0.01 -0.01,0.01 0,0 -0.01,0.01 0,0 -0.01,0.01 0,0 -0.01,0.01 -0.01,0 0,0 -0.01,0 -0.01,0.01 -0.01,0 0,0 -0.01,0 0,0 -0.01,0 -0.01,0 0,0 -0.01,0 -0.01,0 0,0 -0.01,0 -0.01,0 -0.01,0 0,0 -0.01,0 -0.01,0 -0.01,0 -0.01,0 c -0.44,-0.44 -1.08,-0.45 -1.36,-0.45 l 0,-0.25 c 0.16,0 0.62,0 1.01,0.2 l 0,-3.56 c 0,-0.23 0,-0.32 -0.7,-0.32 l -0.27,0 0,-0.25 c 0.13,0.01 0.99,0.03 1.25,0.03 0.21,0 1.09,-0.02 1.24,-0.03 l 0,0.25 -0.26,0 c -0.7,0 -0.7,0.09 -0.7,0.32 z"
           id="path11352" /><path
           style="fill:#000000;stroke-width:0"
           inkscape:connector-curvature="0"
           d="m 257.23,660.24 0,0.03 0.01,0.03 0.01,0.03 0.01,0.04 0.01,0.03 0.01,0.05 0.01,0.04 0.02,0.04 0.01,0.05 0.02,0.05 0.02,0.05 0.02,0.05 0.02,0.05 0.03,0.05 0.02,0.05 0.03,0.05 0.03,0.04 0.03,0.05 0.03,0.05 0.04,0.04 0.04,0.05 0.04,0.04 0.04,0.03 0.04,0.04 0.05,0.03 0.05,0.03 0.02,0.01 0.03,0.02 0.02,0.01 0.03,0.01 0.03,0.01 0.03,0 0.03,0.01 0.03,0.01 0.03,0 0.03,0 0.03,0.01 0.03,0 c 0.05,0 0.29,0 0.5,-0.13 -0.28,-0.05 -0.48,-0.3 -0.48,-0.54 0,-0.16 0.11,-0.35 0.38,-0.35 0.22,0 0.54,0.18 0.54,0.58 0,0.52 -0.59,0.66 -0.93,0.66 -0.58,0 -0.92,-0.53 -1.05,-0.76 -0.24,0.66 -0.78,0.76 -1.07,0.76 -1.04,0 -1.61,-1.29 -1.61,-1.54 0,-0.1 0.11,-0.1 0.13,-0.1 0.08,0 0.1,0.02 0.12,0.11 0.34,1.06 1,1.31 1.34,1.31 0.19,0 0.54,-0.09 0.54,-0.67 0,-0.31 -0.17,-0.98 -0.54,-2.37 -0.16,-0.62 -0.51,-1.04 -0.95,-1.04 -0.06,0 -0.29,0 -0.5,0.13 0.25,0.05 0.47,0.26 0.47,0.54 0,0.27 -0.22,0.35 -0.37,0.35 -0.3,0 -0.54,-0.26 -0.54,-0.58 0,-0.46 0.49,-0.66 0.93,-0.66 0.66,0 1.02,0.7 1.05,0.76 0.12,-0.37 0.48,-0.76 1.07,-0.76 1.03,0 1.6,1.29 1.6,1.54 0,0.1 -0.09,0.1 -0.12,0.1 -0.09,0 -0.11,-0.04 -0.13,-0.11 -0.33,-1.07 -1.01,-1.31 -1.32,-1.31 -0.39,0 -0.55,0.32 -0.55,0.66 0,0.22 0.06,0.44 0.17,0.88 z"
           id="path11354" /><path
           style="fill:#000000;stroke-width:0"
           inkscape:connector-curvature="0"
           d="m 265.89,659.52 2.77,0 c 0.14,0 0.33,0 0.33,0.2 0,0.2 -0.19,0.2 -0.33,0.2 l -2.77,0 0,2.79 c 0,0.14 0,0.33 -0.21,0.33 -0.19,0 -0.19,-0.19 -0.19,-0.33 l 0,-2.79 -2.79,0 c -0.14,0 -0.33,0 -0.33,-0.2 0,-0.2 0.19,-0.2 0.33,-0.2 l 2.79,0 0,-2.79 c 0,-0.14 0,-0.32 0.19,-0.32 0.21,0 0.21,0.18 0.21,0.32 z"
           id="path11356" /><path
           style="fill:#000000;stroke-width:0"
           inkscape:connector-curvature="0"
           d="m 276.3,662.21 0,0.07 0,0.07 0,0.07 -0.01,0.07 0,0.08 -0.01,0.08 -0.01,0.08 -0.01,0.08 -0.01,0.08 -0.02,0.09 -0.02,0.08 -0.02,0.09 -0.02,0.08 -0.02,0.09 -0.03,0.08 -0.03,0.08 -0.04,0.08 -0.03,0.08 -0.04,0.07 -0.05,0.07 -0.04,0.07 -0.05,0.06 -0.06,0.06 -0.06,0.06 -0.06,0.05 -0.03,0.02 -0.03,0.02 -0.04,0.02 -0.04,0.02 -0.03,0.02 -0.04,0.02 -0.04,0.01 -0.04,0.01 -0.04,0.01 -0.04,0.01 -0.05,0.01 -0.04,0 -0.05,0 -0.04,0.01 -0.01,-0.22 c 0.49,0 0.54,-0.64 0.54,-1.21 0,-0.49 -0.07,-0.99 -0.31,-1.98 l -2.09,0 c 0.17,0.64 0.37,1.43 0.77,2.14 0.27,0.49 0.64,1.05 1.09,1.05 l 0.01,0.22 c -1.39,0 -2.92,-2.81 -2.92,-5.1 0,-0.93 0.29,-2.04 1.19,-2.04 l 0,0.22 c -0.33,0 -0.53,0.29 -0.53,1.22 0,0.42 0.06,0.99 0.32,1.97 l 2.07,0 c -0.11,-0.46 -0.32,-1.31 -0.7,-2.02 -0.35,-0.68 -0.73,-1.17 -1.16,-1.17 l 0,-0.22 c 1.41,0 2.92,2.86 2.92,5.09 z"
           id="path11358" /><path
           style="fill:#000000;stroke-width:0"
           inkscape:connector-curvature="0"
           d="m 279.97,657.01 -0.24,0 c -0.02,-0.15 -0.09,-0.57 -0.18,-0.63 -0.05,-0.05 -0.59,-0.05 -0.69,-0.05 l -1.28,0 c 0.73,0.65 0.98,0.85 1.4,1.17 0.51,0.42 0.99,0.85 0.99,1.51 0,0.84 -0.74,1.36 -1.63,1.36 -0.86,0 -1.45,-0.61 -1.45,-1.25 0,-0.35 0.3,-0.39 0.37,-0.39 0.17,0 0.37,0.12 0.37,0.37 0,0.13 -0.05,0.37 -0.41,0.37 0.21,0.5 0.69,0.65 1.01,0.65 0.7,0 1.07,-0.54 1.07,-1.11 0,-0.61 -0.44,-1.09 -0.66,-1.34 l -1.68,-1.66 c -0.07,-0.06 -0.07,-0.08 -0.07,-0.27 l 2.87,0 z"
           id="path11360" /><path
           style="fill:#000000;stroke-width:0"
           inkscape:connector-curvature="0"
           d="m 284.25,660.24 0,0.03 0.01,0.03 0.01,0.03 0.01,0.04 0.01,0.03 0.01,0.05 0.01,0.04 0.02,0.04 0.01,0.05 0.02,0.05 0.02,0.05 0.02,0.05 0.02,0.05 0.03,0.05 0.02,0.05 0.03,0.05 0.03,0.04 0.03,0.05 0.04,0.05 0.03,0.04 0.04,0.05 0.04,0.04 0.04,0.03 0.04,0.04 0.05,0.03 0.05,0.03 0.02,0.01 0.03,0.02 0.03,0.01 0.02,0.01 0.03,0.01 0.03,0 0.03,0.01 0.03,0.01 0.03,0 0.03,0 0.03,0.01 0.03,0 c 0.05,0 0.29,0 0.5,-0.13 -0.28,-0.05 -0.48,-0.3 -0.48,-0.54 0,-0.16 0.11,-0.35 0.38,-0.35 0.22,0 0.54,0.18 0.54,0.58 0,0.52 -0.59,0.66 -0.93,0.66 -0.57,0 -0.92,-0.53 -1.04,-0.76 -0.25,0.66 -0.79,0.76 -1.08,0.76 -1.03,0 -1.6,-1.29 -1.6,-1.54 0,-0.1 0.1,-0.1 0.12,-0.1 0.08,0 0.11,0.02 0.13,0.11 0.34,1.06 0.99,1.31 1.33,1.31 0.19,0 0.54,-0.09 0.54,-0.67 0,-0.31 -0.17,-0.98 -0.54,-2.37 -0.16,-0.62 -0.51,-1.04 -0.95,-1.04 -0.05,0 -0.28,0 -0.49,0.13 0.25,0.05 0.46,0.26 0.46,0.54 0,0.27 -0.21,0.35 -0.36,0.35 -0.3,0 -0.55,-0.26 -0.55,-0.58 0,-0.46 0.5,-0.66 0.93,-0.66 0.66,0 1.02,0.7 1.05,0.76 0.12,-0.37 0.48,-0.76 1.08,-0.76 1.02,0 1.59,1.29 1.59,1.54 0,0.1 -0.09,0.1 -0.12,0.1 -0.09,0 -0.11,-0.04 -0.13,-0.11 -0.33,-1.07 -1,-1.31 -1.32,-1.31 -0.39,0 -0.55,0.32 -0.55,0.66 0,0.22 0.06,0.44 0.17,0.88 z"
           id="path11362" /><path
           style="fill:#000000;stroke-width:0"
           inkscape:connector-curvature="0"
           d="m 290.13,662.12 -0.23,0 c -0.02,-0.16 -0.09,-0.57 -0.18,-0.64 -0.06,-0.04 -0.6,-0.04 -0.7,-0.04 l -1.28,0 c 0.74,0.65 0.98,0.84 1.4,1.17 0.51,0.41 0.99,0.85 0.99,1.51 0,0.84 -0.74,1.36 -1.63,1.36 -0.86,0 -1.45,-0.61 -1.45,-1.25 0,-0.36 0.3,-0.39 0.37,-0.39 0.17,0 0.37,0.12 0.37,0.37 0,0.12 -0.05,0.37 -0.41,0.37 0.22,0.49 0.69,0.65 1.02,0.65 0.7,0 1.06,-0.55 1.06,-1.11 0,-0.61 -0.44,-1.09 -0.66,-1.34 l -1.68,-1.66 c -0.07,-0.06 -0.07,-0.08 -0.07,-0.27 l 2.87,0 z"
           id="path11364" /><path
           style="fill:#000000;stroke-width:0"
           inkscape:connector-curvature="0"
           d="m 297.37,659.52 2.78,0 c 0.14,0 0.33,0 0.33,0.2 0,0.2 -0.19,0.2 -0.33,0.2 l -2.78,0 0,2.79 c 0,0.14 0,0.33 -0.2,0.33 -0.2,0 -0.2,-0.19 -0.2,-0.33 l 0,-2.79 -2.79,0 c -0.14,0 -0.33,0 -0.33,-0.2 0,-0.2 0.19,-0.2 0.33,-0.2 l 2.79,0 0,-2.79 c 0,-0.14 0,-0.32 0.2,-0.32 0.2,0 0.2,0.18 0.2,0.32 z"
           id="path11366" /><path
           style="fill:#000000;stroke-width:0"
           inkscape:connector-curvature="0"
           d="m 307.79,662.21 0,0.07 0,0.07 -0.01,0.07 0,0.07 -0.01,0.08 -0.01,0.08 0,0.08 -0.02,0.08 -0.01,0.08 -0.01,0.09 -0.02,0.08 -0.02,0.09 -0.02,0.08 -0.03,0.09 -0.03,0.08 -0.03,0.08 -0.03,0.08 -0.04,0.08 -0.04,0.07 -0.04,0.07 -0.05,0.07 -0.05,0.06 -0.05,0.06 -0.06,0.06 -0.06,0.05 -0.04,0.02 -0.03,0.02 -0.03,0.02 -0.04,0.02 -0.04,0.02 -0.03,0.02 -0.04,0.01 -0.04,0.01 -0.04,0.01 -0.05,0.01 -0.04,0.01 -0.05,0 -0.04,0 -0.05,0.01 -0.01,-0.22 c 0.49,0 0.55,-0.64 0.55,-1.21 0,-0.49 -0.08,-0.99 -0.32,-1.98 l -2.08,0 c 0.17,0.64 0.37,1.43 0.77,2.14 0.27,0.49 0.63,1.05 1.08,1.05 l 0.01,0.22 c -1.38,0 -2.92,-2.81 -2.92,-5.1 0,-0.93 0.29,-2.04 1.2,-2.04 l 0,0.22 c -0.33,0 -0.54,0.29 -0.54,1.22 0,0.42 0.06,0.99 0.32,1.97 l 2.07,0 c -0.11,-0.46 -0.32,-1.31 -0.7,-2.02 -0.34,-0.68 -0.72,-1.17 -1.15,-1.17 l 0,-0.22 c 1.4,0 2.92,2.86 2.92,5.09 z"
           id="path11368" /><path
           style="fill:#000000;stroke-width:0"
           inkscape:connector-curvature="0"
           d="m 309.84,658.07 0.05,0 0.05,-0.01 0.05,0 0.05,-0.01 0.04,-0.01 0.05,-0.01 0.04,-0.01 0.04,-0.02 0.05,-0.02 0.04,-0.02 0.04,-0.02 0.03,-0.03 0.04,-0.03 0.03,-0.03 0.04,-0.03 0.03,-0.03 0.03,-0.04 0.03,-0.04 0.03,-0.04 0.02,-0.04 0.02,-0.05 0.03,-0.04 0.02,-0.05 0.01,-0.05 0.02,-0.06 0.01,-0.05 0.02,-0.06 0.01,-0.06 0,-0.06 0.01,-0.07 0,-0.07 0,-0.06 c 0,-0.87 -0.5,-1.13 -0.9,-1.13 -0.28,0 -0.9,0.08 -1.19,0.49 0.33,0.02 0.41,0.25 0.41,0.39 0,0.23 -0.17,0.39 -0.39,0.39 -0.19,0 -0.39,-0.12 -0.39,-0.41 0,-0.65 0.73,-1.08 1.57,-1.08 0.97,0 1.64,0.65 1.64,1.35 0,0.54 -0.45,1.08 -1.21,1.25 0.73,0.26 0.99,0.78 0.99,1.21 0,0.55 -0.63,0.96 -1.41,0.96 -0.77,0 -1.36,-0.38 -1.36,-0.93 0,-0.24 0.15,-0.37 0.36,-0.37 0.22,0 0.36,0.16 0.36,0.35 0,0.2 -0.14,0.35 -0.36,0.36 0.25,0.31 0.73,0.39 0.98,0.39 0.32,0 0.76,-0.15 0.76,-0.76 0,-0.3 -0.1,-0.62 -0.28,-0.83 -0.23,-0.27 -0.43,-0.28 -0.78,-0.3 -0.17,-0.01 -0.18,-0.01 -0.22,-0.02 -0.01,0 -0.07,-0.02 -0.07,-0.09 0,-0.1 0.06,-0.1 0.18,-0.1 z"
           id="path11370" /><path
           style="fill:#000000;stroke-width:0"
           inkscape:connector-curvature="0"
           d="m 315.73,660.24 0.01,0.03 0.01,0.03 0,0.03 0.01,0.04 0.01,0.03 0.02,0.05 0.01,0.04 0.01,0.04 0.02,0.05 0.02,0.05 0.02,0.05 0.02,0.05 0.02,0.05 0.02,0.05 0.03,0.05 0.03,0.05 0.03,0.04 0.03,0.05 0.03,0.05 0.04,0.04 0.03,0.05 0.04,0.04 0.04,0.03 0.05,0.04 0.05,0.03 0.04,0.03 0.03,0.01 0.03,0.02 0.02,0.01 0.03,0.01 0.03,0.01 0.02,0 0.03,0.01 0.03,0.01 0.03,0 0.03,0 0.04,0.01 0.03,0 c 0.05,0 0.29,0 0.5,-0.13 -0.28,-0.05 -0.48,-0.3 -0.48,-0.54 0,-0.16 0.11,-0.35 0.38,-0.35 0.22,0 0.53,0.18 0.53,0.58 0,0.52 -0.58,0.66 -0.92,0.66 -0.58,0 -0.93,-0.53 -1.05,-0.76 -0.25,0.66 -0.78,0.76 -1.07,0.76 -1.04,0 -1.61,-1.29 -1.61,-1.54 0,-0.1 0.1,-0.1 0.12,-0.1 0.08,0 0.11,0.02 0.13,0.11 0.34,1.06 1,1.31 1.34,1.31 0.19,0 0.53,-0.09 0.53,-0.67 0,-0.31 -0.17,-0.98 -0.53,-2.37 -0.16,-0.62 -0.51,-1.04 -0.95,-1.04 -0.06,0 -0.29,0 -0.5,0.13 0.25,0.05 0.47,0.26 0.47,0.54 0,0.27 -0.22,0.35 -0.37,0.35 -0.3,0 -0.55,-0.26 -0.55,-0.58 0,-0.46 0.5,-0.66 0.94,-0.66 0.66,0 1.02,0.7 1.05,0.76 0.12,-0.37 0.47,-0.76 1.07,-0.76 1.03,0 1.6,1.29 1.6,1.54 0,0.1 -0.09,0.1 -0.12,0.1 -0.09,0 -0.11,-0.04 -0.13,-0.11 -0.33,-1.07 -1.01,-1.31 -1.33,-1.31 -0.39,0 -0.55,0.32 -0.55,0.66 0,0.22 0.06,0.44 0.17,0.88 z"
           id="path11372" /><path
           style="fill:#000000;stroke-width:0"
           inkscape:connector-curvature="0"
           d="m 320,663.18 0.05,0 0.05,-0.01 0.05,0 0.05,-0.01 0.04,-0.01 0.05,-0.01 0.04,-0.02 0.05,-0.01 0.04,-0.02 0.04,-0.02 0.04,-0.03 0.04,-0.02 0.03,-0.03 0.04,-0.03 0.03,-0.03 0.03,-0.03 0.03,-0.04 0.03,-0.04 0.03,-0.04 0.02,-0.04 0.03,-0.05 0.02,-0.04 0.02,-0.05 0.02,-0.06 0.01,-0.05 0.02,-0.06 0.01,-0.05 0.01,-0.06 0.01,-0.07 0,-0.06 0,-0.07 0.01,-0.07 c 0,-0.86 -0.51,-1.12 -0.91,-1.12 -0.28,0 -0.89,0.08 -1.19,0.49 0.33,0.01 0.41,0.24 0.41,0.39 0,0.22 -0.17,0.38 -0.39,0.38 -0.19,0 -0.39,-0.11 -0.39,-0.4 0,-0.66 0.73,-1.08 1.57,-1.08 0.97,0 1.64,0.65 1.64,1.34 0,0.55 -0.44,1.09 -1.21,1.25 0.73,0.27 1,0.79 1,1.22 0,0.55 -0.64,0.96 -1.41,0.96 -0.78,0 -1.37,-0.38 -1.37,-0.94 0,-0.23 0.15,-0.37 0.36,-0.37 0.22,0 0.36,0.16 0.36,0.36 0,0.2 -0.14,0.35 -0.36,0.36 0.25,0.31 0.73,0.39 0.99,0.39 0.31,0 0.75,-0.16 0.75,-0.76 0,-0.3 -0.1,-0.62 -0.28,-0.83 -0.23,-0.27 -0.43,-0.28 -0.77,-0.3 -0.18,-0.02 -0.19,-0.02 -0.23,-0.03 -0.01,0 -0.07,-0.01 -0.07,-0.09 0,-0.09 0.07,-0.09 0.18,-0.09 z"
           id="path11374" /><path
           style="fill:#000000;stroke-width:0"
           inkscape:connector-curvature="0"
           d="m 328.86,659.52 2.77,0 c 0.14,0 0.33,0 0.33,0.2 0,0.2 -0.19,0.2 -0.33,0.2 l -2.77,0 0,2.79 c 0,0.14 0,0.33 -0.21,0.33 -0.19,0 -0.19,-0.19 -0.19,-0.33 l 0,-2.79 -2.79,0 c -0.14,0 -0.33,0 -0.33,-0.2 0,-0.2 0.19,-0.2 0.33,-0.2 l 2.79,0 0,-2.79 c 0,-0.14 0,-0.32 0.19,-0.32 0.21,0 0.21,0.18 0.21,0.32 z"
           id="path11376" /><path
           style="fill:#000000;stroke-width:0"
           inkscape:connector-curvature="0"
           d="m 339.28,662.21 0,0.07 0,0.07 -0.01,0.07 0,0.07 -0.01,0.08 0,0.08 -0.01,0.08 -0.01,0.08 -0.02,0.08 -0.01,0.09 -0.02,0.08 -0.02,0.09 -0.02,0.08 -0.03,0.09 -0.03,0.08 -0.03,0.08 -0.03,0.08 -0.04,0.08 -0.04,0.07 -0.04,0.07 -0.05,0.07 -0.05,0.06 -0.05,0.06 -0.06,0.06 -0.06,0.05 -0.03,0.02 -0.04,0.02 -0.03,0.02 -0.04,0.02 -0.03,0.02 -0.04,0.02 -0.04,0.01 -0.04,0.01 -0.04,0.01 -0.04,0.01 -0.05,0.01 -0.04,0 -0.05,0 -0.05,0.01 0,-0.22 c 0.48,0 0.54,-0.64 0.54,-1.21 0,-0.49 -0.08,-0.99 -0.32,-1.98 l -2.08,0 c 0.17,0.64 0.37,1.43 0.77,2.14 0.27,0.49 0.64,1.05 1.09,1.05 l 0,0.22 c -1.38,0 -2.91,-2.81 -2.91,-5.1 0,-0.93 0.28,-2.04 1.19,-2.04 l 0,0.22 c -0.33,0 -0.54,0.29 -0.54,1.22 0,0.42 0.06,0.99 0.32,1.97 l 2.07,0 c -0.1,-0.46 -0.31,-1.31 -0.69,-2.02 -0.35,-0.68 -0.73,-1.17 -1.16,-1.17 l 0,-0.22 c 1.41,0 2.92,2.86 2.92,5.09 z"
           id="path11378" /><path
           style="fill:#000000;stroke-width:0"
           inkscape:connector-curvature="0"
           d="m 343.11,656.88 0,0.26 -0.78,0 0,3.1 c 0,0.15 0,0.2 -0.15,0.2 -0.08,0 -0.11,0 -0.18,-0.1 l -2.31,-3.2 0,-0.26 2.05,0 0.05,0.26 -1.84,0 1.84,2.55 0,-2.55 -0.05,-0.26 0,-0.57 c 0,-0.23 0,-0.32 -0.56,-0.32 l -0.19,0 0,-0.25 c 0.35,0.01 0.79,0.03 1.05,0.03 0.25,0 0.7,-0.02 1.05,-0.03 l 0,0.25 -0.19,0 c -0.57,0 -0.57,0.09 -0.57,0.32 l 0,0.57 z"
           id="path11380" /><path
           style="fill:#000000;stroke-width:0"
           inkscape:connector-curvature="0"
           d="m 347.22,660.24 0,0.03 0.01,0.03 0.01,0.03 0.01,0.04 0.01,0.03 0.01,0.05 0.01,0.04 0.02,0.04 0.01,0.05 0.02,0.05 0.02,0.05 0.02,0.05 0.02,0.05 0.03,0.05 0.02,0.05 0.03,0.05 0.03,0.04 0.03,0.05 0.04,0.05 0.03,0.04 0.04,0.05 0.04,0.04 0.04,0.03 0.04,0.04 0.05,0.03 0.05,0.03 0.02,0.01 0.03,0.02 0.03,0.01 0.02,0.01 0.03,0.01 0.03,0 0.03,0.01 0.03,0.01 0.03,0 0.03,0 0.03,0.01 0.03,0 c 0.05,0 0.29,0 0.5,-0.13 -0.28,-0.05 -0.48,-0.3 -0.48,-0.54 0,-0.16 0.11,-0.35 0.38,-0.35 0.22,0 0.54,0.18 0.54,0.58 0,0.52 -0.59,0.66 -0.93,0.66 -0.57,0 -0.92,-0.53 -1.04,-0.76 -0.25,0.66 -0.79,0.76 -1.08,0.76 -1.03,0 -1.6,-1.29 -1.6,-1.54 0,-0.1 0.1,-0.1 0.12,-0.1 0.08,0 0.11,0.02 0.13,0.11 0.34,1.06 0.99,1.31 1.33,1.31 0.19,0 0.54,-0.09 0.54,-0.67 0,-0.31 -0.17,-0.98 -0.54,-2.37 -0.16,-0.62 -0.51,-1.04 -0.95,-1.04 -0.05,0 -0.28,0 -0.49,0.13 0.25,0.05 0.47,0.26 0.47,0.54 0,0.27 -0.22,0.35 -0.37,0.35 -0.3,0 -0.55,-0.26 -0.55,-0.58 0,-0.46 0.5,-0.66 0.93,-0.66 0.66,0 1.02,0.7 1.05,0.76 0.12,-0.37 0.48,-0.76 1.08,-0.76 1.02,0 1.59,1.29 1.59,1.54 0,0.1 -0.09,0.1 -0.12,0.1 -0.09,0 -0.11,-0.04 -0.13,-0.11 -0.33,-1.07 -1,-1.31 -1.32,-1.31 -0.39,0 -0.55,0.32 -0.55,0.66 0,0.22 0.06,0.44 0.17,0.88 z"
           id="path11382" /><path
           style="fill:#000000;stroke-width:0"
           inkscape:connector-curvature="0"
           d="m 353.27,661.99 0,0.25 -0.77,0 0,3.11 c 0,0.15 0,0.2 -0.16,0.2 -0.08,0 -0.11,0 -0.18,-0.1 l -2.31,-3.21 0,-0.25 2.05,0 0.05,0.25 -1.84,0 1.84,2.55 0,-2.55 -0.05,-0.25 0,-0.57 c 0,-0.24 0,-0.32 -0.56,-0.32 l -0.19,0 0,-0.25 c 0.35,0.01 0.8,0.03 1.05,0.03 0.26,0 0.7,-0.02 1.05,-0.03 l 0,0.25 -0.19,0 c -0.56,0 -0.56,0.08 -0.56,0.32 l 0,0.57 z"
           id="path11384" /></g>      <g
         style="font-style:normal;font-variant:normal;font-weight:normal;font-stretch:normal;letter-spacing:normal;word-spacing:normal;text-anchor:start;fill:none;fill-opacity:1;fill-rule:evenodd;stroke:#000000;stroke-linecap:butt;stroke-linejoin:miter;stroke-miterlimit:10.43299961;stroke-dasharray:none;stroke-dashoffset:0;stroke-opacity:1"
         id="content"
         transform="matrix(1,0,0,-1,-108.14791,727.15518)"
         xml:space="preserve"
         stroke-miterlimit="10.433"
         font-style="normal"
         font-variant="normal"
         font-weight="normal"
         font-stretch="normal"
         font-size-adjust="none"
         letter-spacing="normal"
         word-spacing="normal"
         ns0:text="$\\theta_0 + \\theta_1 x$"
         ns0:preamble=""><path
           style="fill:#000000;stroke-width:0"
           inkscape:connector-curvature="0"
           d="m 227.96,662.21 0,0.07 0,0.07 0,0.07 0,0.07 -0.01,0.08 -0.01,0.08 -0.01,0.08 -0.01,0.08 -0.01,0.08 -0.02,0.09 -0.02,0.08 -0.02,0.09 -0.02,0.08 -0.02,0.09 -0.03,0.08 -0.03,0.08 -0.04,0.08 -0.03,0.08 -0.04,0.07 -0.05,0.07 -0.04,0.07 -0.05,0.06 -0.06,0.06 -0.05,0.06 -0.07,0.05 -0.03,0.02 -0.03,0.02 -0.04,0.02 -0.03,0.02 -0.04,0.02 -0.04,0.02 -0.04,0.01 -0.04,0.01 -0.04,0.01 -0.04,0.01 -0.04,0.01 -0.05,0 -0.04,0 -0.05,0.01 -0.01,-0.22 c 0.49,0 0.55,-0.64 0.55,-1.21 0,-0.49 -0.08,-0.99 -0.32,-1.98 l -2.08,0 c 0.17,0.64 0.37,1.43 0.76,2.14 0.27,0.49 0.64,1.05 1.09,1.05 l 0.01,0.22 c -1.39,0 -2.92,-2.81 -2.92,-5.1 0,-0.93 0.29,-2.04 1.2,-2.04 l 0,0.22 c -0.33,0 -0.54,0.29 -0.54,1.22 0,0.42 0.06,0.99 0.32,1.97 l 2.07,0 c -0.11,-0.46 -0.32,-1.31 -0.7,-2.02 -0.35,-0.68 -0.72,-1.17 -1.15,-1.17 l 0,-0.22 c 1.4,0 2.91,2.86 2.91,5.09 z"
           id="path11092" /><path
           style="fill:#000000;stroke-width:0"
           inkscape:connector-curvature="0"
           d="m 231.71,657.97 0,0.14 0,0.13 -0.01,0.13 -0.01,0.13 -0.01,0.13 -0.01,0.11 -0.02,0.12 -0.02,0.11 -0.03,0.11 -0.03,0.11 -0.03,0.1 -0.04,0.1 -0.04,0.1 -0.05,0.09 -0.05,0.1 -0.03,0.05 -0.03,0.04 c -0.22,0.32 -0.65,0.6 -1.21,0.6 -1.61,0 -1.61,-1.9 -1.61,-2.4 0,-0.51 0,-2.37 1.61,-2.37 l 0,0.2 c -0.32,0 -0.74,0.18 -0.88,0.76 -0.1,0.41 -0.1,0.98 -0.1,1.49 0,0.51 0,1.04 0.1,1.43 0.15,0.55 0.6,0.69 0.88,0.69 0.38,0 0.74,-0.22 0.87,-0.63 0.11,-0.38 0.12,-0.88 0.12,-1.49 0,-0.51 0,-1.03 -0.09,-1.47 -0.14,-0.63 -0.62,-0.78 -0.9,-0.78 l 0,0 0,-0.2 c 1.62,0 1.62,1.86 1.62,2.37 z"
           id="path11094" /><path
           style="fill:#000000;stroke-width:0"
           inkscape:connector-curvature="0"
           d="m 238.87,659.52 2.78,0 c 0.14,0 0.33,0 0.33,0.2 0,0.2 -0.19,0.2 -0.33,0.2 l -2.78,0 0,2.79 c 0,0.14 0,0.33 -0.2,0.33 -0.2,0 -0.2,-0.19 -0.2,-0.33 l 0,-2.79 -2.79,0 c -0.14,0 -0.33,0 -0.33,-0.2 0,-0.2 0.19,-0.2 0.33,-0.2 l 2.79,0 0,-2.79 c 0,-0.14 0,-0.32 0.2,-0.32 0.2,0 0.2,0.18 0.2,0.32 z"
           id="path11096" /><path
           style="fill:#000000;stroke-width:0"
           inkscape:connector-curvature="0"
           d="m 249.29,662.21 0,0.07 0,0.07 -0.01,0.07 0,0.07 -0.01,0.08 -0.01,0.08 0,0.08 -0.02,0.08 -0.01,0.08 -0.01,0.09 -0.02,0.08 -0.02,0.09 -0.02,0.08 -0.03,0.09 -0.03,0.08 -0.03,0.08 -0.03,0.08 -0.04,0.08 -0.04,0.07 -0.04,0.07 -0.05,0.07 -0.05,0.06 -0.05,0.06 -0.06,0.06 -0.06,0.05 -0.04,0.02 -0.03,0.02 -0.03,0.02 -0.04,0.02 -0.04,0.02 -0.03,0.02 -0.04,0.01 -0.04,0.01 -0.04,0.01 -0.05,0.01 -0.04,0.01 -0.05,0 -0.04,0 -0.05,0.01 -0.01,-0.22 c 0.49,0 0.55,-0.64 0.55,-1.21 0,-0.49 -0.08,-0.99 -0.32,-1.98 l -2.08,0 c 0.17,0.64 0.37,1.43 0.77,2.14 0.27,0.49 0.63,1.05 1.08,1.05 l 0.01,0.22 c -1.38,0 -2.92,-2.81 -2.92,-5.1 0,-0.93 0.29,-2.04 1.2,-2.04 l 0,0.22 c -0.33,0 -0.54,0.29 -0.54,1.22 0,0.42 0.06,0.99 0.32,1.97 l 2.07,0 c -0.11,-0.46 -0.32,-1.31 -0.7,-2.02 -0.34,-0.68 -0.72,-1.17 -1.15,-1.17 l 0,-0.22 c 1.4,0 2.92,2.86 2.92,5.09 z"
           id="path11098" /><path
           style="fill:#000000;stroke-width:0"
           inkscape:connector-curvature="0"
           d="m 251.77,660.17 0,0.01 0,0.01 0,0.01 0,0.01 0,0.01 0,0 0,0.01 0,0.01 0,0 0,0.01 0,0.01 0,0 0,0.01 0,0 0,0.01 0,0.01 -0.01,0 0,0.01 0,0 0,0.01 0,0.01 -0.01,0.01 0,0 -0.01,0.01 0,0 -0.01,0.01 0,0 -0.01,0.01 -0.01,0 0,0 -0.01,0 -0.01,0.01 -0.01,0 0,0 -0.01,0 0,0 -0.01,0 -0.01,0 0,0 -0.01,0 -0.01,0 0,0 -0.01,0 -0.01,0 -0.01,0 0,0 -0.01,0 -0.01,0 -0.01,0 -0.01,0 c -0.44,-0.44 -1.08,-0.45 -1.36,-0.45 l 0,-0.25 c 0.16,0 0.62,0 1.01,0.2 l 0,-3.56 c 0,-0.23 0,-0.32 -0.7,-0.32 l -0.27,0 0,-0.25 c 0.13,0.01 0.99,0.03 1.25,0.03 0.21,0 1.09,-0.02 1.24,-0.03 l 0,0.25 -0.26,0 c -0.7,0 -0.7,0.09 -0.7,0.32 z"
           id="path11100" /><path
           style="fill:#000000;stroke-width:0"
           inkscape:connector-curvature="0"
           d="m 257.23,660.24 0,0.03 0.01,0.03 0.01,0.03 0.01,0.04 0.01,0.03 0.01,0.05 0.01,0.04 0.02,0.04 0.01,0.05 0.02,0.05 0.02,0.05 0.02,0.05 0.02,0.05 0.03,0.05 0.02,0.05 0.03,0.05 0.03,0.04 0.03,0.05 0.03,0.05 0.04,0.04 0.04,0.05 0.04,0.04 0.04,0.03 0.04,0.04 0.05,0.03 0.05,0.03 0.02,0.01 0.03,0.02 0.02,0.01 0.03,0.01 0.03,0.01 0.03,0 0.03,0.01 0.03,0.01 0.03,0 0.03,0 0.03,0.01 0.03,0 c 0.05,0 0.29,0 0.5,-0.13 -0.28,-0.05 -0.48,-0.3 -0.48,-0.54 0,-0.16 0.11,-0.35 0.38,-0.35 0.22,0 0.54,0.18 0.54,0.58 0,0.52 -0.59,0.66 -0.93,0.66 -0.58,0 -0.92,-0.53 -1.05,-0.76 -0.24,0.66 -0.78,0.76 -1.07,0.76 -1.04,0 -1.61,-1.29 -1.61,-1.54 0,-0.1 0.11,-0.1 0.13,-0.1 0.08,0 0.1,0.02 0.12,0.11 0.34,1.06 1,1.31 1.34,1.31 0.19,0 0.54,-0.09 0.54,-0.67 0,-0.31 -0.17,-0.98 -0.54,-2.37 -0.16,-0.62 -0.51,-1.04 -0.95,-1.04 -0.06,0 -0.29,0 -0.5,0.13 0.25,0.05 0.47,0.26 0.47,0.54 0,0.27 -0.22,0.35 -0.37,0.35 -0.3,0 -0.54,-0.26 -0.54,-0.58 0,-0.46 0.49,-0.66 0.93,-0.66 0.66,0 1.02,0.7 1.05,0.76 0.12,-0.37 0.48,-0.76 1.07,-0.76 1.03,0 1.6,1.29 1.6,1.54 0,0.1 -0.09,0.1 -0.12,0.1 -0.09,0 -0.11,-0.04 -0.13,-0.11 -0.33,-1.07 -1.01,-1.31 -1.32,-1.31 -0.39,0 -0.55,0.32 -0.55,0.66 0,0.22 0.06,0.44 0.17,0.88 z"
           id="path11102" /></g>      <g
         transform="translate(-8.0812204,20.20305)"
         id="g11727">
        <path
           inkscape:connector-curvature="0"
           id="path9920"
           d="m 74.04061,65.016296 0,117.142854 135.71429,0"
           style="fill:none;fill-rule:evenodd;stroke:#000000;stroke-width:1px;stroke-linecap:butt;stroke-linejoin:miter;stroke-opacity:1" />
        <g
           id="g7098"
           transform="matrix(0.66533116,0,0,0.66533116,61.261075,4.748648)">
          <path
             inkscape:connector-curvature="0"
             id="path7100"
             d="m 54.548237,233.12849 c -5.192154,4.3268 -1.19627,0.4626 -5.555839,6.56599 -0.764284,1.07 -1.692721,2.01276 -2.525381,3.03046 -0.682644,0.83434 -1.310422,1.71409 -2.020305,2.52538 -4.684167,5.35333 0.334088,-1.00621 -2.020305,2.52538 -0.624124,0.93619 -0.505076,0.0463 -0.505076,1.01015"
             style="fill:none;fill-rule:evenodd;stroke:#ff0000;stroke-width:3;stroke-linecap:butt;stroke-linejoin:miter;stroke-miterlimit:4;stroke-dasharray:none;stroke-opacity:1" />
          <path
             inkscape:connector-curvature="0"
             id="path7102"
             d="m 36.870568,232.11834 c 2.653734,2.06727 5.341365,4.10387 8.08122,6.06091 0.493958,0.35283 1.048899,0.62155 1.515229,1.01016 0.54873,0.45727 0.966499,1.05795 1.515229,1.51522 0.932661,0.77722 2.020305,1.34687 3.030458,2.02031 1.62688,1.08459 2.1915,1.68642 3.535533,3.03046 0.168359,0.16836 0.292118,0.39859 0.505077,0.50507 0.673435,0.33672 0.505076,-0.50507 0.505076,0.50508"
             style="fill:none;fill-rule:evenodd;stroke:#ff0000;stroke-width:3;stroke-linecap:butt;stroke-linejoin:miter;stroke-miterlimit:4;stroke-dasharray:none;stroke-opacity:1" />
        </g>
        <g
           transform="matrix(0.66533116,0,0,0.66533116,70.663183,-24.235041)"
           id="g10986">
          <path
             style="fill:none;fill-rule:evenodd;stroke:#ff0000;stroke-width:3;stroke-linecap:butt;stroke-linejoin:miter;stroke-miterlimit:4;stroke-dasharray:none;stroke-opacity:1"
             d="m 54.548237,233.12849 c -5.192154,4.3268 -1.19627,0.4626 -5.555839,6.56599 -0.764284,1.07 -1.692721,2.01276 -2.525381,3.03046 -0.682644,0.83434 -1.310422,1.71409 -2.020305,2.52538 -4.684167,5.35333 0.334088,-1.00621 -2.020305,2.52538 -0.624124,0.93619 -0.505076,0.0463 -0.505076,1.01015"
             id="path10988"
             inkscape:connector-curvature="0" />
          <path
             style="fill:none;fill-rule:evenodd;stroke:#ff0000;stroke-width:3;stroke-linecap:butt;stroke-linejoin:miter;stroke-miterlimit:4;stroke-dasharray:none;stroke-opacity:1"
             d="m 36.870568,232.11834 c 2.653734,2.06727 5.341365,4.10387 8.08122,6.06091 0.493958,0.35283 1.048899,0.62155 1.515229,1.01016 0.54873,0.45727 0.966499,1.05795 1.515229,1.51522 0.932661,0.77722 2.020305,1.34687 3.030458,2.02031 1.62688,1.08459 2.1915,1.68642 3.535533,3.03046 0.168359,0.16836 0.292118,0.39859 0.505077,0.50507 0.673435,0.33672 0.505076,-0.50507 0.505076,0.50508"
             id="path10990"
             inkscape:connector-curvature="0" />
        </g>
        <g
           id="g10992"
           transform="matrix(0.66533116,0,0,0.66533116,129.32998,-84.285804)">
          <path
             inkscape:connector-curvature="0"
             id="path10994"
             d="m 54.548237,233.12849 c -5.192154,4.3268 -1.19627,0.4626 -5.555839,6.56599 -0.764284,1.07 -1.692721,2.01276 -2.525381,3.03046 -0.682644,0.83434 -1.310422,1.71409 -2.020305,2.52538 -4.684167,5.35333 0.334088,-1.00621 -2.020305,2.52538 -0.624124,0.93619 -0.505076,0.0463 -0.505076,1.01015"
             style="fill:none;fill-rule:evenodd;stroke:#ff0000;stroke-width:3;stroke-linecap:butt;stroke-linejoin:miter;stroke-miterlimit:4;stroke-dasharray:none;stroke-opacity:1" />
          <path
             inkscape:connector-curvature="0"
             id="path10996"
             d="m 36.870568,232.11834 c 2.653734,2.06727 5.341365,4.10387 8.08122,6.06091 0.493958,0.35283 1.048899,0.62155 1.515229,1.01016 0.54873,0.45727 0.966499,1.05795 1.515229,1.51522 0.932661,0.77722 2.020305,1.34687 3.030458,2.02031 1.62688,1.08459 2.1915,1.68642 3.535533,3.03046 0.168359,0.16836 0.292118,0.39859 0.505077,0.50507 0.673435,0.33672 0.505076,-0.50507 0.505076,0.50508"
             style="fill:none;fill-rule:evenodd;stroke:#ff0000;stroke-width:3;stroke-linecap:butt;stroke-linejoin:miter;stroke-miterlimit:4;stroke-dasharray:none;stroke-opacity:1" />
        </g>
        <g
           transform="matrix(0.66533116,0,0,0.66533116,101.16029,-69.972904)"
           id="g10998">
          <path
             style="fill:none;fill-rule:evenodd;stroke:#ff0000;stroke-width:3;stroke-linecap:butt;stroke-linejoin:miter;stroke-miterlimit:4;stroke-dasharray:none;stroke-opacity:1"
             d="m 54.548237,233.12849 c -5.192154,4.3268 -1.19627,0.4626 -5.555839,6.56599 -0.764284,1.07 -1.692721,2.01276 -2.525381,3.03046 -0.682644,0.83434 -1.310422,1.71409 -2.020305,2.52538 -4.684167,5.35333 0.334088,-1.00621 -2.020305,2.52538 -0.624124,0.93619 -0.505076,0.0463 -0.505076,1.01015"
             id="path11000"
             inkscape:connector-curvature="0" />
          <path
             style="fill:none;fill-rule:evenodd;stroke:#ff0000;stroke-width:3;stroke-linecap:butt;stroke-linejoin:miter;stroke-miterlimit:4;stroke-dasharray:none;stroke-opacity:1"
             d="m 36.870568,232.11834 c 2.653734,2.06727 5.341365,4.10387 8.08122,6.06091 0.493958,0.35283 1.048899,0.62155 1.515229,1.01016 0.54873,0.45727 0.966499,1.05795 1.515229,1.51522 0.932661,0.77722 2.020305,1.34687 3.030458,2.02031 1.62688,1.08459 2.1915,1.68642 3.535533,3.03046 0.168359,0.16836 0.292118,0.39859 0.505077,0.50507 0.673435,0.33672 0.505076,-0.50507 0.505076,0.50508"
             id="path11002"
             inkscape:connector-curvature="0" />
        </g>
        <g
           transform="matrix(0.66533116,0,0,0.66533116,190.78393,-85.355427)"
           id="g11010">
          <path
             style="fill:none;fill-rule:evenodd;stroke:#ff0000;stroke-width:3;stroke-linecap:butt;stroke-linejoin:miter;stroke-miterlimit:4;stroke-dasharray:none;stroke-opacity:1"
             d="m 54.548237,233.12849 c -5.192154,4.3268 -1.19627,0.4626 -5.555839,6.56599 -0.764284,1.07 -1.692721,2.01276 -2.525381,3.03046 -0.682644,0.83434 -1.310422,1.71409 -2.020305,2.52538 -4.684167,5.35333 0.334088,-1.00621 -2.020305,2.52538 -0.624124,0.93619 -0.505076,0.0463 -0.505076,1.01015"
             id="path11012"
             inkscape:connector-curvature="0" />
          <path
             style="fill:none;fill-rule:evenodd;stroke:#ff0000;stroke-width:3;stroke-linecap:butt;stroke-linejoin:miter;stroke-miterlimit:4;stroke-dasharray:none;stroke-opacity:1"
             d="m 36.870568,232.11834 c 2.653734,2.06727 5.341365,4.10387 8.08122,6.06091 0.493958,0.35283 1.048899,0.62155 1.515229,1.01016 0.54873,0.45727 0.966499,1.05795 1.515229,1.51522 0.932661,0.77722 2.020305,1.34687 3.030458,2.02031 1.62688,1.08459 2.1915,1.68642 3.535533,3.03046 0.168359,0.16836 0.292118,0.39859 0.505077,0.50507 0.673435,0.33672 0.505076,-0.50507 0.505076,0.50508"
             id="path11014"
             inkscape:connector-curvature="0" />
        </g>
        <g
           transform="matrix(0.66533116,0,0,0.66533116,157.23353,-75.674126)"
           id="g11016">
          <path
             style="fill:none;fill-rule:evenodd;stroke:#ff0000;stroke-width:3;stroke-linecap:butt;stroke-linejoin:miter;stroke-miterlimit:4;stroke-dasharray:none;stroke-opacity:1"
             d="m 54.548237,233.12849 c -5.192154,4.3268 -1.19627,0.4626 -5.555839,6.56599 -0.764284,1.07 -1.692721,2.01276 -2.525381,3.03046 -0.682644,0.83434 -1.310422,1.71409 -2.020305,2.52538 -4.684167,5.35333 0.334088,-1.00621 -2.020305,2.52538 -0.624124,0.93619 -0.505076,0.0463 -0.505076,1.01015"
             id="path11018"
             inkscape:connector-curvature="0" />
          <path
             style="fill:none;fill-rule:evenodd;stroke:#ff0000;stroke-width:3;stroke-linecap:butt;stroke-linejoin:miter;stroke-miterlimit:4;stroke-dasharray:none;stroke-opacity:1"
             d="m 36.870568,232.11834 c 2.653734,2.06727 5.341365,4.10387 8.08122,6.06091 0.493958,0.35283 1.048899,0.62155 1.515229,1.01016 0.54873,0.45727 0.966499,1.05795 1.515229,1.51522 0.932661,0.77722 2.020305,1.34687 3.030458,2.02031 1.62688,1.08459 2.1915,1.68642 3.535533,3.03046 0.168359,0.16836 0.292118,0.39859 0.505077,0.50507 0.673435,0.33672 0.505076,-0.50507 0.505076,0.50508"
             id="path11020"
             inkscape:connector-curvature="0" />
        </g>
        <g
           id="g11028"
           transform="matrix(0.66533116,0,0,0.66533116,87.681684,-39.127357)">
          <path
             inkscape:connector-curvature="0"
             id="path11030"
             d="m 54.548237,233.12849 c -5.192154,4.3268 -1.19627,0.4626 -5.555839,6.56599 -0.764284,1.07 -1.692721,2.01276 -2.525381,3.03046 -0.682644,0.83434 -1.310422,1.71409 -2.020305,2.52538 -4.684167,5.35333 0.334088,-1.00621 -2.020305,2.52538 -0.624124,0.93619 -0.505076,0.0463 -0.505076,1.01015"
             style="fill:none;fill-rule:evenodd;stroke:#ff0000;stroke-width:3;stroke-linecap:butt;stroke-linejoin:miter;stroke-miterlimit:4;stroke-dasharray:none;stroke-opacity:1" />
          <path
             inkscape:connector-curvature="0"
             id="path11032"
             d="m 36.870568,232.11834 c 2.653734,2.06727 5.341365,4.10387 8.08122,6.06091 0.493958,0.35283 1.048899,0.62155 1.515229,1.01016 0.54873,0.45727 0.966499,1.05795 1.515229,1.51522 0.932661,0.77722 2.020305,1.34687 3.030458,2.02031 1.62688,1.08459 2.1915,1.68642 3.535533,3.03046 0.168359,0.16836 0.292118,0.39859 0.505077,0.50507 0.673435,0.33672 0.505076,-0.50507 0.505076,0.50508"
             style="fill:none;fill-rule:evenodd;stroke:#ff0000;stroke-width:3;stroke-linecap:butt;stroke-linejoin:miter;stroke-miterlimit:4;stroke-dasharray:none;stroke-opacity:1" />
        </g>
        <g
           id="g11034"
           transform="matrix(0.66533116,0,0,0.66533116,203.91591,-73.233596)">
          <path
             inkscape:connector-curvature="0"
             id="path11036"
             d="m 54.548237,233.12849 c -5.192154,4.3268 -1.19627,0.4626 -5.555839,6.56599 -0.764284,1.07 -1.692721,2.01276 -2.525381,3.03046 -0.682644,0.83434 -1.310422,1.71409 -2.020305,2.52538 -4.684167,5.35333 0.334088,-1.00621 -2.020305,2.52538 -0.624124,0.93619 -0.505076,0.0463 -0.505076,1.01015"
             style="fill:none;fill-rule:evenodd;stroke:#ff0000;stroke-width:3;stroke-linecap:butt;stroke-linejoin:miter;stroke-miterlimit:4;stroke-dasharray:none;stroke-opacity:1" />
          <path
             inkscape:connector-curvature="0"
             id="path11038"
             d="m 36.870568,232.11834 c 2.653734,2.06727 5.341365,4.10387 8.08122,6.06091 0.493958,0.35283 1.048899,0.62155 1.515229,1.01016 0.54873,0.45727 0.966499,1.05795 1.515229,1.51522 0.932661,0.77722 2.020305,1.34687 3.030458,2.02031 1.62688,1.08459 2.1915,1.68642 3.535533,3.03046 0.168359,0.16836 0.292118,0.39859 0.505077,0.50507 0.673435,0.33672 0.505076,-0.50507 0.505076,0.50508"
             style="fill:none;fill-rule:evenodd;stroke:#ff0000;stroke-width:3;stroke-linecap:butt;stroke-linejoin:miter;stroke-miterlimit:4;stroke-dasharray:none;stroke-opacity:1" />
        </g>
        <text
           xml:space="preserve"
           style="font-style:normal;font-weight:normal;font-size:11.64967728px;line-height:125%;font-family:Sans;text-align:start;letter-spacing:0px;word-spacing:0px;text-anchor:start;fill:#000000;fill-opacity:1;stroke:none;stroke-width:1px;stroke-linecap:butt;stroke-linejoin:miter;stroke-opacity:1"
           x="116.63644"
           y="198.49991"
           id="text11457"
           sodipodi:linespacing="125%"><tspan
             sodipodi:role="line"
             id="tspan11459"
             x="116.63644"
             y="198.49991">Cat weight</tspan></text>
        <text
           sodipodi:linespacing="125%"
           id="text11461"
           y="111.62679"
           x="26.732855"
           style="font-style:normal;font-weight:normal;font-size:11.64967728px;line-height:125%;font-family:Sans;text-align:start;letter-spacing:0px;word-spacing:0px;text-anchor:start;fill:#000000;fill-opacity:1;stroke:none;stroke-width:1px;stroke-linecap:butt;stroke-linejoin:miter;stroke-opacity:1"
           xml:space="preserve"><tspan
             y="111.62679"
             x="26.732855"
             id="tspan11463"
             sodipodi:role="line">Cat tail</tspan><tspan
             y="126.18889"
             x="26.732855"
             sodipodi:role="line"
             id="tspan11465">length</tspan></text>
      </g>
      <g
         id="g11587">
        <path
           style="fill:none;fill-rule:evenodd;stroke:#000000;stroke-width:1px;stroke-linecap:butt;stroke-linejoin:miter;stroke-opacity:1"
           d="m 306.3757,85.219347 0,117.142853 135.71429,0"
           id="path11467"
           inkscape:connector-curvature="0" />
        <g
           transform="matrix(0.66533116,0,0,0.66533116,293.59616,24.951699)"
           id="g11469">
          <path
             style="fill:none;fill-rule:evenodd;stroke:#ff0000;stroke-width:3;stroke-linecap:butt;stroke-linejoin:miter;stroke-miterlimit:4;stroke-dasharray:none;stroke-opacity:1"
             d="m 54.548237,233.12849 c -5.192154,4.3268 -1.19627,0.4626 -5.555839,6.56599 -0.764284,1.07 -1.692721,2.01276 -2.525381,3.03046 -0.682644,0.83434 -1.310422,1.71409 -2.020305,2.52538 -4.684167,5.35333 0.334088,-1.00621 -2.020305,2.52538 -0.624124,0.93619 -0.505076,0.0463 -0.505076,1.01015"
             id="path11471"
             inkscape:connector-curvature="0" />
          <path
             style="fill:none;fill-rule:evenodd;stroke:#ff0000;stroke-width:3;stroke-linecap:butt;stroke-linejoin:miter;stroke-miterlimit:4;stroke-dasharray:none;stroke-opacity:1"
             d="m 36.870568,232.11834 c 2.653734,2.06727 5.341365,4.10387 8.08122,6.06091 0.493958,0.35283 1.048899,0.62155 1.515229,1.01016 0.54873,0.45727 0.966499,1.05795 1.515229,1.51522 0.932661,0.77722 2.020305,1.34687 3.030458,2.02031 1.62688,1.08459 2.1915,1.68642 3.535533,3.03046 0.168359,0.16836 0.292118,0.39859 0.505077,0.50507 0.673435,0.33672 0.505076,-0.50507 0.505076,0.50508"
             id="path11473"
             inkscape:connector-curvature="0" />
        </g>
        <g
           id="g11475"
           transform="matrix(0.66533116,0,0,0.66533116,302.99827,-4.0319896)">
          <path
             inkscape:connector-curvature="0"
             id="path11477"
             d="m 54.548237,233.12849 c -5.192154,4.3268 -1.19627,0.4626 -5.555839,6.56599 -0.764284,1.07 -1.692721,2.01276 -2.525381,3.03046 -0.682644,0.83434 -1.310422,1.71409 -2.020305,2.52538 -4.684167,5.35333 0.334088,-1.00621 -2.020305,2.52538 -0.624124,0.93619 -0.505076,0.0463 -0.505076,1.01015"
             style="fill:none;fill-rule:evenodd;stroke:#ff0000;stroke-width:3;stroke-linecap:butt;stroke-linejoin:miter;stroke-miterlimit:4;stroke-dasharray:none;stroke-opacity:1" />
          <path
             inkscape:connector-curvature="0"
             id="path11479"
             d="m 36.870568,232.11834 c 2.653734,2.06727 5.341365,4.10387 8.08122,6.06091 0.493958,0.35283 1.048899,0.62155 1.515229,1.01016 0.54873,0.45727 0.966499,1.05795 1.515229,1.51522 0.932661,0.77722 2.020305,1.34687 3.030458,2.02031 1.62688,1.08459 2.1915,1.68642 3.535533,3.03046 0.168359,0.16836 0.292118,0.39859 0.505077,0.50507 0.673435,0.33672 0.505076,-0.50507 0.505076,0.50508"
             style="fill:none;fill-rule:evenodd;stroke:#ff0000;stroke-width:3;stroke-linecap:butt;stroke-linejoin:miter;stroke-miterlimit:4;stroke-dasharray:none;stroke-opacity:1" />
        </g>
        <g
           transform="matrix(0.66533116,0,0,0.66533116,361.66507,-64.082753)"
           id="g11481">
          <path
             style="fill:none;fill-rule:evenodd;stroke:#ff0000;stroke-width:3;stroke-linecap:butt;stroke-linejoin:miter;stroke-miterlimit:4;stroke-dasharray:none;stroke-opacity:1"
             d="m 54.548237,233.12849 c -5.192154,4.3268 -1.19627,0.4626 -5.555839,6.56599 -0.764284,1.07 -1.692721,2.01276 -2.525381,3.03046 -0.682644,0.83434 -1.310422,1.71409 -2.020305,2.52538 -4.684167,5.35333 0.334088,-1.00621 -2.020305,2.52538 -0.624124,0.93619 -0.505076,0.0463 -0.505076,1.01015"
             id="path11483"
             inkscape:connector-curvature="0" />
          <path
             style="fill:none;fill-rule:evenodd;stroke:#ff0000;stroke-width:3;stroke-linecap:butt;stroke-linejoin:miter;stroke-miterlimit:4;stroke-dasharray:none;stroke-opacity:1"
             d="m 36.870568,232.11834 c 2.653734,2.06727 5.341365,4.10387 8.08122,6.06091 0.493958,0.35283 1.048899,0.62155 1.515229,1.01016 0.54873,0.45727 0.966499,1.05795 1.515229,1.51522 0.932661,0.77722 2.020305,1.34687 3.030458,2.02031 1.62688,1.08459 2.1915,1.68642 3.535533,3.03046 0.168359,0.16836 0.292118,0.39859 0.505077,0.50507 0.673435,0.33672 0.505076,-0.50507 0.505076,0.50508"
             id="path11485"
             inkscape:connector-curvature="0" />
        </g>
        <g
           id="g11487"
           transform="matrix(0.66533116,0,0,0.66533116,333.49538,-49.769853)">
          <path
             inkscape:connector-curvature="0"
             id="path11489"
             d="m 54.548237,233.12849 c -5.192154,4.3268 -1.19627,0.4626 -5.555839,6.56599 -0.764284,1.07 -1.692721,2.01276 -2.525381,3.03046 -0.682644,0.83434 -1.310422,1.71409 -2.020305,2.52538 -4.684167,5.35333 0.334088,-1.00621 -2.020305,2.52538 -0.624124,0.93619 -0.505076,0.0463 -0.505076,1.01015"
             style="fill:none;fill-rule:evenodd;stroke:#ff0000;stroke-width:3;stroke-linecap:butt;stroke-linejoin:miter;stroke-miterlimit:4;stroke-dasharray:none;stroke-opacity:1" />
          <path
             inkscape:connector-curvature="0"
             id="path11491"
             d="m 36.870568,232.11834 c 2.653734,2.06727 5.341365,4.10387 8.08122,6.06091 0.493958,0.35283 1.048899,0.62155 1.515229,1.01016 0.54873,0.45727 0.966499,1.05795 1.515229,1.51522 0.932661,0.77722 2.020305,1.34687 3.030458,2.02031 1.62688,1.08459 2.1915,1.68642 3.535533,3.03046 0.168359,0.16836 0.292118,0.39859 0.505077,0.50507 0.673435,0.33672 0.505076,-0.50507 0.505076,0.50508"
             style="fill:none;fill-rule:evenodd;stroke:#ff0000;stroke-width:3;stroke-linecap:butt;stroke-linejoin:miter;stroke-miterlimit:4;stroke-dasharray:none;stroke-opacity:1" />
        </g>
        <g
           id="g11493"
           transform="matrix(0.66533116,0,0,0.66533116,423.11902,-65.152376)">
          <path
             inkscape:connector-curvature="0"
             id="path11495"
             d="m 54.548237,233.12849 c -5.192154,4.3268 -1.19627,0.4626 -5.555839,6.56599 -0.764284,1.07 -1.692721,2.01276 -2.525381,3.03046 -0.682644,0.83434 -1.310422,1.71409 -2.020305,2.52538 -4.684167,5.35333 0.334088,-1.00621 -2.020305,2.52538 -0.624124,0.93619 -0.505076,0.0463 -0.505076,1.01015"
             style="fill:none;fill-rule:evenodd;stroke:#ff0000;stroke-width:3;stroke-linecap:butt;stroke-linejoin:miter;stroke-miterlimit:4;stroke-dasharray:none;stroke-opacity:1" />
          <path
             inkscape:connector-curvature="0"
             id="path11497"
             d="m 36.870568,232.11834 c 2.653734,2.06727 5.341365,4.10387 8.08122,6.06091 0.493958,0.35283 1.048899,0.62155 1.515229,1.01016 0.54873,0.45727 0.966499,1.05795 1.515229,1.51522 0.932661,0.77722 2.020305,1.34687 3.030458,2.02031 1.62688,1.08459 2.1915,1.68642 3.535533,3.03046 0.168359,0.16836 0.292118,0.39859 0.505077,0.50507 0.673435,0.33672 0.505076,-0.50507 0.505076,0.50508"
             style="fill:none;fill-rule:evenodd;stroke:#ff0000;stroke-width:3;stroke-linecap:butt;stroke-linejoin:miter;stroke-miterlimit:4;stroke-dasharray:none;stroke-opacity:1" />
        </g>
        <g
           id="g11499"
           transform="matrix(0.66533116,0,0,0.66533116,389.56862,-55.471075)">
          <path
             inkscape:connector-curvature="0"
             id="path11501"
             d="m 54.548237,233.12849 c -5.192154,4.3268 -1.19627,0.4626 -5.555839,6.56599 -0.764284,1.07 -1.692721,2.01276 -2.525381,3.03046 -0.682644,0.83434 -1.310422,1.71409 -2.020305,2.52538 -4.684167,5.35333 0.334088,-1.00621 -2.020305,2.52538 -0.624124,0.93619 -0.505076,0.0463 -0.505076,1.01015"
             style="fill:none;fill-rule:evenodd;stroke:#ff0000;stroke-width:3;stroke-linecap:butt;stroke-linejoin:miter;stroke-miterlimit:4;stroke-dasharray:none;stroke-opacity:1" />
          <path
             inkscape:connector-curvature="0"
             id="path11503"
             d="m 36.870568,232.11834 c 2.653734,2.06727 5.341365,4.10387 8.08122,6.06091 0.493958,0.35283 1.048899,0.62155 1.515229,1.01016 0.54873,0.45727 0.966499,1.05795 1.515229,1.51522 0.932661,0.77722 2.020305,1.34687 3.030458,2.02031 1.62688,1.08459 2.1915,1.68642 3.535533,3.03046 0.168359,0.16836 0.292118,0.39859 0.505077,0.50507 0.673435,0.33672 0.505076,-0.50507 0.505076,0.50508"
             style="fill:none;fill-rule:evenodd;stroke:#ff0000;stroke-width:3;stroke-linecap:butt;stroke-linejoin:miter;stroke-miterlimit:4;stroke-dasharray:none;stroke-opacity:1" />
        </g>
        <g
           transform="matrix(0.66533116,0,0,0.66533116,320.01677,-18.924306)"
           id="g11505">
          <path
             style="fill:none;fill-rule:evenodd;stroke:#ff0000;stroke-width:3;stroke-linecap:butt;stroke-linejoin:miter;stroke-miterlimit:4;stroke-dasharray:none;stroke-opacity:1"
             d="m 54.548237,233.12849 c -5.192154,4.3268 -1.19627,0.4626 -5.555839,6.56599 -0.764284,1.07 -1.692721,2.01276 -2.525381,3.03046 -0.682644,0.83434 -1.310422,1.71409 -2.020305,2.52538 -4.684167,5.35333 0.334088,-1.00621 -2.020305,2.52538 -0.624124,0.93619 -0.505076,0.0463 -0.505076,1.01015"
             id="path11507"
             inkscape:connector-curvature="0" />
          <path
             style="fill:none;fill-rule:evenodd;stroke:#ff0000;stroke-width:3;stroke-linecap:butt;stroke-linejoin:miter;stroke-miterlimit:4;stroke-dasharray:none;stroke-opacity:1"
             d="m 36.870568,232.11834 c 2.653734,2.06727 5.341365,4.10387 8.08122,6.06091 0.493958,0.35283 1.048899,0.62155 1.515229,1.01016 0.54873,0.45727 0.966499,1.05795 1.515229,1.51522 0.932661,0.77722 2.020305,1.34687 3.030458,2.02031 1.62688,1.08459 2.1915,1.68642 3.535533,3.03046 0.168359,0.16836 0.292118,0.39859 0.505077,0.50507 0.673435,0.33672 0.505076,-0.50507 0.505076,0.50508"
             id="path11509"
             inkscape:connector-curvature="0" />
        </g>
        <g
           transform="matrix(0.66533116,0,0,0.66533116,436.251,-53.030545)"
           id="g11511">
          <path
             style="fill:none;fill-rule:evenodd;stroke:#ff0000;stroke-width:3;stroke-linecap:butt;stroke-linejoin:miter;stroke-miterlimit:4;stroke-dasharray:none;stroke-opacity:1"
             d="m 54.548237,233.12849 c -5.192154,4.3268 -1.19627,0.4626 -5.555839,6.56599 -0.764284,1.07 -1.692721,2.01276 -2.525381,3.03046 -0.682644,0.83434 -1.310422,1.71409 -2.020305,2.52538 -4.684167,5.35333 0.334088,-1.00621 -2.020305,2.52538 -0.624124,0.93619 -0.505076,0.0463 -0.505076,1.01015"
             id="path11513"
             inkscape:connector-curvature="0" />
          <path
             style="fill:none;fill-rule:evenodd;stroke:#ff0000;stroke-width:3;stroke-linecap:butt;stroke-linejoin:miter;stroke-miterlimit:4;stroke-dasharray:none;stroke-opacity:1"
             d="m 36.870568,232.11834 c 2.653734,2.06727 5.341365,4.10387 8.08122,6.06091 0.493958,0.35283 1.048899,0.62155 1.515229,1.01016 0.54873,0.45727 0.966499,1.05795 1.515229,1.51522 0.932661,0.77722 2.020305,1.34687 3.030458,2.02031 1.62688,1.08459 2.1915,1.68642 3.535533,3.03046 0.168359,0.16836 0.292118,0.39859 0.505077,0.50507 0.673435,0.33672 0.505076,-0.50507 0.505076,0.50508"
             id="path11515"
             inkscape:connector-curvature="0" />
        </g>
        <text
           sodipodi:linespacing="125%"
           id="text11517"
           y="218.70296"
           x="348.97153"
           style="font-style:normal;font-weight:normal;font-size:11.64967728px;line-height:125%;font-family:Sans;text-align:start;letter-spacing:0px;word-spacing:0px;text-anchor:start;fill:#000000;fill-opacity:1;stroke:none;stroke-width:1px;stroke-linecap:butt;stroke-linejoin:miter;stroke-opacity:1"
           xml:space="preserve"><tspan
             y="218.70296"
             x="348.97153"
             id="tspan11519"
             sodipodi:role="line">Cat weight</tspan></text>
        <text
           xml:space="preserve"
           style="font-style:normal;font-weight:normal;font-size:11.64967728px;line-height:125%;font-family:Sans;text-align:start;letter-spacing:0px;word-spacing:0px;text-anchor:start;fill:#000000;fill-opacity:1;stroke:none;stroke-width:1px;stroke-linecap:butt;stroke-linejoin:miter;stroke-opacity:1"
           x="259.06793"
           y="131.82983"
           id="text11521"
           sodipodi:linespacing="125%"><tspan
             sodipodi:role="line"
             id="tspan11523"
             x="259.06793"
             y="131.82983">Cat tail</tspan><tspan
             id="tspan11525"
             sodipodi:role="line"
             x="259.06793"
             y="146.39194">length</tspan></text>
      </g>
      <g
         id="g11619">
        <path
           inkscape:connector-curvature="0"
           id="path11527"
           d="m 546.79201,85.219347 0,117.142853 135.71429,0"
           style="fill:none;fill-rule:evenodd;stroke:#000000;stroke-width:1px;stroke-linecap:butt;stroke-linejoin:miter;stroke-opacity:1" />
        <g
           id="g11529"
           transform="matrix(0.66533116,0,0,0.66533116,534.01247,24.951699)">
          <path
             inkscape:connector-curvature="0"
             id="path11531"
             d="m 54.548237,233.12849 c -5.192154,4.3268 -1.19627,0.4626 -5.555839,6.56599 -0.764284,1.07 -1.692721,2.01276 -2.525381,3.03046 -0.682644,0.83434 -1.310422,1.71409 -2.020305,2.52538 -4.684167,5.35333 0.334088,-1.00621 -2.020305,2.52538 -0.624124,0.93619 -0.505076,0.0463 -0.505076,1.01015"
             style="fill:none;fill-rule:evenodd;stroke:#ff0000;stroke-width:3;stroke-linecap:butt;stroke-linejoin:miter;stroke-miterlimit:4;stroke-dasharray:none;stroke-opacity:1" />
          <path
             inkscape:connector-curvature="0"
             id="path11533"
             d="m 36.870568,232.11834 c 2.653734,2.06727 5.341365,4.10387 8.08122,6.06091 0.493958,0.35283 1.048899,0.62155 1.515229,1.01016 0.54873,0.45727 0.966499,1.05795 1.515229,1.51522 0.932661,0.77722 2.020305,1.34687 3.030458,2.02031 1.62688,1.08459 2.1915,1.68642 3.535533,3.03046 0.168359,0.16836 0.292118,0.39859 0.505077,0.50507 0.673435,0.33672 0.505076,-0.50507 0.505076,0.50508"
             style="fill:none;fill-rule:evenodd;stroke:#ff0000;stroke-width:3;stroke-linecap:butt;stroke-linejoin:miter;stroke-miterlimit:4;stroke-dasharray:none;stroke-opacity:1" />
        </g>
        <g
           transform="matrix(0.66533116,0,0,0.66533116,543.41458,-4.0319896)"
           id="g11535">
          <path
             style="fill:none;fill-rule:evenodd;stroke:#ff0000;stroke-width:3;stroke-linecap:butt;stroke-linejoin:miter;stroke-miterlimit:4;stroke-dasharray:none;stroke-opacity:1"
             d="m 54.548237,233.12849 c -5.192154,4.3268 -1.19627,0.4626 -5.555839,6.56599 -0.764284,1.07 -1.692721,2.01276 -2.525381,3.03046 -0.682644,0.83434 -1.310422,1.71409 -2.020305,2.52538 -4.684167,5.35333 0.334088,-1.00621 -2.020305,2.52538 -0.624124,0.93619 -0.505076,0.0463 -0.505076,1.01015"
             id="path11537"
             inkscape:connector-curvature="0" />
          <path
             style="fill:none;fill-rule:evenodd;stroke:#ff0000;stroke-width:3;stroke-linecap:butt;stroke-linejoin:miter;stroke-miterlimit:4;stroke-dasharray:none;stroke-opacity:1"
             d="m 36.870568,232.11834 c 2.653734,2.06727 5.341365,4.10387 8.08122,6.06091 0.493958,0.35283 1.048899,0.62155 1.515229,1.01016 0.54873,0.45727 0.966499,1.05795 1.515229,1.51522 0.932661,0.77722 2.020305,1.34687 3.030458,2.02031 1.62688,1.08459 2.1915,1.68642 3.535533,3.03046 0.168359,0.16836 0.292118,0.39859 0.505077,0.50507 0.673435,0.33672 0.505076,-0.50507 0.505076,0.50508"
             id="path11539"
             inkscape:connector-curvature="0" />
        </g>
        <g
           id="g11541"
           transform="matrix(0.66533116,0,0,0.66533116,602.08138,-64.082753)">
          <path
             inkscape:connector-curvature="0"
             id="path11543"
             d="m 54.548237,233.12849 c -5.192154,4.3268 -1.19627,0.4626 -5.555839,6.56599 -0.764284,1.07 -1.692721,2.01276 -2.525381,3.03046 -0.682644,0.83434 -1.310422,1.71409 -2.020305,2.52538 -4.684167,5.35333 0.334088,-1.00621 -2.020305,2.52538 -0.624124,0.93619 -0.505076,0.0463 -0.505076,1.01015"
             style="fill:none;fill-rule:evenodd;stroke:#ff0000;stroke-width:3;stroke-linecap:butt;stroke-linejoin:miter;stroke-miterlimit:4;stroke-dasharray:none;stroke-opacity:1" />
          <path
             inkscape:connector-curvature="0"
             id="path11545"
             d="m 36.870568,232.11834 c 2.653734,2.06727 5.341365,4.10387 8.08122,6.06091 0.493958,0.35283 1.048899,0.62155 1.515229,1.01016 0.54873,0.45727 0.966499,1.05795 1.515229,1.51522 0.932661,0.77722 2.020305,1.34687 3.030458,2.02031 1.62688,1.08459 2.1915,1.68642 3.535533,3.03046 0.168359,0.16836 0.292118,0.39859 0.505077,0.50507 0.673435,0.33672 0.505076,-0.50507 0.505076,0.50508"
             style="fill:none;fill-rule:evenodd;stroke:#ff0000;stroke-width:3;stroke-linecap:butt;stroke-linejoin:miter;stroke-miterlimit:4;stroke-dasharray:none;stroke-opacity:1" />
        </g>
        <g
           transform="matrix(0.66533116,0,0,0.66533116,573.91169,-49.769853)"
           id="g11547">
          <path
             style="fill:none;fill-rule:evenodd;stroke:#ff0000;stroke-width:3;stroke-linecap:butt;stroke-linejoin:miter;stroke-miterlimit:4;stroke-dasharray:none;stroke-opacity:1"
             d="m 54.548237,233.12849 c -5.192154,4.3268 -1.19627,0.4626 -5.555839,6.56599 -0.764284,1.07 -1.692721,2.01276 -2.525381,3.03046 -0.682644,0.83434 -1.310422,1.71409 -2.020305,2.52538 -4.684167,5.35333 0.334088,-1.00621 -2.020305,2.52538 -0.624124,0.93619 -0.505076,0.0463 -0.505076,1.01015"
             id="path11549"
             inkscape:connector-curvature="0" />
          <path
             style="fill:none;fill-rule:evenodd;stroke:#ff0000;stroke-width:3;stroke-linecap:butt;stroke-linejoin:miter;stroke-miterlimit:4;stroke-dasharray:none;stroke-opacity:1"
             d="m 36.870568,232.11834 c 2.653734,2.06727 5.341365,4.10387 8.08122,6.06091 0.493958,0.35283 1.048899,0.62155 1.515229,1.01016 0.54873,0.45727 0.966499,1.05795 1.515229,1.51522 0.932661,0.77722 2.020305,1.34687 3.030458,2.02031 1.62688,1.08459 2.1915,1.68642 3.535533,3.03046 0.168359,0.16836 0.292118,0.39859 0.505077,0.50507 0.673435,0.33672 0.505076,-0.50507 0.505076,0.50508"
             id="path11551"
             inkscape:connector-curvature="0" />
        </g>
        <g
           transform="matrix(0.66533116,0,0,0.66533116,663.53533,-65.152376)"
           id="g11553">
          <path
             style="fill:none;fill-rule:evenodd;stroke:#ff0000;stroke-width:3;stroke-linecap:butt;stroke-linejoin:miter;stroke-miterlimit:4;stroke-dasharray:none;stroke-opacity:1"
             d="m 54.548237,233.12849 c -5.192154,4.3268 -1.19627,0.4626 -5.555839,6.56599 -0.764284,1.07 -1.692721,2.01276 -2.525381,3.03046 -0.682644,0.83434 -1.310422,1.71409 -2.020305,2.52538 -4.684167,5.35333 0.334088,-1.00621 -2.020305,2.52538 -0.624124,0.93619 -0.505076,0.0463 -0.505076,1.01015"
             id="path11555"
             inkscape:connector-curvature="0" />
          <path
             style="fill:none;fill-rule:evenodd;stroke:#ff0000;stroke-width:3;stroke-linecap:butt;stroke-linejoin:miter;stroke-miterlimit:4;stroke-dasharray:none;stroke-opacity:1"
             d="m 36.870568,232.11834 c 2.653734,2.06727 5.341365,4.10387 8.08122,6.06091 0.493958,0.35283 1.048899,0.62155 1.515229,1.01016 0.54873,0.45727 0.966499,1.05795 1.515229,1.51522 0.932661,0.77722 2.020305,1.34687 3.030458,2.02031 1.62688,1.08459 2.1915,1.68642 3.535533,3.03046 0.168359,0.16836 0.292118,0.39859 0.505077,0.50507 0.673435,0.33672 0.505076,-0.50507 0.505076,0.50508"
             id="path11557"
             inkscape:connector-curvature="0" />
        </g>
        <g
           transform="matrix(0.66533116,0,0,0.66533116,629.98493,-55.471075)"
           id="g11559">
          <path
             style="fill:none;fill-rule:evenodd;stroke:#ff0000;stroke-width:3;stroke-linecap:butt;stroke-linejoin:miter;stroke-miterlimit:4;stroke-dasharray:none;stroke-opacity:1"
             d="m 54.548237,233.12849 c -5.192154,4.3268 -1.19627,0.4626 -5.555839,6.56599 -0.764284,1.07 -1.692721,2.01276 -2.525381,3.03046 -0.682644,0.83434 -1.310422,1.71409 -2.020305,2.52538 -4.684167,5.35333 0.334088,-1.00621 -2.020305,2.52538 -0.624124,0.93619 -0.505076,0.0463 -0.505076,1.01015"
             id="path11561"
             inkscape:connector-curvature="0" />
          <path
             style="fill:none;fill-rule:evenodd;stroke:#ff0000;stroke-width:3;stroke-linecap:butt;stroke-linejoin:miter;stroke-miterlimit:4;stroke-dasharray:none;stroke-opacity:1"
             d="m 36.870568,232.11834 c 2.653734,2.06727 5.341365,4.10387 8.08122,6.06091 0.493958,0.35283 1.048899,0.62155 1.515229,1.01016 0.54873,0.45727 0.966499,1.05795 1.515229,1.51522 0.932661,0.77722 2.020305,1.34687 3.030458,2.02031 1.62688,1.08459 2.1915,1.68642 3.535533,3.03046 0.168359,0.16836 0.292118,0.39859 0.505077,0.50507 0.673435,0.33672 0.505076,-0.50507 0.505076,0.50508"
             id="path11563"
             inkscape:connector-curvature="0" />
        </g>
        <g
           id="g11565"
           transform="matrix(0.66533116,0,0,0.66533116,560.43308,-18.924306)">
          <path
             inkscape:connector-curvature="0"
             id="path11567"
             d="m 54.548237,233.12849 c -5.192154,4.3268 -1.19627,0.4626 -5.555839,6.56599 -0.764284,1.07 -1.692721,2.01276 -2.525381,3.03046 -0.682644,0.83434 -1.310422,1.71409 -2.020305,2.52538 -4.684167,5.35333 0.334088,-1.00621 -2.020305,2.52538 -0.624124,0.93619 -0.505076,0.0463 -0.505076,1.01015"
             style="fill:none;fill-rule:evenodd;stroke:#ff0000;stroke-width:3;stroke-linecap:butt;stroke-linejoin:miter;stroke-miterlimit:4;stroke-dasharray:none;stroke-opacity:1" />
          <path
             inkscape:connector-curvature="0"
             id="path11569"
             d="m 36.870568,232.11834 c 2.653734,2.06727 5.341365,4.10387 8.08122,6.06091 0.493958,0.35283 1.048899,0.62155 1.515229,1.01016 0.54873,0.45727 0.966499,1.05795 1.515229,1.51522 0.932661,0.77722 2.020305,1.34687 3.030458,2.02031 1.62688,1.08459 2.1915,1.68642 3.535533,3.03046 0.168359,0.16836 0.292118,0.39859 0.505077,0.50507 0.673435,0.33672 0.505076,-0.50507 0.505076,0.50508"
             style="fill:none;fill-rule:evenodd;stroke:#ff0000;stroke-width:3;stroke-linecap:butt;stroke-linejoin:miter;stroke-miterlimit:4;stroke-dasharray:none;stroke-opacity:1" />
        </g>
        <g
           id="g11571"
           transform="matrix(0.66533116,0,0,0.66533116,676.66731,-53.030545)">
          <path
             inkscape:connector-curvature="0"
             id="path11573"
             d="m 54.548237,233.12849 c -5.192154,4.3268 -1.19627,0.4626 -5.555839,6.56599 -0.764284,1.07 -1.692721,2.01276 -2.525381,3.03046 -0.682644,0.83434 -1.310422,1.71409 -2.020305,2.52538 -4.684167,5.35333 0.334088,-1.00621 -2.020305,2.52538 -0.624124,0.93619 -0.505076,0.0463 -0.505076,1.01015"
             style="fill:none;fill-rule:evenodd;stroke:#ff0000;stroke-width:3;stroke-linecap:butt;stroke-linejoin:miter;stroke-miterlimit:4;stroke-dasharray:none;stroke-opacity:1" />
          <path
             inkscape:connector-curvature="0"
             id="path11575"
             d="m 36.870568,232.11834 c 2.653734,2.06727 5.341365,4.10387 8.08122,6.06091 0.493958,0.35283 1.048899,0.62155 1.515229,1.01016 0.54873,0.45727 0.966499,1.05795 1.515229,1.51522 0.932661,0.77722 2.020305,1.34687 3.030458,2.02031 1.62688,1.08459 2.1915,1.68642 3.535533,3.03046 0.168359,0.16836 0.292118,0.39859 0.505077,0.50507 0.673435,0.33672 0.505076,-0.50507 0.505076,0.50508"
             style="fill:none;fill-rule:evenodd;stroke:#ff0000;stroke-width:3;stroke-linecap:butt;stroke-linejoin:miter;stroke-miterlimit:4;stroke-dasharray:none;stroke-opacity:1" />
        </g>
        <text
           xml:space="preserve"
           style="font-style:normal;font-weight:normal;font-size:11.64967728px;line-height:125%;font-family:Sans;text-align:start;letter-spacing:0px;word-spacing:0px;text-anchor:start;fill:#000000;fill-opacity:1;stroke:none;stroke-width:1px;stroke-linecap:butt;stroke-linejoin:miter;stroke-opacity:1"
           x="589.38782"
           y="218.70296"
           id="text11577"
           sodipodi:linespacing="125%"><tspan
             sodipodi:role="line"
             id="tspan11579"
             x="589.38782"
             y="218.70296">Cat weight</tspan></text>
        <text
           sodipodi:linespacing="125%"
           id="text11581"
           y="131.82983"
           x="499.48425"
           style="font-style:normal;font-weight:normal;font-size:11.64967728px;line-height:125%;font-family:Sans;text-align:start;letter-spacing:0px;word-spacing:0px;text-anchor:start;fill:#000000;fill-opacity:1;stroke:none;stroke-width:1px;stroke-linecap:butt;stroke-linejoin:miter;stroke-opacity:1"
           xml:space="preserve"><tspan
             y="131.82983"
             x="499.48425"
             id="tspan11583"
             sodipodi:role="line">Cat tail</tspan><tspan
             y="146.39194"
             x="499.48425"
             sodipodi:role="line"
             id="tspan11585">length</tspan></text>
      </g>
      <path
         inkscape:connector-curvature="0"
         id="path12305"
         d="M 67.680221,202.8239 201.02036,69.483756"
         style="fill:none;fill-rule:evenodd;stroke:#0700e2;stroke-width:2;stroke-linecap:butt;stroke-linejoin:miter;stroke-miterlimit:4;stroke-dasharray:none;stroke-opacity:1" />
      <path
         inkscape:connector-curvature="0"
         id="path12314"
         d="m 308.09653,202.82389 c 2.10998,-42.75682 34.77215,-80.63072 75.27557,-92.64515 13.15848,-3.55861 25.87517,-8.75686 39.35775,-11.187501 17.09891,-3.580307 34.57943,-5.238891 52.04185,-5.263822"
         style="fill:none;fill-opacity:1;fill-rule:evenodd;stroke:#0700e2;stroke-width:2;stroke-linecap:butt;stroke-linejoin:miter;stroke-miterlimit:4;stroke-dasharray:none;stroke-opacity:1" />
      <text
         sodipodi:linespacing="125%"
         id="text12327"
         y="173.24609"
         x="123.96436"
         style="font-style:normal;font-weight:normal;font-size:11.64967728px;line-height:125%;font-family:Sans;text-align:start;letter-spacing:0px;word-spacing:0px;text-anchor:start;fill:#000000;fill-opacity:1;stroke:none;stroke-width:1px;stroke-linecap:butt;stroke-linejoin:miter;stroke-opacity:1"
         xml:space="preserve"><tspan
           y="173.24609"
           x="123.96436"
           id="tspan12329"
           sodipodi:role="line">Underfitting</tspan></text>
      <text
         xml:space="preserve"
         style="font-style:normal;font-weight:normal;font-size:11.64967728px;line-height:125%;font-family:Sans;text-align:start;letter-spacing:0px;word-spacing:0px;text-anchor:start;fill:#000000;fill-opacity:1;stroke:none;stroke-width:1px;stroke-linecap:butt;stroke-linejoin:miter;stroke-opacity:1"
         x="364.38068"
         y="173.24609"
         id="text12331"
         sodipodi:linespacing="125%"><tspan
           sodipodi:role="line"
           id="tspan12333"
           x="364.38068"
           y="173.24609">Purrrfect</tspan></text>
      <text
         sodipodi:linespacing="125%"
         id="text12335"
         y="173.24609"
         x="615.90863"
         style="font-style:normal;font-weight:normal;font-size:11.64967728px;line-height:125%;font-family:Sans;text-align:start;letter-spacing:0px;word-spacing:0px;text-anchor:start;fill:#000000;fill-opacity:1;stroke:none;stroke-width:1px;stroke-linecap:butt;stroke-linejoin:miter;stroke-opacity:1"
         xml:space="preserve"><tspan
           y="173.24609"
           x="615.90863"
           id="tspan12337"
           sodipodi:role="line">Overfitting</tspan></text>
      <path
         inkscape:connector-curvature="0"
         id="path12339"
         d="m 542.5,163.07647 c 2.96939,-12.87726 13.65123,-2.45457 14.64286,5.35714 4.97712,6.18153 5.1034,20.18249 13.25157,21.34557 4.61376,-11.58485 -3.48929,-25.4484 3.60338,-36.29622 6.96602,-6.9367 18.80834,-7.26482 23.50219,-16.83506 4.39102,-8.69415 3.45568,-19.49954 9.28572,-27.85715 12.82989,-7.56447 13.63561,10.67825 21.43349,14.5968 12.05835,-4.67828 5.97225,-19.99992 3.20936,-28.882512 -3.72089,-15.354484 18.23397,-10.94893 24.76063,-4.530892 6.45976,8.109196 1.02994,25.336664 16.99994,23.283514 7.82245,1.32821 19.62182,-2.39783 19.03722,-12.04805 -2.0321,-12.231798 17.06368,-15.562664 15.9604,-1.892108 0.7889,8.038478 -1.76722,21.381888 5.38467,26.258978"
         style="fill:none;fill-rule:evenodd;stroke:#0700e2;stroke-width:2;stroke-linecap:butt;stroke-linejoin:miter;stroke-miterlimit:4;stroke-dasharray:none;stroke-opacity:1" />
    </g>
  </g>
</svg>
