<?xml version="1.0" encoding="UTF-8" standalone="no"?>
<!-- Created with Inkscape (http://www.inkscape.org/) -->

<svg
   xmlns:ns0="http://www.iki.fi/pav/software/textext/"
   xmlns:dc="http://purl.org/dc/elements/1.1/"
   xmlns:cc="http://creativecommons.org/ns#"
   xmlns:rdf="http://www.w3.org/1999/02/22-rdf-syntax-ns#"
   xmlns:svg="http://www.w3.org/2000/svg"
   xmlns="http://www.w3.org/2000/svg"
   xmlns:sodipodi="http://sodipodi.sourceforge.net/DTD/sodipodi-0.dtd"
   xmlns:inkscape="http://www.inkscape.org/namespaces/inkscape"
   width="437.41727mm"
   height="79.202927mm"
   viewBox="0 0 1549.9038 280.6403"
   id="svg2"
   version="1.1"
   inkscape:version="0.91 r13725"
   sodipodi:docname="LearningRate.svg">
  <sodipodi:namedview
     id="base"
     pagecolor="#ffffff"
     bordercolor="#666666"
     borderopacity="1.0"
     inkscape:pageopacity="0.0"
     inkscape:pageshadow="2"
     inkscape:zoom="0.7"
     inkscape:cx="486.99125"
     inkscape:cy="26.534359"
     inkscape:document-units="px"
     inkscape:current-layer="layer1"
     showgrid="false"
     inkscape:window-width="1309"
     inkscape:window-height="747"
     inkscape:window-x="57"
     inkscape:window-y="21"
     inkscape:window-maximized="1"
     fit-margin-top="0"
     fit-margin-left="0"
     fit-margin-right="0"
     fit-margin-bottom="0" />
  <defs
     id="defs4" />
  <metadata
     id="metadata7">
    <rdf:RDF>
      <cc:Work
         rdf:about="">
        <dc:format>image/svg+xml</dc:format>
        <dc:type
           rdf:resource="http://purl.org/dc/dcmitype/StillImage" />
        <dc:title></dc:title>
      </cc:Work>
    </rdf:RDF>
  </metadata>
  <g
     transform="translate(-42.721558,-104.13119)"
     id="layer1"
     inkscape:groupmode="layer"
     inkscape:label="Layer 1">
    <flowRoot
       xml:space="preserve"
       id="flowRoot5057"
       style="font-style:normal;font-weight:normal;font-size:20px;line-height:125%;font-family:Sans;text-align:start;letter-spacing:0px;word-spacing:0px;text-anchor:start;fill:#000000;fill-opacity:1;stroke:none;stroke-width:1px;stroke-linecap:butt;stroke-linejoin:miter;stroke-opacity:1"
       transform="translate(16.457653,104.83878)"><flowRegion
         id="flowRegion5059"><rect
           id="rect5061"
           width="180"
           height="35.714287"
           x="294.28571"
           y="354.34244" /></flowRegion><flowPara
         id="flowPara5063" /></flowRoot>    <g
       id="g4387">
      <g
         id="g4289">
        <path
           inkscape:connector-curvature="0"
           id="path3336"
           d="m 115.15739,161.40766 0,191.92898 430.32498,0"
           style="fill:none;fill-rule:evenodd;stroke:#000000;stroke-width:1px;stroke-linecap:butt;stroke-linejoin:miter;stroke-opacity:1" />
        <text
           sodipodi:linespacing="125%"
           id="text3342"
           y="384.50781"
           x="200.01019"
           style="font-style:normal;font-variant:normal;font-weight:normal;font-stretch:normal;font-size:22.5px;line-height:125%;font-family:Arial;-inkscape-font-specification:Arial;text-align:start;letter-spacing:0px;word-spacing:0px;text-anchor:start;fill:#000000;fill-opacity:1;stroke:none;stroke-width:1px;stroke-linecap:butt;stroke-linejoin:miter;stroke-opacity:1"
           xml:space="preserve"><tspan
             y="384.50781"
             x="200.01019"
             id="tspan3344"
             sodipodi:role="line">number iterations</tspan></text>
        <path
           inkscape:connector-curvature="0"
           id="path3348"
           d="m 145.46197,164.43812 c 2.73546,9.33435 6.1155,22.3495 14.14213,30.30457 3.32257,5.12981 6.11902,9.54997 11.17731,16.11514 2.48626,6.89244 9.2357,10.388 11.04605,18.23005 3.93529,6.37411 10.96961,11.88254 12.12183,17.17259 3.99547,4.46335 6.31784,6.48874 8.08122,11.11168 5.16072,3.92554 10.71203,12.95738 13.13198,16.16244 5.96852,9.64511 13.25834,14.06983 20.91274,21.0601 4.21695,7.04661 11.30957,8.73047 19.49337,14.29524 5.26148,3.80763 11.76753,5.7907 17.12528,8.14685 5.83489,3.81338 15.56211,3.08743 22.27066,7.00544 11.36347,1.19766 22.67503,2.85946 34.66783,3.03046 7.10711,-0.57621 13.34803,0.99361 20.20305,1.01015 8.05105,-0.31494 14.4739,1.91688 21.07548,2.99347 11.5079,-0.14788 22.1207,1.92141 33.47276,2.05729 9.65699,-0.0235 19.32093,0.0355 28.97178,0 6.5953,-2.51694 14.86414,-0.36645 22.18113,-1.01015 11.7982,-0.01 23.6085,0.0133 35.39757,0 5.81561,-2.36732 13.30334,-0.36825 19.81706,-1.01015 5.76803,0.27606 10.68308,-0.43106 15.53828,-1.01016"
           style="fill:none;fill-rule:evenodd;stroke:#8c5ff7;stroke-width:4;stroke-linecap:butt;stroke-linejoin:miter;stroke-miterlimit:4;stroke-dasharray:none;stroke-opacity:1" />
        <g
           id="g4407"
           transform="translate(26.263966,12.642113)">
          <text
             xml:space="preserve"
             style="font-style:normal;font-variant:normal;font-weight:normal;font-stretch:normal;font-size:27.5px;line-height:125%;font-family:UnPilgi;-inkscape-font-specification:UnPilgi;text-align:start;letter-spacing:0px;word-spacing:0px;text-anchor:start;fill:#000000;fill-opacity:1;stroke:none;stroke-width:1px;stroke-linecap:butt;stroke-linejoin:miter;stroke-opacity:1"
             x="17.172592"
             y="223.02696"
             id="text3338"
             sodipodi:linespacing="125%"><tspan
               sodipodi:role="line"
               id="tspan3340"
               x="17.172592"
               y="223.02696">J(  )</tspan></text>
          <g
             style="font-style:normal;font-variant:normal;font-weight:normal;font-stretch:normal;letter-spacing:normal;word-spacing:normal;text-anchor:start;fill:none;fill-opacity:1;fill-rule:evenodd;stroke:#000000;stroke-linecap:butt;stroke-linejoin:miter;stroke-miterlimit:10.43299961;stroke-dasharray:none;stroke-dashoffset:0;stroke-opacity:1"
             id="content"
             transform="matrix(3.2636438,0,0,-3.2636438,-683.48314,2371.8359)"
             xml:space="preserve"
             stroke-miterlimit="10.433"
             font-style="normal"
             font-variant="normal"
             font-weight="normal"
             font-stretch="normal"
             font-size-adjust="none"
             letter-spacing="normal"
             word-spacing="normal"
             ns0:text="$\\theta$"
             ns0:preamble=""><path
               style="fill:#000000;stroke-width:0"
               inkscape:connector-curvature="0"
               d="m 227.96,662.21 0,0.07 0,0.07 0,0.07 0,0.07 -0.01,0.08 -0.01,0.08 -0.01,0.08 -0.01,0.08 -0.01,0.08 -0.02,0.09 -0.02,0.08 -0.02,0.09 -0.02,0.08 -0.02,0.09 -0.03,0.08 -0.03,0.08 -0.04,0.08 -0.03,0.08 -0.04,0.07 -0.05,0.07 -0.04,0.07 -0.05,0.06 -0.06,0.06 -0.05,0.06 -0.07,0.05 -0.03,0.02 -0.03,0.02 -0.04,0.02 -0.03,0.02 -0.04,0.02 -0.04,0.02 -0.04,0.01 -0.04,0.01 -0.04,0.01 -0.04,0.01 -0.04,0.01 -0.05,0 -0.04,0 -0.05,0.01 -0.01,-0.22 c 0.49,0 0.55,-0.64 0.55,-1.21 0,-0.49 -0.08,-0.99 -0.32,-1.98 l -2.08,0 c 0.17,0.64 0.37,1.43 0.76,2.14 0.27,0.49 0.64,1.05 1.09,1.05 l 0.01,0.22 c -1.39,0 -2.92,-2.81 -2.92,-5.1 0,-0.93 0.29,-2.04 1.2,-2.04 l 0,0.22 c -0.33,0 -0.54,0.29 -0.54,1.22 0,0.42 0.06,0.99 0.32,1.97 l 2.07,0 c -0.11,-0.46 -0.32,-1.31 -0.7,-2.02 -0.35,-0.68 -0.72,-1.17 -1.15,-1.17 l 0,-0.22 c 1.4,0 2.91,2.86 2.91,5.09 z"
               id="path4361" /></g>        </g>
        <path
           style="fill:none;fill-rule:evenodd;stroke:#000000;stroke-width:1px;stroke-linecap:butt;stroke-linejoin:miter;stroke-opacity:1"
           d="m 331.85493,203.05875 0,90 152.85714,0"
           id="path4737"
           inkscape:connector-curvature="0" />
        <path
           style="fill:none;fill-rule:evenodd;stroke:#000000;stroke-width:1px;stroke-linecap:butt;stroke-linejoin:miter;stroke-opacity:1"
           d="m 355.7835,211.63018 c 1.46362,7.24822 3.52771,14.5123 7.81403,20.63212 3.06989,4.68274 5.71222,9.53058 8.15965,14.55499 2.2935,3.9425 4.60546,7.89381 8.19353,10.83188 3.60941,3.07156 8.31971,5.0473 12.61851,7.19529 4.71831,2.09463 9.8697,2.99055 14.72906,4.67762 4.95265,0.80407 9.61408,2.2906 14.54829,2.42524 5.64926,1.23096 11.17902,-0.47053 16.14332,-3.18487 5.14968,-2.25442 10.52563,-4.5549 14.21227,-8.96409 3.93836,-3.32151 6.77359,-7.55523 10.46046,-11.1008 5.4807,-7.04867 10.12173,-14.75216 14.42781,-22.56314 2.59743,-4.9088 5.38801,-9.73006 7.08592,-15.02147 1.20184,-2.72429 2.31345,-6.09145 3.75001,-8.0542"
           id="path4739"
           inkscape:connector-curvature="0" />
        <path
           style="fill:none;fill-rule:evenodd;stroke:#000000;stroke-width:1px;stroke-linecap:butt;stroke-linejoin:miter;stroke-opacity:1"
           d="m 354.71208,212.7016 c -1.30183,-1.13015 -2.00924,-2.5154 -2.85715,-3.92857 -0.22084,-0.36806 -0.52232,-0.68751 -0.71428,-1.07143 -1.47864,-2.95726 0.97561,0.92771 -1.07143,-2.14285 -0.2381,-0.35715 -0.49345,-0.70337 -0.71429,-1.07143 -0.13696,-0.22826 -0.20948,-0.4928 -0.35714,-0.71429 -0.43565,-0.65347 -0.45534,-0.0356 -0.71429,-1.07143 -0.0866,-0.34647 0.11294,-0.73261 0,-1.07142 -0.86231,-2.58694 0.10297,0.56307 -0.71428,-1.07143 -0.15972,-0.31944 0.11294,-0.73262 0,-1.07143 -0.0532,-0.15972 -0.28185,-0.20656 -0.35714,-0.35714 -0.0532,-0.10648 0.0376,-0.24421 0,-0.35715 -0.0842,-0.25253 -0.27297,-0.46174 -0.35715,-0.71428 -0.0376,-0.11294 0,-0.2381 0,-0.35715 0,-0.23809 0.0753,-0.4884 0,-0.71428 -0.0532,-0.15972 -0.28185,-0.20656 -0.35714,-0.35714 -0.0532,-0.10648 0.0376,-0.24421 0,-0.35715 -0.0842,-0.25253 -0.29258,-0.45603 -0.35714,-0.71428 -0.0578,-0.23099 0.10648,-0.50133 0,-0.71429 -0.0532,-0.10648 -0.30391,0.10648 -0.35715,0 -0.10648,-0.21296 0.0753,-0.48841 0,-0.71428 -0.28232,-0.84698 -0.35714,0.22623 -0.35714,-1.07143 0,-0.24005 0.10539,-0.86066 0,-1.07143 -0.0753,-0.15059 -0.28185,-0.20656 -0.35714,-0.35714 -0.0532,-0.10648 0,-0.2381 0,-0.35715 -0.11905,-0.11904 -0.28185,-0.20655 -0.35714,-0.35714 -0.0532,-0.10648 0.0532,-0.25066 0,-0.35714 -0.81726,-1.6345 0.14802,1.5155 -0.71429,-1.07143 -0.1004,-0.3012 0.14102,-0.78939 0,-1.07143 -0.0753,-0.15058 -0.28185,-0.20656 -0.35714,-0.35714 -0.19048,-0.38095 0.19047,-1.04762 0,-1.42857 -0.0753,-0.15059 -0.28185,-0.20656 -0.35715,-0.35715 -0.14101,-0.28203 0.1004,-0.77023 0,-1.07143 -0.0842,-0.25253 -0.27296,-0.46174 -0.35714,-0.71428 -0.0376,-0.11294 0.0532,-0.25066 0,-0.35714 -0.0753,-0.15059 -0.28185,-0.20656 -0.35714,-0.35715 -0.0532,-0.10648 0,-0.23809 0,-0.35714 0,-0.35714 0.0866,-0.72495 0,-1.07143 -0.0408,-0.16333 -0.28185,-0.20656 -0.35714,-0.35714 -0.17005,-0.3401 0.12659,-1.40593 0,-1.78572 -0.0532,-0.15971 -0.2381,-0.23809 -0.35715,-0.35714 -0.11905,-0.23809 -0.27296,-0.46175 -0.35714,-0.71428 -0.14286,-0.42858 0.14286,-1 0,-1.42858 -0.0842,-0.25253 -0.27296,-0.46174 -0.35714,-0.71428 -0.12021,-0.36064 0,-1.7412 0,-2.14286"
           id="path4745"
           inkscape:connector-curvature="0" />
        <text
           sodipodi:linespacing="125%"
           id="text4761"
           y="308.09442"
           x="395.92343"
           style="font-style:normal;font-variant:normal;font-weight:normal;font-stretch:normal;font-size:15.59446239px;line-height:125%;font-family:UnPilgi;-inkscape-font-specification:UnPilgi;text-align:start;letter-spacing:0px;word-spacing:0px;text-anchor:start;fill:#000000;fill-opacity:1;stroke:none;stroke-width:1px;stroke-linecap:butt;stroke-linejoin:miter;stroke-opacity:1"
           xml:space="preserve"><tspan
             y="308.09442"
             x="395.92343"
             id="tspan4763"
             sodipodi:role="line">Iters</tspan></text>
        <text
           xml:space="preserve"
           style="font-style:normal;font-variant:normal;font-weight:normal;font-stretch:normal;font-size:13.27249813px;line-height:125%;font-family:UnPilgi;-inkscape-font-specification:UnPilgi;text-align:start;letter-spacing:0px;word-spacing:0px;text-anchor:start;fill:#000000;fill-opacity:1;stroke:none;stroke-width:1px;stroke-linecap:butt;stroke-linejoin:miter;stroke-opacity:1"
           x="298.88837"
           y="246.14697"
           id="text4767"
           sodipodi:linespacing="125%"><tspan
             sodipodi:role="line"
             id="tspan4769"
             x="298.88837"
             y="246.14697">J(  )</tspan></text>
        <g
           style="font-style:normal;font-variant:normal;font-weight:normal;font-stretch:normal;letter-spacing:normal;word-spacing:normal;text-anchor:start;fill:none;fill-opacity:1;fill-rule:evenodd;stroke:#000000;stroke-linecap:butt;stroke-linejoin:miter;stroke-miterlimit:10.43299961;stroke-dasharray:none;stroke-dashoffset:0;stroke-opacity:1"
           id="g4771"
           transform="matrix(1.575153,0,0,-1.575153,-39.273521,1283.2402)"
           xml:space="preserve"
           stroke-miterlimit="10.433"
           font-style="normal"
           font-variant="normal"
           font-weight="normal"
           font-stretch="normal"
           font-size-adjust="none"
           letter-spacing="normal"
           word-spacing="normal"
           ns0:text="$\\theta$"
           ns0:preamble=""><path
             style="fill:#000000;stroke-width:0"
             inkscape:connector-curvature="0"
             d="m 227.96,662.21 0,0.07 0,0.07 0,0.07 0,0.07 -0.01,0.08 -0.01,0.08 -0.01,0.08 -0.01,0.08 -0.01,0.08 -0.02,0.09 -0.02,0.08 -0.02,0.09 -0.02,0.08 -0.02,0.09 -0.03,0.08 -0.03,0.08 -0.04,0.08 -0.03,0.08 -0.04,0.07 -0.05,0.07 -0.04,0.07 -0.05,0.06 -0.06,0.06 -0.05,0.06 -0.07,0.05 -0.03,0.02 -0.03,0.02 -0.04,0.02 -0.03,0.02 -0.04,0.02 -0.04,0.02 -0.04,0.01 -0.04,0.01 -0.04,0.01 -0.04,0.01 -0.04,0.01 -0.05,0 -0.04,0 -0.05,0.01 -0.01,-0.22 c 0.49,0 0.55,-0.64 0.55,-1.21 0,-0.49 -0.08,-0.99 -0.32,-1.98 l -2.08,0 c 0.17,0.64 0.37,1.43 0.76,2.14 0.27,0.49 0.64,1.05 1.09,1.05 l 0.01,0.22 c -1.39,0 -2.92,-2.81 -2.92,-5.1 0,-0.93 0.29,-2.04 1.2,-2.04 l 0,0.22 c -0.33,0 -0.54,0.29 -0.54,1.22 0,0.42 0.06,0.99 0.32,1.97 l 2.07,0 c -0.11,-0.46 -0.32,-1.31 -0.7,-2.02 -0.35,-0.68 -0.72,-1.17 -1.15,-1.17 l 0,-0.22 c 1.4,0 2.91,2.86 2.91,5.09 z"
             id="path4773" /></g>        <path
           style="fill:none;fill-rule:evenodd;stroke:#ff0000;stroke-width:1px;stroke-linecap:butt;stroke-linejoin:miter;stroke-opacity:1"
           d="m 471.81473,233.82407 c -1.30989,-0.0397 -2.73529,0.0866 -3.95225,-0.0795 -0.41674,-0.71296 -2.37604,0.0701 -2.83346,-0.63479 -1.24804,-0.20228 -0.95697,2.67636 -0.35714,3.21428 0.0427,1.35243 0.3291,2.56057 0.58482,3.85938 1.35822,0.67587 1.03018,3.12537 0.62122,4.03055 -3.13778,-0.0653 -6.29032,-0.0204 -9.42033,-0.0328 -1.9e-4,3.33114 -10e-4,6.67692 0,10 1.12985,0.2906 0.15405,2.17804 -1.08079,1.43085 -3.21114,-0.005 -6.42252,-0.001 -9.6335,-0.002 -0.006,2.24792 0.005,4.58427 0,6.78571 -0.002,-0.71588 0.23611,1.41863 -0.91764,0.71035 -1.49377,-0.17586 -2.99917,0.21796 -4.13258,0.57871 -0.26999,1.3009 -0.40583,3.0139 -0.30692,4.78237 -2.5738,0.32213 -4.77329,-0.47897 -7.26685,-0.36169 -1.57759,-0.45934 -0.61417,1.69699 -1.2809,2.06793 -1.51955,0.43452 -3.3107,0.65488 -5.02368,0.79376 -0.66484,-0.65904 -1.44989,-0.25757 -1.04033,1.11845 0.19741,0.37729 -0.20878,0.37195 -0.38824,0.31012"
           id="path4811"
           inkscape:connector-curvature="0" />
        <ellipse
           style="opacity:1;fill:none;fill-opacity:1;fill-rule:evenodd;stroke:#8c5ff7;stroke-width:2.72742581;stroke-linecap:round;stroke-linejoin:bevel;stroke-miterlimit:4;stroke-dasharray:none;stroke-dashoffset:0;stroke-opacity:1"
           id="ellipse4747"
           cx="472.03348"
           cy="234.13019"
           rx="1.1720012"
           ry="1.7077156" />
        <ellipse
           ry="1.7077156"
           rx="1.1720012"
           cy="244.13019"
           cx="466.14062"
           id="ellipse4814"
           style="opacity:1;fill:none;fill-opacity:1;fill-rule:evenodd;stroke:#8c5ff7;stroke-width:2.72742581;stroke-linecap:round;stroke-linejoin:bevel;stroke-miterlimit:4;stroke-dasharray:none;stroke-dashoffset:0;stroke-opacity:1" />
        <ellipse
           style="opacity:1;fill:none;fill-opacity:1;fill-rule:evenodd;stroke:#8c5ff7;stroke-width:2.72742581;stroke-linecap:round;stroke-linejoin:bevel;stroke-miterlimit:4;stroke-dasharray:none;stroke-dashoffset:0;stroke-opacity:1"
           id="ellipse4816"
           cx="457.03348"
           cy="255.38019"
           rx="1.1720012"
           ry="1.7077156" />
        <ellipse
           ry="1.7077156"
           rx="1.1720012"
           cy="263.59448"
           cx="447.03348"
           id="ellipse4818"
           style="opacity:1;fill:none;fill-opacity:1;fill-rule:evenodd;stroke:#8c5ff7;stroke-width:2.72742581;stroke-linecap:round;stroke-linejoin:bevel;stroke-miterlimit:4;stroke-dasharray:none;stroke-dashoffset:0;stroke-opacity:1" />
        <ellipse
           style="opacity:1;fill:none;fill-opacity:1;fill-rule:evenodd;stroke:#8c5ff7;stroke-width:2.72742581;stroke-linecap:round;stroke-linejoin:bevel;stroke-miterlimit:4;stroke-dasharray:none;stroke-dashoffset:0;stroke-opacity:1"
           id="ellipse4820"
           cx="441.14062"
           cy="268.95163"
           rx="1.1720012"
           ry="1.7077156" />
        <ellipse
           ry="1.7077156"
           rx="1.1720012"
           cy="272.34448"
           cx="432.92633"
           id="ellipse4822"
           style="opacity:1;fill:none;fill-opacity:1;fill-rule:evenodd;stroke:#8c5ff7;stroke-width:2.72742581;stroke-linecap:round;stroke-linejoin:bevel;stroke-miterlimit:4;stroke-dasharray:none;stroke-dashoffset:0;stroke-opacity:1" />
        <ellipse
           style="opacity:1;fill:none;fill-opacity:1;fill-rule:evenodd;stroke:#8c5ff7;stroke-width:2.72742581;stroke-linecap:round;stroke-linejoin:bevel;stroke-miterlimit:4;stroke-dasharray:none;stroke-dashoffset:0;stroke-opacity:1"
           id="ellipse4824"
           cx="426.49777"
           cy="272.88019"
           rx="1.1720012"
           ry="1.7077156" />
      </g>
      <path
         inkscape:connector-curvature="0"
         id="path5019"
         d="m 1162.3003,161.38901 0,191.92898 430.325,0"
         style="fill:none;fill-rule:evenodd;stroke:#000000;stroke-width:1px;stroke-linecap:butt;stroke-linejoin:miter;stroke-opacity:1" />
      <text
         sodipodi:linespacing="125%"
         id="text5021"
         y="384.48917"
         x="1247.1531"
         style="font-style:normal;font-variant:normal;font-weight:normal;font-stretch:normal;font-size:22.5px;line-height:125%;font-family:Arial;-inkscape-font-specification:Arial;text-align:start;letter-spacing:0px;word-spacing:0px;text-anchor:start;fill:#000000;fill-opacity:1;stroke:none;stroke-width:1px;stroke-linecap:butt;stroke-linejoin:miter;stroke-opacity:1"
         xml:space="preserve"><tspan
           y="384.48917"
           x="1247.1531"
           id="tspan5023"
           sodipodi:role="line">number iterations</tspan></text>
      <g
         transform="translate(1073.4069,-0.01865)"
         id="g5027">
        <text
           xml:space="preserve"
           style="font-style:normal;font-variant:normal;font-weight:normal;font-stretch:normal;font-size:27.5px;line-height:125%;font-family:UnPilgi;-inkscape-font-specification:UnPilgi;text-align:start;letter-spacing:0px;word-spacing:0px;text-anchor:start;fill:#000000;fill-opacity:1;stroke:none;stroke-width:1px;stroke-linecap:butt;stroke-linejoin:miter;stroke-opacity:1"
           x="17.172592"
           y="223.02696"
           id="text5029"
           sodipodi:linespacing="125%"><tspan
             sodipodi:role="line"
             id="tspan5031"
             x="17.172592"
             y="223.02696">J(  )</tspan></text>
        <g
           style="font-style:normal;font-variant:normal;font-weight:normal;font-stretch:normal;letter-spacing:normal;word-spacing:normal;text-anchor:start;fill:none;fill-opacity:1;fill-rule:evenodd;stroke:#000000;stroke-linecap:butt;stroke-linejoin:miter;stroke-miterlimit:10.43299961;stroke-dasharray:none;stroke-dashoffset:0;stroke-opacity:1"
           id="g5033"
           transform="matrix(3.2636438,0,0,-3.2636438,-683.48314,2371.8359)"
           xml:space="preserve"
           stroke-miterlimit="10.433"
           font-style="normal"
           font-variant="normal"
           font-weight="normal"
           font-stretch="normal"
           font-size-adjust="none"
           letter-spacing="normal"
           word-spacing="normal"
           ns0:text="$\\theta$"
           ns0:preamble=""><path
             style="fill:#000000;stroke-width:0"
             inkscape:connector-curvature="0"
             d="m 227.96,662.21 0,0.07 0,0.07 0,0.07 0,0.07 -0.01,0.08 -0.01,0.08 -0.01,0.08 -0.01,0.08 -0.01,0.08 -0.02,0.09 -0.02,0.08 -0.02,0.09 -0.02,0.08 -0.02,0.09 -0.03,0.08 -0.03,0.08 -0.04,0.08 -0.03,0.08 -0.04,0.07 -0.05,0.07 -0.04,0.07 -0.05,0.06 -0.06,0.06 -0.05,0.06 -0.07,0.05 -0.03,0.02 -0.03,0.02 -0.04,0.02 -0.03,0.02 -0.04,0.02 -0.04,0.02 -0.04,0.01 -0.04,0.01 -0.04,0.01 -0.04,0.01 -0.04,0.01 -0.05,0 -0.04,0 -0.05,0.01 -0.01,-0.22 c 0.49,0 0.55,-0.64 0.55,-1.21 0,-0.49 -0.08,-0.99 -0.32,-1.98 l -2.08,0 c 0.17,0.64 0.37,1.43 0.76,2.14 0.27,0.49 0.64,1.05 1.09,1.05 l 0.01,0.22 c -1.39,0 -2.92,-2.81 -2.92,-5.1 0,-0.93 0.29,-2.04 1.2,-2.04 l 0,0.22 c -0.33,0 -0.54,0.29 -0.54,1.22 0,0.42 0.06,0.99 0.32,1.97 l 2.07,0 c -0.11,-0.46 -0.32,-1.31 -0.7,-2.02 -0.35,-0.68 -0.72,-1.17 -1.15,-1.17 l 0,-0.22 c 1.4,0 2.91,2.86 2.91,5.09 z"
             id="path5035" /></g>      </g>
      <path
         inkscape:connector-curvature="0"
         id="path5046"
         d="m 1197.8863,220.59114 c 3.2651,8.73709 3.068,19.24333 7.1428,27.14286 0.139,8.28801 4.5474,12.21603 8.5715,18.57142 0.095,7.48671 4.0295,5.16047 6.9707,10.81 1.9458,-3.71618 0.7168,5.26079 5.8864,2.04715 6.3122,4.66947 19.0225,-0.68124 24.6925,-2.8635 -1.1423,-2.57134 5.4843,-3.17483 5.3075,-5.70793 3.0276,-3.4142 8.1498,-8.29998 10.2679,-12.41072 0.9302,-4.93435 3.6635,-9.48336 5.5392,-13.23667 1.6057,-5.64521 4.3732,-11.16743 5.6215,-15.78118 1.7797,-9.90971 8.0746,-6.6745 8.5714,1.42857 2.2848,6.59282 -0.4234,16.53369 4.4751,20.63583 0.5224,3.59052 2.8344,7.15325 5.7491,9.97491 0.6117,6.58266 3.7995,5.17136 6.317,9.60721 6.6063,-0.14761 9.55,5.00103 14.1731,6.92491 6.0359,6.56018 19.659,2.23211 26.5148,-2.71755 4.5443,-4.26712 7.8591,-10.16659 13.6477,-16.64572 5.0576,-5.22763 5.3388,-13.95825 8.4089,-19.20816 2.571,-3.19548 2.1696,-18.85635 5,-5.71429 7.3401,10.2996 5.6045,22.63104 8.3565,34.17019 2.1887,-1.38566 3.3596,11.81745 7.4042,12.22494 3.5382,4.00174 11.5747,7.99542 17.0965,2.1763 3.7775,-1.31969 2.2177,-1.77646 7.1428,-3.57143 4.4799,-2.16469 17.1794,-5.35907 16.9615,-9.3443 3.6958,-5.25945 9.5489,-8.0101 11.1012,-15.86399 2.8433,0.69198 4.2099,-15.23699 5.5087,-19.79171 0.794,-3.10565 1.2012,-9.31984 6.4286,-2.85714 3.4283,9.75212 11.7731,18.44198 12.8572,28.57143 2.7942,9.77922 6.2165,13.81379 8.5714,18.57143 3.8252,5.07213 7.7672,9.11986 10.7143,11.42857 4.707,6.55875 18.1719,7.56175 26.4285,4.28571 7.4319,0.26737 15.7979,-10.71826 18.1647,-12.8508 7.1277,-2.85892 11.4807,-12.0105 14.0113,-19.27835 1.8651,-7.57318 3.2795,-15.83334 3.5383,-24.30643 0.2451,-5.10629 -0.8815,-10.88984 1.4286,-14.99299"
         style="fill:#ffffff;fill-opacity:1;fill-rule:evenodd;stroke:#8c5ff7;stroke-width:4;stroke-linecap:butt;stroke-linejoin:miter;stroke-miterlimit:4;stroke-dasharray:none;stroke-opacity:1" />
      <text
         sodipodi:linespacing="125%"
         id="text5051"
         y="121.81799"
         x="1202.8683"
         style="font-style:normal;font-variant:normal;font-weight:normal;font-stretch:normal;font-size:22.5px;line-height:125%;font-family:Arial;-inkscape-font-specification:Arial;text-align:start;letter-spacing:0px;word-spacing:0px;text-anchor:start;fill:#000000;fill-opacity:1;stroke:none;stroke-width:1px;stroke-linecap:butt;stroke-linejoin:miter;stroke-opacity:1"
         xml:space="preserve"><tspan
           id="tspan5067"
           y="121.81799"
           x="1202.8683"
           sodipodi:role="line">Likely learning rate is too high</tspan></text>
      <path
         inkscape:connector-curvature="0"
         id="path4213"
         d="m 635.33158,161.26661 0,191.92898 430.32492,0"
         style="fill:none;fill-rule:evenodd;stroke:#000000;stroke-width:1px;stroke-linecap:butt;stroke-linejoin:miter;stroke-opacity:1" />
      <text
         sodipodi:linespacing="125%"
         id="text4219"
         y="384.36679"
         x="720.18439"
         style="font-style:normal;font-variant:normal;font-weight:normal;font-stretch:normal;font-size:22.5px;line-height:125%;font-family:Arial;-inkscape-font-specification:Arial;text-align:start;letter-spacing:0px;word-spacing:0px;text-anchor:start;fill:#000000;fill-opacity:1;stroke:none;stroke-width:1px;stroke-linecap:butt;stroke-linejoin:miter;stroke-opacity:1"
         xml:space="preserve"><tspan
           y="384.36679"
           x="720.18439"
           id="tspan4221"
           sodipodi:role="line">number iterations</tspan></text>
      <path
         inkscape:connector-curvature="0"
         id="path4223"
         d="m 1044.7813,164.29706 c -2.7355,9.33435 -6.1155,22.3495 -14.1421,30.30457 -3.3226,5.12981 -6.1191,9.54997 -11.1774,16.11514 -2.4862,6.89244 -9.2357,10.388 -11.046,18.23005 -3.9353,6.37411 -10.96956,11.88254 -12.12176,17.17259 -3.9955,4.46335 -6.3179,6.48874 -8.0813,11.11168 -5.1607,3.92554 -10.712,12.95738 -13.1319,16.16244 -5.9686,9.64511 -13.25843,14.06983 -20.91283,21.0601 -4.2169,7.04661 -11.3095,8.73047 -19.4933,14.29524 -5.26152,3.80763 -11.76757,5.7907 -17.12532,8.14685 -5.83489,3.81338 -15.56211,3.08743 -22.27066,7.00544 -11.36347,1.19766 -22.67503,2.85946 -34.66783,3.03046 -7.10711,-0.57621 -13.34803,0.99361 -20.20305,1.01015 -8.05105,-0.31494 -14.4739,1.91688 -21.07548,2.99347 -11.5079,-0.14788 -22.1207,1.92141 -33.47276,2.05729 -9.65699,-0.0235 -19.32096,0.0355 -28.97176,0 -6.5953,-2.51694 -14.8642,-0.36645 -22.1812,-1.01015 -11.7982,-0.01 -23.6085,0.0133 -35.3975,0 -5.8156,-2.36732 -13.3034,-0.36825 -19.8171,-1.01015 -5.768,0.27606 -10.6831,-0.43106 -15.5383,-1.01016"
         style="fill:none;fill-rule:evenodd;stroke:#8c5ff7;stroke-width:4;stroke-linecap:butt;stroke-linejoin:miter;stroke-miterlimit:4;stroke-dasharray:none;stroke-opacity:1" />
      <text
         xml:space="preserve"
         style="font-style:normal;font-variant:normal;font-weight:normal;font-stretch:normal;font-size:22.5px;line-height:125%;font-family:Arial;-inkscape-font-specification:Arial;text-align:start;letter-spacing:0px;word-spacing:0px;text-anchor:start;fill:#000000;fill-opacity:1;stroke:none;stroke-width:1px;stroke-linecap:butt;stroke-linejoin:miter;stroke-opacity:1"
         x="664.29681"
         y="120.5118"
         id="text4231"
         sodipodi:linespacing="125%"><tspan
           sodipodi:role="line"
           id="tspan4233"
           x="664.29681"
           y="120.5118">Learning rate probably</tspan><tspan
           sodipodi:role="line"
           x="664.29681"
           y="148.63681"
           id="tspan4235">too high, start to diverge</tspan></text>
      <g
         transform="translate(548.7333,8.4601264)"
         id="g4413">
        <text
           xml:space="preserve"
           style="font-style:normal;font-variant:normal;font-weight:normal;font-stretch:normal;font-size:27.5px;line-height:125%;font-family:UnPilgi;-inkscape-font-specification:UnPilgi;text-align:start;letter-spacing:0px;word-spacing:0px;text-anchor:start;fill:#000000;fill-opacity:1;stroke:none;stroke-width:1px;stroke-linecap:butt;stroke-linejoin:miter;stroke-opacity:1"
           x="17.172592"
           y="223.02696"
           id="text4415"
           sodipodi:linespacing="125%"><tspan
             sodipodi:role="line"
             id="tspan4417"
             x="17.172592"
             y="223.02696">J(  )</tspan></text>
        <g
           style="font-style:normal;font-variant:normal;font-weight:normal;font-stretch:normal;letter-spacing:normal;word-spacing:normal;text-anchor:start;fill:none;fill-opacity:1;fill-rule:evenodd;stroke:#000000;stroke-linecap:butt;stroke-linejoin:miter;stroke-miterlimit:10.43299961;stroke-dasharray:none;stroke-dashoffset:0;stroke-opacity:1"
           id="g4419"
           transform="matrix(3.2636438,0,0,-3.2636438,-683.48314,2371.8359)"
           xml:space="preserve"
           stroke-miterlimit="10.433"
           font-style="normal"
           font-variant="normal"
           font-weight="normal"
           font-stretch="normal"
           font-size-adjust="none"
           letter-spacing="normal"
           word-spacing="normal"
           ns0:text="$\\theta$"
           ns0:preamble=""><path
             style="fill:#000000;stroke-width:0"
             inkscape:connector-curvature="0"
             d="m 227.96,662.21 0,0.07 0,0.07 0,0.07 0,0.07 -0.01,0.08 -0.01,0.08 -0.01,0.08 -0.01,0.08 -0.01,0.08 -0.02,0.09 -0.02,0.08 -0.02,0.09 -0.02,0.08 -0.02,0.09 -0.03,0.08 -0.03,0.08 -0.04,0.08 -0.03,0.08 -0.04,0.07 -0.05,0.07 -0.04,0.07 -0.05,0.06 -0.06,0.06 -0.05,0.06 -0.07,0.05 -0.03,0.02 -0.03,0.02 -0.04,0.02 -0.03,0.02 -0.04,0.02 -0.04,0.02 -0.04,0.01 -0.04,0.01 -0.04,0.01 -0.04,0.01 -0.04,0.01 -0.05,0 -0.04,0 -0.05,0.01 -0.01,-0.22 c 0.49,0 0.55,-0.64 0.55,-1.21 0,-0.49 -0.08,-0.99 -0.32,-1.98 l -2.08,0 c 0.17,0.64 0.37,1.43 0.76,2.14 0.27,0.49 0.64,1.05 1.09,1.05 l 0.01,0.22 c -1.39,0 -2.92,-2.81 -2.92,-5.1 0,-0.93 0.29,-2.04 1.2,-2.04 l 0,0.22 c -0.33,0 -0.54,0.29 -0.54,1.22 0,0.42 0.06,0.99 0.32,1.97 l 2.07,0 c -0.11,-0.46 -0.32,-1.31 -0.7,-2.02 -0.35,-0.68 -0.72,-1.17 -1.15,-1.17 l 0,-0.22 c 1.4,0 2.91,2.86 2.91,5.09 z"
             id="path4421" /></g>      </g>
      <g
         transform="translate(-54.602608,200.87932)"
         id="g4433">
        <g
           id="g4269">
          <path
             style="fill:none;fill-rule:evenodd;stroke:#000000;stroke-width:1px;stroke-linecap:butt;stroke-linejoin:miter;stroke-opacity:1"
             d="m 757.88616,-2.00256 0,89.999998 152.85714,0"
             id="path4237"
             inkscape:connector-curvature="0" />
          <path
             style="fill:none;fill-rule:evenodd;stroke:#000000;stroke-width:1px;stroke-linecap:butt;stroke-linejoin:miter;stroke-opacity:1"
             d="m 781.81473,6.56887 c 1.46362,7.248216 3.52771,14.512299 7.81403,20.632117 3.06989,4.682745 5.71222,9.530586 8.15965,14.554991 2.2935,3.942507 4.60546,7.893808 8.19353,10.831883 3.60941,3.071558 8.31971,5.047303 12.61851,7.195289 4.71831,2.094626 9.8697,2.990552 14.72906,4.677625 4.95265,0.804062 9.61408,2.290599 14.54829,2.425236 5.64926,1.230957 11.17902,-0.470528 16.14332,-3.184871 5.14968,-2.254416 10.52563,-4.554901 14.21227,-8.964092 3.93836,-3.321508 6.77359,-7.555224 10.46046,-11.100794 5.4807,-7.048677 10.12173,-14.752165 14.42781,-22.563143 2.59743,-4.9088 5.38801,-9.730064 7.08592,-15.0214661 1.20184,-2.7242918 2.31345,-6.09145517 3.75001,-8.0542046"
             id="path4239"
             inkscape:connector-curvature="0" />
          <path
             style="fill:none;fill-rule:evenodd;stroke:#ff0000;stroke-width:1px;stroke-linecap:butt;stroke-linejoin:miter;stroke-opacity:1"
             d="m 877.17188,54.42601 c -4.52381,0 -9.04762,0 -13.57143,0 -1.07143,0 -2.14286,0 -3.21429,0 -0.47619,0 -0.95606,-0.0591 -1.42857,0 -0.48705,0.0609 -0.94151,0.29626 -1.42857,0.35714 -0.8269,0.10336 -1.66667,0 -2.5,0 -1.54762,0 -3.09524,0 -4.64286,0 -1.07143,0 -2.14285,0 -3.21428,0 -0.35715,0 -0.71705,0.0443 -1.07143,0 -0.60234,-0.0753 -1.18338,-0.28185 -1.78572,-0.35714 -0.70877,-0.0886 -1.42857,0 -2.14285,0 -1.42857,0 -2.85715,0 -4.28572,0 -0.61089,0 -1.57461,-0.0947 -2.14285,0 -0.37134,0.0619 -0.70009,0.29525 -1.07143,0.35714 -0.35229,0.0587 -0.71429,0 -1.07143,0 -1.07143,0 -2.14286,0 -3.21429,0 -0.33584,0 -1.1847,-0.12193 -1.42857,0 -0.15058,0.0753 -0.19742,0.30391 -0.35714,0.35714 -0.22588,0.0753 -0.47619,0 -0.71429,0 -0.35714,0 -0.71428,0 -1.07143,0 -1.30952,0 -2.61904,0 -3.92857,0 -4.16666,0 -8.33333,0 -12.5,0 -2.02381,0 -4.04762,0 -6.07143,0 -0.46592,0 -2.4776,-0.12651 -2.85714,0 -0.15972,0.0532 -0.20656,0.28186 -0.35714,0.35715 -0.22656,0.11328 -1.46406,0 -1.78572,0 -0.14118,0 -1.63318,-0.0763 -1.78571,0 -0.15058,0.0753 -0.20656,0.28185 -0.35714,0.35714 -0.1921,0.096 -2.1384,0 -2.5,0 -0.35715,0 -0.71429,0 -1.07143,0 -0.11905,0 -0.35714,0.11905 -0.35714,0 0,-0.23809 0.54592,0.16836 0.71428,0 0.0162,-0.0162 0,-1.61732 0,-1.78571 0,-1.78572 0,-3.57143 0,-5.35715 0,-0.43124 0.0943,-3.02559 0,-3.21428 -0.0753,-0.15059 -0.28185,-0.20656 -0.35714,-0.35715 -0.17239,-0.34477 0.17046,-1.80193 0,-2.14285 -0.0532,-0.10648 -0.27297,0.0842 -0.35714,0 -0.0842,-0.0842 0,-0.2381 0,-0.35715 0,-0.23809 0,-0.47619 0,-0.71428 0,-1.42857 0,-2.85714 0,-4.28572 0,-0.29928 0.0759,-1.63392 0,-1.78571 -0.0532,-0.10648 -0.27297,0.0842 -0.35715,0 -0.11059,-0.11059 0.11059,-1.67513 0,-1.78571 -0.0842,-0.0842 -0.27296,0.0842 -0.35714,0 -0.0842,-0.0842 0,-0.2381 0,-0.35715 0,-0.11904 0,-0.23809 0,-0.35714 0,-0.11905 0,-0.47619 0,-0.35714 0,0.23809 0,0.95238 0,0.71428 0,-0.35714 0,-0.71428 0,-1.07143 0,-0.11904 0.0532,-0.25066 0,-0.35714 -0.0465,-0.093 -0.63633,-0.4351 -0.35714,-0.71428 0.0371,-0.0372 2.12283,0 2.5,0 0.55499,0 2.59025,-0.13345 2.85714,0 0.15058,0.0753 0.20656,0.28185 0.35714,0.35714 0.22198,0.11099 2.44097,0 2.85715,0 0.47619,0 0.96162,-0.0934 1.42857,0 0.36915,0.0738 0.69875,0.3039 1.07143,0.35714 0.89826,0.12833 2.59163,0 3.57142,0 2.26191,0 4.52381,0 6.78572,0 13.21428,0 26.42857,0 39.64286,0 4.16666,0 8.33333,0 12.5,0 1.66666,0 3.33333,0 5,0 0.47619,0 0.95886,0.0783 1.42857,0 0.26257,-0.0438 0.45603,-0.29258 0.71428,-0.35714 0.34648,-0.0866 0.71429,0 1.07143,0 1.19048,0 2.38095,0 3.57143,0 0.4712,0 1.62152,0.10427 2.14286,0 0.36915,-0.0738 0.70009,-0.29525 1.07143,-0.35714 0.744,-0.124 3.23356,0 3.92857,0 3.80952,0 7.61904,0 11.42857,0 1.54762,0 3.09524,0 4.64286,0 0.32165,0 1.55915,0.11328 1.78571,0 0.15058,-0.0753 0.19742,-0.30391 0.35714,-0.35715 0.31526,-0.10508 1.05338,0 1.42857,0 0.95239,0 1.90477,0 2.85715,0 0.14706,0 0.97689,0.0945 1.07143,0 0.0842,-0.0842 -0.0842,-0.27296 0,-0.35714 0.17857,-0.17857 0.89285,0.17857 1.07142,0 0.0842,-0.0842 0,-0.23809 0,-0.35714 0,-1.07143 0,-2.14286 0,-3.21429 0,-1.78571 0,-3.57143 0,-5.35714 0,-0.48877 0.11199,-2.52117 0,-2.85714 -0.0532,-0.15972 -0.3039,-0.19743 -0.35714,-0.35715 -0.10283,-0.30849 0,-3.09109 0,-3.57143 0,-0.23809 0.0753,-0.4884 0,-0.71428 -0.0842,-0.25254 -0.27296,-0.46175 -0.35714,-0.71429 -0.13467,-0.40402 0,-1.93658 0,-2.5"
             id="path4249"
             inkscape:connector-curvature="0" />
          <path
             style="fill:none;fill-rule:evenodd;stroke:#ff0000;stroke-width:1px;stroke-linecap:butt;stroke-linejoin:miter;stroke-opacity:1"
             d="m 908.60045,10.14029 c -1.28704,0.15669 -2.64533,-0.18332 -3.92857,0 -0.37268,0.0532 -0.69788,0.31045 -1.07143,0.35715 -5.07937,0.63492 0.57143,-0.38095 -2.85714,0 -1.22674,-0.44656 -2.1252,0.57815 -3.21429,0.71428 -0.59064,0.0738 -1.19292,-0.0539 -1.78571,0 -1.44233,0.13112 -2.84244,0.59402 -4.28572,0.71429 -2.01682,0.16807 -4.05041,-0.10637 -6.07143,0 -0.95846,0.0504 -1.89947,0.2933 -2.85714,0.35714 -0.83149,0.0554 -1.66667,0 -2.5,0 -1.54762,0 -3.09524,0 -4.64286,0 -3.69047,0 -7.38095,0 -11.07143,0 -3.57142,0 -7.14285,0 -10.71428,0 -1.19048,0 -2.38244,-0.0595 -3.57143,0 -1.19492,0.0597 -2.37637,0.30024 -3.57143,0.35714 -1.30804,0.0623 -2.61905,0 -3.92857,0 -2.61905,0 -5.2381,0 -7.85714,0 -14.92942,0 1.04385,0.2215 -8.21429,-0.35714 -1.66342,-0.10396 -3.33333,0 -5,0 -0.59524,0 -1.19412,0.0657 -1.78571,0 -0.48785,-0.0542 -0.94073,-0.30294 -1.42857,-0.35714 -0.11384,-0.0127 -4.23141,-0.10286 -4.64286,0 -0.25825,0.0646 -0.45326,0.30494 -0.71429,0.35714 -0.58368,0.11674 -1.20203,-0.11673 -1.78571,0 -0.36915,0.0738 -0.69875,0.30391 -1.07143,0.35714 -0.4714,0.0674 -0.95529,-0.0526 -1.42857,0 -0.60332,0.067 -1.18048,0.31059 -1.78572,0.35715 -0.94957,0.073 -1.90476,0 -2.85714,0 -2.5,0 -5,0 -7.5,0 -1.54762,0 -3.09524,0 -4.64286,0 -0.83333,0 -1.67504,-0.11785 -2.5,0 -0.37267,0.0532 -0.70227,0.28331 -1.07142,0.35714 -0.23348,0.0467 -0.47619,0 -0.71429,0 -0.95238,0 -1.90476,0 -2.85714,0 -0.38228,0 -1.45312,0.11087 -1.78572,0 -0.25254,-0.0842 -0.46174,-0.27296 -0.71428,-0.35714 -0.11294,-0.0376 -0.2381,0 -0.35715,0 -0.35714,0 -0.71428,0 -1.07142,0 -1.19048,0 -2.38096,0 -3.57143,0 -0.27366,0 -2.83227,0.0249 -2.85715,0 -0.0842,-0.0842 0.0842,-0.27297 0,-0.35715 -0.0842,-0.0842 -0.3039,0.10648 -0.35714,0 -0.15972,-0.31943 0,-0.71428 0,-1.07142 0,-0.83334 0,-1.66667 0,-2.5 0,-2.7381 0,-5.47619 0,-8.21429 0,-0.516 0.11233,-3.23444 0,-3.57143 -0.0532,-0.15972 -0.28185,-0.20656 -0.35714,-0.35714 -0.17453,-0.34907 0.16372,-2.36599 0,-2.85714 -0.41038,-1.23115 -0.35714,-0.26456 -0.35714,-1.07143 0,-0.31135 0.0902,-2.67678 0,-2.85715 -0.0753,-0.15058 -0.30391,-0.19742 -0.35715,-0.35714 -0.18984,-0.56952 0.1906,-1.57106 0,-2.14286 -0.0842,-0.25253 -0.30493,-0.45325 -0.35714,-0.71428 -0.07,-0.35021 0,-0.71429 0,-1.07143 0,-0.11905 0.0532,-0.25066 0,-0.35714 -0.0753,-0.15059 -0.28185,-0.20656 -0.35714,-0.35715 -0.10648,-0.21295 0.0753,-0.4884 0,-0.71428 -0.0842,-0.25254 -0.27297,-0.46175 -0.35715,-0.71429 -0.12507,-0.37521 0,-1.02975 0,-1.42857"
             id="path4251"
             inkscape:connector-curvature="0" />
          <path
             style="fill:none;fill-rule:evenodd;stroke:#000000;stroke-width:1px;stroke-linecap:butt;stroke-linejoin:miter;stroke-opacity:1"
             d="m 780.74331,7.64029 c -1.30183,-1.13015 -2.00924,-2.5154 -2.85715,-3.92857 -0.22084,-0.36806 -0.52232,-0.68751 -0.71428,-1.07143 -1.47864,-2.95726 0.97561,0.92771 -1.07143,-2.14285 -0.2381,-0.35715 -0.49345,-0.70337 -0.71429,-1.07143 -0.13696,-0.22826 -0.20948,-0.4928 -0.35714,-0.71429 -0.43565,-0.65347 -0.45534,-0.0356 -0.71429,-1.07143 -0.0866,-0.34647 0.11294,-0.73261 0,-1.07142 -0.86231,-2.58694 0.10297,0.56307 -0.71428,-1.07143 -0.15972,-0.31944 0.11294,-0.73262 0,-1.07143 -0.0532,-0.15972 -0.28185,-0.20656 -0.35714,-0.35714 -0.0532,-0.10648 0.0376,-0.24421 0,-0.35715 -0.0842,-0.25253 -0.27297,-0.46174 -0.35715,-0.71428 -0.0376,-0.11294 0,-0.2381 0,-0.35715 0,-0.23809 0.0753,-0.4884 0,-0.71428 -0.0532,-0.15972 -0.28185,-0.20656 -0.35714,-0.35714 -0.0532,-0.10648 0.0376,-0.24421 0,-0.35715 -0.0842,-0.25253 -0.29258,-0.45603 -0.35714,-0.71428 -0.0578,-0.23099 0.10648,-0.50133 0,-0.71429 -0.0532,-0.10648 -0.30391,0.10648 -0.35715,0 -0.10648,-0.21296 0.0753,-0.48841 0,-0.71428 -0.28232,-0.84698 -0.35714,0.22623 -0.35714,-1.07143 0,-0.24005 0.10539,-0.86066 0,-1.07143 -0.0753,-0.15059 -0.28185,-0.20656 -0.35714,-0.35714 -0.0532,-0.10648 0,-0.2381 0,-0.35715 -0.11905,-0.11904 -0.28185,-0.20655 -0.35714,-0.35714 -0.0532,-0.10648 0.0532,-0.25066 0,-0.35714 -0.81726,-1.6345 0.14802,1.5155 -0.71429,-1.07143 -0.1004,-0.3012 0.14102,-0.78939 0,-1.07143 -0.0753,-0.15058 -0.28185,-0.20656 -0.35714,-0.35714 -0.19048,-0.38095 0.19047,-1.04762 0,-1.42857 -0.0753,-0.15059 -0.28185,-0.20656 -0.35715,-0.35715 -0.14101,-0.28203 0.1004,-0.77023 0,-1.07143 -0.0842,-0.25253 -0.27296,-0.46174 -0.35714,-0.71428 -0.0376,-0.11294 0.0532,-0.25066 0,-0.35714 -0.0753,-0.15059 -0.28185,-0.20656 -0.35714,-0.35715 -0.0532,-0.10648 0,-0.23809 0,-0.35714 0,-0.35714 0.0866,-0.72495 0,-1.07143 -0.0408,-0.16333 -0.28185,-0.20656 -0.35714,-0.35714 -0.17005,-0.3401 0.12659,-1.40593 0,-1.78572 -0.0532,-0.15971 -0.2381,-0.23809 -0.35715,-0.35714 -0.11905,-0.23809 -0.27296,-0.46175 -0.35714,-0.71428 -0.14286,-0.42858 0.14286,-1 0,-1.42858 -0.0842,-0.25253 -0.27296,-0.46174 -0.35714,-0.71428 -0.12021,-0.36064 0,-1.7412 0,-2.14286"
             id="path4253"
             inkscape:connector-curvature="0" />
          <ellipse
             style="opacity:1;fill:none;fill-opacity:1;fill-rule:evenodd;stroke:#8c5ff7;stroke-width:2.72742581;stroke-linecap:round;stroke-linejoin:bevel;stroke-miterlimit:4;stroke-dasharray:none;stroke-dashoffset:0;stroke-opacity:1"
             id="path4255"
             cx="877.3504"
             cy="54.426018"
             rx="1.1720012"
             ry="1.7077156" />
          <ellipse
             ry="1.7077156"
             rx="1.1720012"
             cy="31.926016"
             cx="793.42181"
             id="ellipse4257"
             style="opacity:1;fill:none;fill-opacity:1;fill-rule:evenodd;stroke:#8c5ff7;stroke-width:2.72742581;stroke-linecap:round;stroke-linejoin:bevel;stroke-miterlimit:4;stroke-dasharray:none;stroke-dashoffset:0;stroke-opacity:1" />
          <ellipse
             style="opacity:1;fill:none;fill-opacity:1;fill-rule:evenodd;stroke:#8c5ff7;stroke-width:2.72742581;stroke-linecap:round;stroke-linejoin:bevel;stroke-miterlimit:4;stroke-dasharray:none;stroke-dashoffset:0;stroke-opacity:1"
             id="ellipse4259"
             cx="907.3504"
             cy="10.1403"
             rx="1.1720012"
             ry="1.7077156" />
          <ellipse
             ry="1.7077156"
             rx="1.1720012"
             cy="-15.216845"
             cx="770.92181"
             id="ellipse4261"
             style="opacity:1;fill:none;fill-opacity:1;fill-rule:evenodd;stroke:#8c5ff7;stroke-width:2.72742581;stroke-linecap:round;stroke-linejoin:bevel;stroke-miterlimit:4;stroke-dasharray:none;stroke-dashoffset:0;stroke-opacity:1" />
          <path
             style="fill:none;fill-rule:evenodd;stroke:#000000;stroke-width:1px;stroke-linecap:butt;stroke-linejoin:miter;stroke-opacity:1"
             d="m 841.10045,50.14029 c -0.0536,0.10712 -0.7372,2.03909 -1.42857,2.5 -0.22149,0.14767 -0.52606,0.16892 -0.71429,0.35715 -0.18823,0.18823 -0.16891,0.52605 -0.35714,0.71428 -0.0842,0.0842 -0.27297,-0.0842 -0.35714,0 -0.0842,0.0842 0.0532,0.25067 0,0.35715 -0.15059,0.30117 -0.56371,0.41311 -0.71429,0.71428 -0.0532,0.10648 0.0842,0.27297 0,0.35714 -0.0842,0.0842 -0.27296,-0.0842 -0.35714,0 -0.0842,0.0842 0.0842,0.27297 0,0.35715 -0.16836,0.16836 -0.54593,-0.16836 -0.71429,0 -0.0842,0.0842 -0.066,0.25809 0,0.35714 0.18678,0.28017 0.50394,0.45135 0.71429,0.71429 0.26814,0.33517 0.41077,0.76791 0.71428,1.07142 0.18823,0.18824 0.55457,0.14419 0.71429,0.35715 0.22588,0.30117 0.13126,0.77026 0.35714,1.07143 0.15972,0.21296 0.52606,0.16891 0.71429,0.35714 0.18823,0.18823 0.16891,0.52605 0.35714,0.71428 0.16836,0.16836 0.54593,-0.16835 0.71429,0 0.0842,0.0842 -0.0842,0.27297 0,0.35715 0.40209,0.40209 0.71428,-0.90968 0.71428,0.71428"
             id="path4263"
             inkscape:connector-curvature="0" />
          <path
             style="fill:none;fill-rule:evenodd;stroke:#000000;stroke-width:1px;stroke-linecap:butt;stroke-linejoin:miter;stroke-opacity:1"
             d="m 833.24331,29.78315 c 1.89983,0.86971 3.19904,2.48476 4.64285,3.92857 0.23468,0.23468 0.80277,0.9371 1.07143,1.07143 0.95238,0 -0.11905,-0.11905 0.35714,0.35714 0.15873,0.15874 0.67461,-0.27777 0.35715,0.35715 -0.32517,0.65032 -0.27092,0.20935 -0.71429,0.35714 -0.25254,0.0842 -0.49279,0.20948 -0.71428,0.35714 -0.28017,0.18678 -0.41312,0.5637 -0.71429,0.71429 -0.10648,0.0532 -0.27296,-0.0842 -0.35714,0 -0.47619,0.47619 0.59524,0.35714 -0.35715,0.35714"
             id="path4265"
             inkscape:connector-curvature="0" />
          <path
             style="fill:none;fill-rule:evenodd;stroke:#000000;stroke-width:1px;stroke-linecap:butt;stroke-linejoin:miter;stroke-opacity:1"
             d="m 833.95759,9.42601 c -0.47619,0.11905 -0.95238,0.23809 -1.42857,0.35714 -0.2381,0 -0.4833,-0.0577 -0.71429,0 -0.25825,0.0646 -0.46174,0.27297 -0.71428,0.35714 -0.45861,0.15287 -1.77676,-0.18305 -2.14286,0 -0.15058,0.0753 -0.20656,0.28186 -0.35714,0.35715 -0.21296,0.10648 -0.50133,-0.10648 -0.71429,0 -0.15058,0.0753 -0.20656,0.28185 -0.35714,0.35714 -0.21296,0.10648 -0.54593,-0.16836 -0.71429,0 -0.0842,0.0842 0,0.2381 0,0.35714 0,0.11905 0,0.2381 0,0.35715 0,0.77314 -0.10648,0.73313 0.35715,1.42857 0.0934,0.14008 0.3039,0.19742 0.35714,0.35714 0.0753,0.22588 -0.13207,0.51618 0,0.71429 0.86999,1.30498 0.52282,-0.38294 1.07143,0.71428 0.0532,0.10648 -0.066,0.25809 0,0.35714 0.18678,0.28017 0.47619,0.4762 0.71428,0.71429 0.11905,0.11905 0.20656,0.28185 0.35715,0.35714 0.10648,0.0532 0.27296,-0.0842 0.35714,0 0.36548,0.36548 -0.73226,1.07143 0.71429,1.07143"
             id="path4267"
             inkscape:connector-curvature="0" />
        </g>
        <text
           xml:space="preserve"
           style="font-style:normal;font-variant:normal;font-weight:normal;font-stretch:normal;font-size:15.59446239px;line-height:125%;font-family:UnPilgi;-inkscape-font-specification:UnPilgi;text-align:start;letter-spacing:0px;word-spacing:0px;text-anchor:start;fill:#000000;fill-opacity:1;stroke:none;stroke-width:1px;stroke-linecap:butt;stroke-linejoin:miter;stroke-opacity:1"
           x="821.95465"
           y="103.03311"
           id="text4287"
           sodipodi:linespacing="125%"><tspan
             sodipodi:role="line"
             id="tspan4289"
             x="821.95465"
             y="103.03311">Iters</tspan></text>
        <g
           transform="matrix(0.48263631,0,0,0.48263631,716.63149,-66.555235)"
           id="g4423">
          <text
             xml:space="preserve"
             style="font-style:normal;font-variant:normal;font-weight:normal;font-stretch:normal;font-size:27.5px;line-height:125%;font-family:UnPilgi;-inkscape-font-specification:UnPilgi;text-align:start;letter-spacing:0px;word-spacing:0px;text-anchor:start;fill:#000000;fill-opacity:1;stroke:none;stroke-width:1px;stroke-linecap:butt;stroke-linejoin:miter;stroke-opacity:1"
             x="17.172592"
             y="223.02696"
             id="text4425"
             sodipodi:linespacing="125%"><tspan
               sodipodi:role="line"
               id="tspan4427"
               x="17.172592"
               y="223.02696">J(  )</tspan></text>
          <g
             style="font-style:normal;font-variant:normal;font-weight:normal;font-stretch:normal;letter-spacing:normal;word-spacing:normal;text-anchor:start;fill:none;fill-opacity:1;fill-rule:evenodd;stroke:#000000;stroke-linecap:butt;stroke-linejoin:miter;stroke-miterlimit:10.43299961;stroke-dasharray:none;stroke-dashoffset:0;stroke-opacity:1"
             id="g4429"
             transform="matrix(3.2636438,0,0,-3.2636438,-683.48314,2371.8359)"
             xml:space="preserve"
             stroke-miterlimit="10.433"
             font-style="normal"
             font-variant="normal"
             font-weight="normal"
             font-stretch="normal"
             font-size-adjust="none"
             letter-spacing="normal"
             word-spacing="normal"
             ns0:text="$\\theta$"
             ns0:preamble=""><path
               style="fill:#000000;stroke-width:0"
               inkscape:connector-curvature="0"
               d="m 227.96,662.21 0,0.07 0,0.07 0,0.07 0,0.07 -0.01,0.08 -0.01,0.08 -0.01,0.08 -0.01,0.08 -0.01,0.08 -0.02,0.09 -0.02,0.08 -0.02,0.09 -0.02,0.08 -0.02,0.09 -0.03,0.08 -0.03,0.08 -0.04,0.08 -0.03,0.08 -0.04,0.07 -0.05,0.07 -0.04,0.07 -0.05,0.06 -0.06,0.06 -0.05,0.06 -0.07,0.05 -0.03,0.02 -0.03,0.02 -0.04,0.02 -0.03,0.02 -0.04,0.02 -0.04,0.02 -0.04,0.01 -0.04,0.01 -0.04,0.01 -0.04,0.01 -0.04,0.01 -0.05,0 -0.04,0 -0.05,0.01 -0.01,-0.22 c 0.49,0 0.55,-0.64 0.55,-1.21 0,-0.49 -0.08,-0.99 -0.32,-1.98 l -2.08,0 c 0.17,0.64 0.37,1.43 0.76,2.14 0.27,0.49 0.64,1.05 1.09,1.05 l 0.01,0.22 c -1.39,0 -2.92,-2.81 -2.92,-5.1 0,-0.93 0.29,-2.04 1.2,-2.04 l 0,0.22 c -0.33,0 -0.54,0.29 -0.54,1.22 0,0.42 0.06,0.99 0.32,1.97 l 2.07,0 c -0.11,-0.46 -0.32,-1.31 -0.7,-2.02 -0.35,-0.68 -0.72,-1.17 -1.15,-1.17 l 0,-0.22 c 1.4,0 2.91,2.86 2.91,5.09 z"
               id="path4431" /></g>        </g>
      </g>
      <text
         sodipodi:linespacing="125%"
         id="text4350"
         y="120.5118"
         x="178.5825"
         style="font-style:normal;font-variant:normal;font-weight:normal;font-stretch:normal;font-size:22.5px;line-height:125%;font-family:Arial;-inkscape-font-specification:Arial;text-align:start;letter-spacing:0px;word-spacing:0px;text-anchor:start;fill:#000000;fill-opacity:1;stroke:none;stroke-width:1px;stroke-linecap:butt;stroke-linejoin:miter;stroke-opacity:1"
         xml:space="preserve"><tspan
           id="tspan4354"
           y="120.5118"
           x="178.5825"
           sodipodi:role="line">Good learning rate, cost is </tspan><tspan
           id="tspan4358"
           y="148.63681"
           x="178.5825"
           sodipodi:role="line">decreasing at every iteration</tspan></text>
    </g>
    <text
       xml:space="preserve"
       style="font-style:normal;font-weight:normal;font-size:25.83102036px;line-height:125%;font-family:Sans;text-align:start;letter-spacing:0px;word-spacing:0px;text-anchor:start;fill:#000000;fill-opacity:1;stroke:none;stroke-width:1px;stroke-linecap:butt;stroke-linejoin:miter;stroke-opacity:1"
       x="45.63467"
       y="124.22022"
       id="text4463"
       sodipodi:linespacing="125%"><tspan
         sodipodi:role="line"
         id="tspan4465"
         x="45.63467"
         y="124.22022">A)</tspan></text>
    <text
       sodipodi:linespacing="125%"
       id="text4467"
       y="124.22022"
       x="525.6347"
       style="font-style:normal;font-weight:normal;font-size:25.83102036px;line-height:125%;font-family:Sans;text-align:start;letter-spacing:0px;word-spacing:0px;text-anchor:start;fill:#000000;fill-opacity:1;stroke:none;stroke-width:1px;stroke-linecap:butt;stroke-linejoin:miter;stroke-opacity:1"
       xml:space="preserve"><tspan
         y="124.22022"
         x="525.6347"
         id="tspan4469"
         sodipodi:role="line">B)</tspan></text>
    <text
       xml:space="preserve"
       style="font-style:normal;font-weight:normal;font-size:25.83102036px;line-height:125%;font-family:Sans;text-align:start;letter-spacing:0px;word-spacing:0px;text-anchor:start;fill:#000000;fill-opacity:1;stroke:none;stroke-width:1px;stroke-linecap:butt;stroke-linejoin:miter;stroke-opacity:1"
       x="1065.6348"
       y="124.22022"
       id="text4471"
       sodipodi:linespacing="125%"><tspan
         sodipodi:role="line"
         id="tspan4473"
         x="1065.6348"
         y="124.22022">C)</tspan></text>
  </g>
</svg>
